G04 PROTEUS RS274X GERBER FILE*
%FSLAX45Y45*%
%MOMM*%
G01*
%ADD67C,0.127000*%
%ADD65C,0.025400*%
%ADD175C,0.063500*%
D67*
X+837850Y+2755700D02*
X+837850Y+2628700D01*
X+774350Y+2692200D02*
X+901350Y+2692200D01*
X+792949Y+2737101D02*
X+882751Y+2647299D01*
X+792949Y+2647299D02*
X+882751Y+2737101D01*
X+743870Y+3097330D02*
X+743870Y+2970330D01*
X+680370Y+3033830D02*
X+807370Y+3033830D01*
X+698969Y+3078731D02*
X+788771Y+2988929D01*
X+698969Y+2988929D02*
X+788771Y+3078731D01*
X+1551550Y+3047800D02*
X+1551550Y+2920800D01*
X+1488050Y+2984300D02*
X+1615050Y+2984300D01*
X+1506649Y+3029201D02*
X+1596451Y+2939399D01*
X+1506649Y+2939399D02*
X+1596451Y+3029201D01*
X+1207400Y+3212900D02*
X+1207400Y+3085900D01*
X+1143900Y+3149400D02*
X+1270900Y+3149400D01*
X+1162499Y+3194301D02*
X+1252301Y+3104499D01*
X+1162499Y+3104499D02*
X+1252301Y+3194301D01*
X+458100Y+2850950D02*
X+458100Y+2723950D01*
X+394600Y+2787450D02*
X+521600Y+2787450D01*
X+413199Y+2832351D02*
X+503001Y+2742549D01*
X+413199Y+2742549D02*
X+503001Y+2832351D01*
X+458100Y+2850950D02*
X+458100Y+2723950D01*
X+394600Y+2787450D02*
X+521600Y+2787450D01*
X+413199Y+2832351D02*
X+503001Y+2742549D01*
X+413199Y+2742549D02*
X+503001Y+2832351D01*
X+1207400Y+2755700D02*
X+1207400Y+2628700D01*
X+1143900Y+2692200D02*
X+1270900Y+2692200D01*
X+1162499Y+2737101D02*
X+1252301Y+2647299D01*
X+1162499Y+2647299D02*
X+1252301Y+2737101D01*
X+1832950Y+3353000D02*
X+1832950Y+3226000D01*
X+1769450Y+3289500D02*
X+1896450Y+3289500D01*
X+1788049Y+3334401D02*
X+1877851Y+3244599D01*
X+1788049Y+3244599D02*
X+1877851Y+3334401D01*
X+1744050Y+3441900D02*
X+1744050Y+3314900D01*
X+1680550Y+3378400D02*
X+1807550Y+3378400D01*
X+1699149Y+3423301D02*
X+1788951Y+3333499D01*
X+1699149Y+3333499D02*
X+1788951Y+3423301D01*
X+1921850Y+3441900D02*
X+1921850Y+3314900D01*
X+1858350Y+3378400D02*
X+1985350Y+3378400D01*
X+1876949Y+3423301D02*
X+1966751Y+3333499D01*
X+1876949Y+3333499D02*
X+1966751Y+3423301D01*
X+1921850Y+3264100D02*
X+1921850Y+3137100D01*
X+1858350Y+3200600D02*
X+1985350Y+3200600D01*
X+1876949Y+3245501D02*
X+1966751Y+3155699D01*
X+1876949Y+3155699D02*
X+1966751Y+3245501D01*
X+1744050Y+3264100D02*
X+1744050Y+3137100D01*
X+1680550Y+3200600D02*
X+1807550Y+3200600D01*
X+1699149Y+3245501D02*
X+1788951Y+3155699D01*
X+1699149Y+3155699D02*
X+1788951Y+3245501D01*
X+1919850Y+3809800D02*
X+1919850Y+3682800D01*
X+1856350Y+3746300D02*
X+1983350Y+3746300D01*
X+1874949Y+3791201D02*
X+1964751Y+3701399D01*
X+1874949Y+3701399D02*
X+1964751Y+3791201D01*
X+2123050Y+3085900D02*
X+2123050Y+2958900D01*
X+2059550Y+3022400D02*
X+2186550Y+3022400D01*
X+2078149Y+3067301D02*
X+2167951Y+2977499D01*
X+2078149Y+2977499D02*
X+2167951Y+3067301D01*
X+2209800Y+3448050D02*
X+2209800Y+3321050D01*
X+2146300Y+3384550D02*
X+2273300Y+3384550D01*
X+2164899Y+3429451D02*
X+2254701Y+3339649D01*
X+2164899Y+3339649D02*
X+2254701Y+3429451D01*
X+2209800Y+3663950D02*
X+2209800Y+3536950D01*
X+2146300Y+3600450D02*
X+2273300Y+3600450D01*
X+2164899Y+3645351D02*
X+2254701Y+3555549D01*
X+2164899Y+3555549D02*
X+2254701Y+3645351D01*
X+1607450Y+3612950D02*
X+1607450Y+3485950D01*
X+1543950Y+3549450D02*
X+1670950Y+3549450D01*
X+1562549Y+3594351D02*
X+1652351Y+3504549D01*
X+1562549Y+3504549D02*
X+1652351Y+3594351D01*
X+4054000Y+3434250D02*
X+4054000Y+3307250D01*
X+3990500Y+3370750D02*
X+4117500Y+3370750D01*
X+4009099Y+3415651D02*
X+4098901Y+3325849D01*
X+4009099Y+3325849D02*
X+4098901Y+3415651D01*
X+3684150Y+3695850D02*
X+3684150Y+3568850D01*
X+3620650Y+3632350D02*
X+3747650Y+3632350D01*
X+3639249Y+3677251D02*
X+3729051Y+3587449D01*
X+3639249Y+3587449D02*
X+3729051Y+3677251D01*
X+4034150Y+3695850D02*
X+4034150Y+3568850D01*
X+3970650Y+3632350D02*
X+4097650Y+3632350D01*
X+3989249Y+3677251D02*
X+4079051Y+3587449D01*
X+3989249Y+3587449D02*
X+4079051Y+3677251D01*
X+2370850Y+3277200D02*
X+2370850Y+3150200D01*
X+2307350Y+3213700D02*
X+2434350Y+3213700D01*
X+2325949Y+3258601D02*
X+2415751Y+3168799D01*
X+2325949Y+3168799D02*
X+2415751Y+3258601D01*
X+2510550Y+3137500D02*
X+2510550Y+3010500D01*
X+2447050Y+3074000D02*
X+2574050Y+3074000D01*
X+2465649Y+3118901D02*
X+2555451Y+3029099D01*
X+2465649Y+3029099D02*
X+2555451Y+3118901D01*
X+2364350Y+2494100D02*
X+2364350Y+2367100D01*
X+2300850Y+2430600D02*
X+2427850Y+2430600D01*
X+2319449Y+2475501D02*
X+2409251Y+2385699D01*
X+2319449Y+2385699D02*
X+2409251Y+2475501D01*
X+2364350Y+2303600D02*
X+2364350Y+2176600D01*
X+2300850Y+2240100D02*
X+2427850Y+2240100D01*
X+2319449Y+2285001D02*
X+2409251Y+2195199D01*
X+2319449Y+2195199D02*
X+2409251Y+2285001D01*
X+2115450Y+2589350D02*
X+2115450Y+2462350D01*
X+2051950Y+2525850D02*
X+2178950Y+2525850D01*
X+2070549Y+2570751D02*
X+2160351Y+2480949D01*
X+2070549Y+2480949D02*
X+2160351Y+2570751D01*
X+1587150Y+2590600D02*
X+1587150Y+2463600D01*
X+1523650Y+2527100D02*
X+1650650Y+2527100D01*
X+1542249Y+2572001D02*
X+1632051Y+2482199D01*
X+1542249Y+2482199D02*
X+1632051Y+2572001D01*
X+1987550Y+2489200D02*
X+1987550Y+2362200D01*
X+1924050Y+2425700D02*
X+2051050Y+2425700D01*
X+1942649Y+2470601D02*
X+2032451Y+2380799D01*
X+1942649Y+2380799D02*
X+2032451Y+2470601D01*
X+996950Y+4080400D02*
X+996950Y+3953400D01*
X+933450Y+4016900D02*
X+1060450Y+4016900D01*
X+952049Y+4061801D02*
X+1041851Y+3971999D01*
X+952049Y+3971999D02*
X+1041851Y+4061801D01*
X+1748400Y+1897200D02*
X+1748400Y+1770200D01*
X+1684900Y+1833700D02*
X+1811900Y+1833700D01*
X+1703499Y+1878601D02*
X+1793301Y+1788799D01*
X+1703499Y+1788799D02*
X+1793301Y+1878601D01*
X+1597950Y+1694317D02*
X+1597950Y+1567317D01*
X+1534450Y+1630817D02*
X+1661450Y+1630817D01*
X+1553049Y+1675718D02*
X+1642851Y+1585916D01*
X+1553049Y+1585916D02*
X+1642851Y+1675718D01*
X+1182000Y+3708200D02*
X+1182000Y+3581200D01*
X+1118500Y+3644700D02*
X+1245500Y+3644700D01*
X+1137099Y+3689601D02*
X+1226901Y+3599799D01*
X+1137099Y+3599799D02*
X+1226901Y+3689601D01*
X+1207400Y+2590600D02*
X+1207400Y+2463600D01*
X+1143900Y+2527100D02*
X+1270900Y+2527100D01*
X+1162499Y+2572001D02*
X+1252301Y+2482199D01*
X+1162499Y+2482199D02*
X+1252301Y+2572001D01*
X+581654Y+2071620D02*
X+581654Y+1944620D01*
X+518154Y+2008120D02*
X+645154Y+2008120D01*
X+536753Y+2053021D02*
X+626555Y+1963219D01*
X+536753Y+1963219D02*
X+626555Y+2053021D01*
X+581654Y+1976370D02*
X+581654Y+1849370D01*
X+518154Y+1912870D02*
X+645154Y+1912870D01*
X+536753Y+1957771D02*
X+626555Y+1867969D01*
X+536753Y+1867969D02*
X+626555Y+1957771D01*
X+581654Y+1881120D02*
X+581654Y+1754120D01*
X+518154Y+1817620D02*
X+645154Y+1817620D01*
X+536753Y+1862521D02*
X+626555Y+1772719D01*
X+536753Y+1772719D02*
X+626555Y+1862521D01*
X+831500Y+3543100D02*
X+831500Y+3416100D01*
X+768000Y+3479600D02*
X+895000Y+3479600D01*
X+786599Y+3524501D02*
X+876401Y+3434699D01*
X+786599Y+3434699D02*
X+876401Y+3524501D01*
X+787050Y+3466900D02*
X+787050Y+3339900D01*
X+723550Y+3403400D02*
X+850550Y+3403400D01*
X+742149Y+3448301D02*
X+831951Y+3358499D01*
X+742149Y+3358499D02*
X+831951Y+3448301D01*
X+787050Y+3612950D02*
X+787050Y+3485950D01*
X+723550Y+3549450D02*
X+850550Y+3549450D01*
X+742149Y+3594351D02*
X+831951Y+3504549D01*
X+742149Y+3504549D02*
X+831951Y+3594351D01*
X+3444700Y+2705900D02*
X+3444700Y+2578900D01*
X+3381200Y+2642400D02*
X+3508200Y+2642400D01*
X+3399799Y+2687301D02*
X+3489601Y+2597499D01*
X+3399799Y+2597499D02*
X+3489601Y+2687301D01*
X+3113250Y+2905900D02*
X+3113250Y+2778900D01*
X+3049750Y+2842400D02*
X+3176750Y+2842400D01*
X+3068349Y+2887301D02*
X+3158151Y+2797499D01*
X+3068349Y+2797499D02*
X+3158151Y+2887301D01*
X+3444700Y+3009100D02*
X+3444700Y+2882100D01*
X+3381200Y+2945600D02*
X+3508200Y+2945600D01*
X+3399799Y+2990501D02*
X+3489601Y+2900699D01*
X+3399799Y+2900699D02*
X+3489601Y+2990501D01*
X+3444700Y+2805900D02*
X+3444700Y+2678900D01*
X+3381200Y+2742400D02*
X+3508200Y+2742400D01*
X+3399799Y+2787301D02*
X+3489601Y+2697499D01*
X+3399799Y+2697499D02*
X+3489601Y+2787301D01*
X+1404850Y+2072400D02*
X+1404850Y+1945400D01*
X+1341350Y+2008900D02*
X+1468350Y+2008900D01*
X+1359949Y+2053801D02*
X+1449751Y+1963999D01*
X+1359949Y+1963999D02*
X+1449751Y+2053801D01*
X+1394750Y+1980067D02*
X+1394750Y+1853067D01*
X+1331250Y+1916567D02*
X+1458250Y+1916567D01*
X+1349849Y+1961468D02*
X+1439651Y+1871666D01*
X+1349849Y+1871666D02*
X+1439651Y+1961468D01*
X+3698700Y+3231350D02*
X+3698700Y+3104350D01*
X+3635200Y+3167850D02*
X+3762200Y+3167850D01*
X+3653799Y+3212751D02*
X+3743601Y+3122949D01*
X+3653799Y+3122949D02*
X+3743601Y+3212751D01*
X+990600Y+4886850D02*
X+990600Y+4759850D01*
X+927100Y+4823350D02*
X+1054100Y+4823350D01*
X+945699Y+4868251D02*
X+1035501Y+4778449D01*
X+945699Y+4778449D02*
X+1035501Y+4868251D01*
X+3879675Y+2954325D02*
X+3879675Y+2827325D01*
X+3816175Y+2890825D02*
X+3943175Y+2890825D01*
X+3834774Y+2935726D02*
X+3924576Y+2845924D01*
X+3834774Y+2845924D02*
X+3924576Y+2935726D01*
X+3800300Y+3005100D02*
X+3800300Y+2878100D01*
X+3736800Y+2941600D02*
X+3863800Y+2941600D01*
X+3755399Y+2986501D02*
X+3845201Y+2896699D01*
X+3755399Y+2896699D02*
X+3845201Y+2986501D01*
X+3717750Y+3055900D02*
X+3717750Y+2928900D01*
X+3654250Y+2992400D02*
X+3781250Y+2992400D01*
X+3672849Y+3037301D02*
X+3762651Y+2947499D01*
X+3672849Y+2947499D02*
X+3762651Y+3037301D01*
X+4086550Y+3129450D02*
X+4086550Y+3002450D01*
X+4023050Y+3065950D02*
X+4150050Y+3065950D01*
X+4041649Y+3110851D02*
X+4131451Y+3021049D01*
X+4041649Y+3021049D02*
X+4131451Y+3110851D01*
X+3717750Y+2755900D02*
X+3717750Y+2628900D01*
X+3654250Y+2692400D02*
X+3781250Y+2692400D01*
X+3672849Y+2737301D02*
X+3762651Y+2647499D01*
X+3672849Y+2647499D02*
X+3762651Y+2737301D01*
X+4591050Y+2537650D02*
X+4591050Y+2410650D01*
X+4527550Y+2474150D02*
X+4654550Y+2474150D01*
X+4546149Y+2519051D02*
X+4635951Y+2429249D01*
X+4546149Y+2429249D02*
X+4635951Y+2519051D01*
X+4394200Y+2905900D02*
X+4394200Y+2778900D01*
X+4330700Y+2842400D02*
X+4457700Y+2842400D01*
X+4349299Y+2887301D02*
X+4439101Y+2797499D01*
X+4349299Y+2797499D02*
X+4439101Y+2887301D01*
X+3806650Y+2785250D02*
X+3806650Y+2658250D01*
X+3743150Y+2721750D02*
X+3870150Y+2721750D01*
X+3761749Y+2766651D02*
X+3851551Y+2676849D01*
X+3761749Y+2676849D02*
X+3851551Y+2766651D01*
X+1784000Y+2255900D02*
X+1784000Y+2128900D01*
X+1720500Y+2192400D02*
X+1847500Y+2192400D01*
X+1739099Y+2237301D02*
X+1828901Y+2147499D01*
X+1739099Y+2147499D02*
X+1828901Y+2237301D01*
X+1657000Y+2128900D02*
X+1657000Y+2001900D01*
X+1593500Y+2065400D02*
X+1720500Y+2065400D01*
X+1612099Y+2110301D02*
X+1701901Y+2020499D01*
X+1612099Y+2020499D02*
X+1701901Y+2110301D01*
X+1784000Y+2128900D02*
X+1784000Y+2001900D01*
X+1720500Y+2065400D02*
X+1847500Y+2065400D01*
X+1739099Y+2110301D02*
X+1828901Y+2020499D01*
X+1739099Y+2020499D02*
X+1828901Y+2110301D01*
X+1720500Y+2192400D02*
X+1720500Y+2065400D01*
X+1657000Y+2128900D02*
X+1784000Y+2128900D01*
X+1675599Y+2173801D02*
X+1765401Y+2083999D01*
X+1675599Y+2083999D02*
X+1765401Y+2173801D01*
X+920400Y+2259467D02*
X+920400Y+2132467D01*
X+856900Y+2195967D02*
X+983900Y+2195967D01*
X+875499Y+2240868D02*
X+965301Y+2151066D01*
X+875499Y+2151066D02*
X+965301Y+2240868D01*
X+837850Y+2164217D02*
X+837850Y+2037217D01*
X+774350Y+2100717D02*
X+901350Y+2100717D01*
X+792949Y+2145618D02*
X+882751Y+2055816D01*
X+792949Y+2055816D02*
X+882751Y+2145618D01*
X+837850Y+2259467D02*
X+837850Y+2132467D01*
X+774350Y+2195967D02*
X+901350Y+2195967D01*
X+792949Y+2240868D02*
X+882751Y+2151066D01*
X+792949Y+2151066D02*
X+882751Y+2240868D01*
X+1004200Y+1516517D02*
X+1004200Y+1389517D01*
X+940700Y+1453017D02*
X+1067700Y+1453017D01*
X+959299Y+1497918D02*
X+1049101Y+1408116D01*
X+959299Y+1408116D02*
X+1049101Y+1497918D01*
X+915300Y+1516517D02*
X+915300Y+1389517D01*
X+851800Y+1453017D02*
X+978800Y+1453017D01*
X+870399Y+1497918D02*
X+960201Y+1408116D01*
X+870399Y+1408116D02*
X+960201Y+1497918D01*
X+672750Y+2259467D02*
X+672750Y+2132467D01*
X+609250Y+2195967D02*
X+736250Y+2195967D01*
X+627849Y+2240868D02*
X+717651Y+2151066D01*
X+627849Y+2151066D02*
X+717651Y+2240868D01*
X+672750Y+2164217D02*
X+672750Y+2037217D01*
X+609250Y+2100717D02*
X+736250Y+2100717D01*
X+627849Y+2145618D02*
X+717651Y+2055816D01*
X+627849Y+2055816D02*
X+717651Y+2145618D01*
X+672750Y+2075317D02*
X+672750Y+1948317D01*
X+609250Y+2011817D02*
X+736250Y+2011817D01*
X+627849Y+2056718D02*
X+717651Y+1966916D01*
X+627849Y+1966916D02*
X+717651Y+2056718D01*
X+915300Y+1605417D02*
X+915300Y+1478417D01*
X+851800Y+1541917D02*
X+978800Y+1541917D01*
X+870399Y+1586818D02*
X+960201Y+1497016D01*
X+870399Y+1497016D02*
X+960201Y+1586818D01*
X+1080400Y+2259467D02*
X+1080400Y+2132467D01*
X+1016900Y+2195967D02*
X+1143900Y+2195967D01*
X+1035499Y+2240868D02*
X+1125301Y+2151066D01*
X+1035499Y+2151066D02*
X+1125301Y+2240868D01*
X+1657000Y+2255900D02*
X+1657000Y+2128900D01*
X+1593500Y+2192400D02*
X+1720500Y+2192400D01*
X+1612099Y+2237301D02*
X+1701901Y+2147499D01*
X+1612099Y+2147499D02*
X+1701901Y+2237301D01*
X+1786500Y+1630817D02*
X+1786500Y+1503817D01*
X+1723000Y+1567317D02*
X+1850000Y+1567317D01*
X+1741599Y+1612218D02*
X+1831401Y+1522416D01*
X+1741599Y+1522416D02*
X+1831401Y+1612218D01*
X+3717750Y+2655900D02*
X+3717750Y+2528900D01*
X+3654250Y+2592400D02*
X+3781250Y+2592400D01*
X+3672849Y+2637301D02*
X+3762651Y+2547499D01*
X+3672849Y+2547499D02*
X+3762651Y+2637301D01*
X+1929400Y+1827667D02*
X+1929400Y+1700667D01*
X+1865900Y+1764167D02*
X+1992900Y+1764167D01*
X+1884499Y+1809068D02*
X+1974301Y+1719266D01*
X+1884499Y+1719266D02*
X+1974301Y+1809068D01*
X+3444700Y+2605900D02*
X+3444700Y+2478900D01*
X+3381200Y+2542400D02*
X+3508200Y+2542400D01*
X+3399799Y+2587301D02*
X+3489601Y+2497499D01*
X+3399799Y+2497499D02*
X+3489601Y+2587301D01*
X+3355800Y+2600350D02*
X+3355800Y+2473350D01*
X+3292300Y+2536850D02*
X+3419300Y+2536850D01*
X+3310899Y+2581751D02*
X+3400701Y+2491949D01*
X+3310899Y+2491949D02*
X+3400701Y+2581751D01*
X+742600Y+3543100D02*
X+742600Y+3416100D01*
X+679100Y+3479600D02*
X+806100Y+3479600D01*
X+697699Y+3524501D02*
X+787501Y+3434699D01*
X+697699Y+3434699D02*
X+787501Y+3524501D01*
X+4597400Y+2905900D02*
X+4597400Y+2778900D01*
X+4533900Y+2842400D02*
X+4660900Y+2842400D01*
X+4552499Y+2887301D02*
X+4642301Y+2797499D01*
X+4552499Y+2797499D02*
X+4642301Y+2887301D01*
X+4313550Y+3860950D02*
X+4313550Y+3733950D01*
X+4250050Y+3797450D02*
X+4377050Y+3797450D01*
X+4268649Y+3842351D02*
X+4358451Y+3752549D01*
X+4268649Y+3752549D02*
X+4358451Y+3842351D01*
X+1991113Y+3871987D02*
X+1991113Y+3744987D01*
X+1927613Y+3808487D02*
X+2054613Y+3808487D01*
X+1946212Y+3853388D02*
X+2036014Y+3763586D01*
X+1946212Y+3763586D02*
X+2036014Y+3853388D01*
X+4025968Y+3898968D02*
X+4025968Y+3771968D01*
X+3962468Y+3835468D02*
X+4089468Y+3835468D01*
X+3981067Y+3880369D02*
X+4070869Y+3790567D01*
X+3981067Y+3790567D02*
X+4070869Y+3880369D01*
X+4171950Y+4565650D02*
X+4171950Y+4438650D01*
X+4108450Y+4502150D02*
X+4235450Y+4502150D01*
X+4127049Y+4547051D02*
X+4216851Y+4457249D01*
X+4127049Y+4457249D02*
X+4216851Y+4547051D01*
X+6282100Y+4468100D02*
X+6282100Y+4341100D01*
X+6218600Y+4404600D02*
X+6345600Y+4404600D01*
X+6237199Y+4449501D02*
X+6327001Y+4359699D01*
X+6237199Y+4359699D02*
X+6327001Y+4449501D01*
X+5962400Y+3265450D02*
X+5962400Y+3138450D01*
X+5898900Y+3201950D02*
X+6025900Y+3201950D01*
X+5917499Y+3246851D02*
X+6007301Y+3157049D01*
X+5917499Y+3157049D02*
X+6007301Y+3246851D01*
X+5962463Y+2639794D02*
X+5962463Y+2512794D01*
X+5898963Y+2576294D02*
X+6025963Y+2576294D01*
X+5917562Y+2621195D02*
X+6007364Y+2531393D01*
X+5917562Y+2531393D02*
X+6007364Y+2621195D01*
X+5613400Y+2268500D02*
X+5613400Y+2141500D01*
X+5549900Y+2205000D02*
X+5676900Y+2205000D01*
X+5568499Y+2249901D02*
X+5658301Y+2160099D01*
X+5568499Y+2160099D02*
X+5658301Y+2249901D01*
X+5613400Y+2897150D02*
X+5613400Y+2770150D01*
X+5549900Y+2833650D02*
X+5676900Y+2833650D01*
X+5568499Y+2878551D02*
X+5658301Y+2788749D01*
X+5568499Y+2788749D02*
X+5658301Y+2878551D01*
X+5378450Y+3917950D02*
X+5378450Y+3790950D01*
X+5314950Y+3854450D02*
X+5441950Y+3854450D01*
X+5333549Y+3899351D02*
X+5423351Y+3809549D01*
X+5333549Y+3809549D02*
X+5423351Y+3899351D01*
X+6089400Y+2928900D02*
X+6089400Y+2801900D01*
X+6025900Y+2865400D02*
X+6152900Y+2865400D01*
X+6044499Y+2910301D02*
X+6134301Y+2820499D01*
X+6044499Y+2820499D02*
X+6134301Y+2910301D01*
X+6089400Y+2293900D02*
X+6089400Y+2166900D01*
X+6025900Y+2230400D02*
X+6152900Y+2230400D01*
X+6044499Y+2275301D02*
X+6134301Y+2185499D01*
X+6044499Y+2185499D02*
X+6134301Y+2275301D01*
X+6375400Y+2420900D02*
X+6375400Y+2293900D01*
X+6311900Y+2357400D02*
X+6438900Y+2357400D01*
X+6330499Y+2402301D02*
X+6420301Y+2312499D01*
X+6330499Y+2312499D02*
X+6420301Y+2402301D01*
X+6375400Y+3055900D02*
X+6375400Y+2928900D01*
X+6311900Y+2992400D02*
X+6438900Y+2992400D01*
X+6330499Y+3037301D02*
X+6420301Y+2947499D01*
X+6330499Y+2947499D02*
X+6420301Y+3037301D01*
X+4864100Y+3175000D02*
X+4864100Y+3048000D01*
X+4800600Y+3111500D02*
X+4927600Y+3111500D01*
X+4819199Y+3156401D02*
X+4909001Y+3066599D01*
X+4819199Y+3066599D02*
X+4909001Y+3156401D01*
X+4572000Y+2775000D02*
X+4572000Y+2648000D01*
X+4508500Y+2711500D02*
X+4635500Y+2711500D01*
X+4527099Y+2756401D02*
X+4616901Y+2666599D01*
X+4527099Y+2666599D02*
X+4616901Y+2756401D01*
X+4597400Y+3005900D02*
X+4597400Y+2878900D01*
X+4533900Y+2942400D02*
X+4660900Y+2942400D01*
X+4552499Y+2987301D02*
X+4642301Y+2897499D01*
X+4552499Y+2897499D02*
X+4642301Y+2987301D01*
X+4864100Y+2955900D02*
X+4864100Y+2828900D01*
X+4800600Y+2892400D02*
X+4927600Y+2892400D01*
X+4819199Y+2937301D02*
X+4909001Y+2847499D01*
X+4819199Y+2847499D02*
X+4909001Y+2937301D01*
X+4768850Y+3175000D02*
X+4768850Y+3048000D01*
X+4705350Y+3111500D02*
X+4832350Y+3111500D01*
X+4723949Y+3156401D02*
X+4813751Y+3066599D01*
X+4723949Y+3066599D02*
X+4813751Y+3156401D01*
X+4864100Y+2855900D02*
X+4864100Y+2728900D01*
X+4800600Y+2792400D02*
X+4927600Y+2792400D01*
X+4819199Y+2837301D02*
X+4909001Y+2747499D01*
X+4819199Y+2747499D02*
X+4909001Y+2837301D01*
X+4864100Y+2761450D02*
X+4864100Y+2634450D01*
X+4800600Y+2697950D02*
X+4927600Y+2697950D01*
X+4819199Y+2742851D02*
X+4909001Y+2653049D01*
X+4819199Y+2653049D02*
X+4909001Y+2742851D01*
X+6089400Y+2782850D02*
X+6089400Y+2655850D01*
X+6025900Y+2719350D02*
X+6152900Y+2719350D01*
X+6044499Y+2764251D02*
X+6134301Y+2674449D01*
X+6044499Y+2674449D02*
X+6134301Y+2764251D01*
X+6680200Y+2801900D02*
X+6680200Y+2674900D01*
X+6616700Y+2738400D02*
X+6743700Y+2738400D01*
X+6635299Y+2783301D02*
X+6725101Y+2693499D01*
X+6635299Y+2693499D02*
X+6725101Y+2783301D01*
X+6680200Y+2166900D02*
X+6680200Y+2039900D01*
X+6616700Y+2103400D02*
X+6743700Y+2103400D01*
X+6635299Y+2148301D02*
X+6725101Y+2058499D01*
X+6635299Y+2058499D02*
X+6725101Y+2148301D01*
X+6089385Y+2687600D02*
X+6089385Y+2560600D01*
X+6025885Y+2624100D02*
X+6152885Y+2624100D01*
X+6044484Y+2669001D02*
X+6134286Y+2579199D01*
X+6044484Y+2579199D02*
X+6134286Y+2669001D01*
X+6216400Y+2909850D02*
X+6216400Y+2782850D01*
X+6152900Y+2846350D02*
X+6279900Y+2846350D01*
X+6171499Y+2891251D02*
X+6261301Y+2801449D01*
X+6171499Y+2801449D02*
X+6261301Y+2891251D01*
X+5778463Y+2639250D02*
X+5778463Y+2512250D01*
X+5714963Y+2575750D02*
X+5841963Y+2575750D01*
X+5733562Y+2620651D02*
X+5823364Y+2530849D01*
X+5733562Y+2530849D02*
X+5823364Y+2620651D01*
X+5453400Y+2268500D02*
X+5453400Y+2141500D01*
X+5389900Y+2205000D02*
X+5516900Y+2205000D01*
X+5408499Y+2249901D02*
X+5498301Y+2160099D01*
X+5408499Y+2160099D02*
X+5498301Y+2249901D01*
X+5453400Y+2897150D02*
X+5453400Y+2770150D01*
X+5389900Y+2833650D02*
X+5516900Y+2833650D01*
X+5408499Y+2878551D02*
X+5498301Y+2788749D01*
X+5408499Y+2788749D02*
X+5498301Y+2878551D01*
X+5264150Y+3777000D02*
X+5264150Y+3650000D01*
X+5200650Y+3713500D02*
X+5327650Y+3713500D01*
X+5219249Y+3758401D02*
X+5309051Y+3668599D01*
X+5219249Y+3668599D02*
X+5309051Y+3758401D01*
X+4653440Y+1683400D02*
X+4653440Y+1556400D01*
X+4589940Y+1619900D02*
X+4716940Y+1619900D01*
X+4608539Y+1664801D02*
X+4698341Y+1574999D01*
X+4608539Y+1574999D02*
X+4698341Y+1664801D01*
X+4060350Y+1683400D02*
X+4060350Y+1556400D01*
X+3996850Y+1619900D02*
X+4123850Y+1619900D01*
X+4015449Y+1664801D02*
X+4105251Y+1574999D01*
X+4015449Y+1574999D02*
X+4105251Y+1664801D01*
X+4447700Y+1188000D02*
X+4447700Y+1061000D01*
X+4384200Y+1124500D02*
X+4511200Y+1124500D01*
X+4402799Y+1169401D02*
X+4492601Y+1079599D01*
X+4402799Y+1079599D02*
X+4492601Y+1169401D01*
X+3779400Y+1683400D02*
X+3779400Y+1556400D01*
X+3715900Y+1619900D02*
X+3842900Y+1619900D01*
X+3734499Y+1664801D02*
X+3824301Y+1574999D01*
X+3734499Y+1574999D02*
X+3824301Y+1664801D01*
X+762000Y+1701800D02*
X+762000Y+1574800D01*
X+698500Y+1638300D02*
X+825500Y+1638300D01*
X+717099Y+1683201D02*
X+806901Y+1593399D01*
X+717099Y+1593399D02*
X+806901Y+1683201D01*
X+3717750Y+2405900D02*
X+3717750Y+2278900D01*
X+3654250Y+2342400D02*
X+3781250Y+2342400D01*
X+3672849Y+2387301D02*
X+3762651Y+2297499D01*
X+3672849Y+2297499D02*
X+3762651Y+2387301D01*
X+3451050Y+2355900D02*
X+3451050Y+2228900D01*
X+3387550Y+2292400D02*
X+3514550Y+2292400D01*
X+3406149Y+2337301D02*
X+3495951Y+2247499D01*
X+3406149Y+2247499D02*
X+3495951Y+2337301D01*
X+4342150Y+2300600D02*
X+4342150Y+2173600D01*
X+4278650Y+2237100D02*
X+4405650Y+2237100D01*
X+4297249Y+2282001D02*
X+4387051Y+2192199D01*
X+4297249Y+2192199D02*
X+4387051Y+2282001D01*
X+4250075Y+2341875D02*
X+4250075Y+2214875D01*
X+4186575Y+2278375D02*
X+4313575Y+2278375D01*
X+4205174Y+2323276D02*
X+4294976Y+2233474D01*
X+4205174Y+2233474D02*
X+4294976Y+2323276D01*
X+3973850Y+2319650D02*
X+3973850Y+2192650D01*
X+3910350Y+2256150D02*
X+4037350Y+2256150D01*
X+3928949Y+2301051D02*
X+4018751Y+2211249D01*
X+3928949Y+2211249D02*
X+4018751Y+2301051D01*
X+3879400Y+2319650D02*
X+3879400Y+2192650D01*
X+3815900Y+2256150D02*
X+3942900Y+2256150D01*
X+3834499Y+2301051D02*
X+3924301Y+2211249D01*
X+3834499Y+2211249D02*
X+3924301Y+2301051D01*
X+2529450Y+1878150D02*
X+2529450Y+1751150D01*
X+2465950Y+1814650D02*
X+2592950Y+1814650D01*
X+2484549Y+1859551D02*
X+2574351Y+1769749D01*
X+2484549Y+1769749D02*
X+2574351Y+1859551D01*
X+2529450Y+1786649D02*
X+2529450Y+1659649D01*
X+2465950Y+1723149D02*
X+2592950Y+1723149D01*
X+2484549Y+1768050D02*
X+2574351Y+1678248D01*
X+2484549Y+1678248D02*
X+2574351Y+1768050D01*
X+1723000Y+1465717D02*
X+1723000Y+1338717D01*
X+1659500Y+1402217D02*
X+1786500Y+1402217D01*
X+1678099Y+1447118D02*
X+1767901Y+1357316D01*
X+1678099Y+1357316D02*
X+1767901Y+1447118D01*
X+3296450Y+1485850D02*
X+3296450Y+1358850D01*
X+3232950Y+1422350D02*
X+3359950Y+1422350D01*
X+3251549Y+1467251D02*
X+3341351Y+1377449D01*
X+3251549Y+1377449D02*
X+3341351Y+1467251D01*
X+2176575Y+890825D02*
X+2176575Y+763825D01*
X+2113075Y+827325D02*
X+2240075Y+827325D01*
X+2131674Y+872226D02*
X+2221476Y+782424D01*
X+2131674Y+782424D02*
X+2221476Y+872226D01*
X+1959725Y+583750D02*
X+1959725Y+456750D01*
X+1896225Y+520250D02*
X+2023225Y+520250D01*
X+1914824Y+565151D02*
X+2004626Y+475349D01*
X+1914824Y+475349D02*
X+2004626Y+565151D01*
X+2166600Y+271700D02*
X+2166600Y+144700D01*
X+2103100Y+208200D02*
X+2230100Y+208200D01*
X+2121699Y+253101D02*
X+2211501Y+163299D01*
X+2121699Y+163299D02*
X+2211501Y+253101D01*
X+3709550Y+1575450D02*
X+3709550Y+1448450D01*
X+3646050Y+1511950D02*
X+3773050Y+1511950D01*
X+3664649Y+1556851D02*
X+3754451Y+1467049D01*
X+3664649Y+1467049D02*
X+3754451Y+1556851D01*
X+4973200Y+1607200D02*
X+4973200Y+1480200D01*
X+4909700Y+1543700D02*
X+5036700Y+1543700D01*
X+4928299Y+1588601D02*
X+5018101Y+1498799D01*
X+4928299Y+1498799D02*
X+5018101Y+1588601D01*
X+5275797Y+1909797D02*
X+5275797Y+1782797D01*
X+5212297Y+1846297D02*
X+5339297Y+1846297D01*
X+5230896Y+1891198D02*
X+5320698Y+1801396D01*
X+5230896Y+1801396D02*
X+5320698Y+1891198D01*
X+1018170Y+1025047D02*
X+1018170Y+898047D01*
X+954670Y+961547D02*
X+1081670Y+961547D01*
X+973269Y+1006448D02*
X+1063071Y+916646D01*
X+973269Y+916646D02*
X+1063071Y+1006448D01*
X+1018170Y+1185047D02*
X+1018170Y+1058047D01*
X+954670Y+1121547D02*
X+1081670Y+1121547D01*
X+973269Y+1166448D02*
X+1063071Y+1076646D01*
X+973269Y+1076646D02*
X+1063071Y+1166448D01*
X+1131200Y+710067D02*
X+1131200Y+583067D01*
X+1067700Y+646567D02*
X+1194700Y+646567D01*
X+1086299Y+691468D02*
X+1176101Y+601666D01*
X+1086299Y+601666D02*
X+1176101Y+691468D01*
X+1194700Y+646567D02*
X+1194700Y+519567D01*
X+1131200Y+583067D02*
X+1258200Y+583067D01*
X+1149799Y+627968D02*
X+1239601Y+538166D01*
X+1149799Y+538166D02*
X+1239601Y+627968D01*
X+3209450Y+1294780D02*
X+3209450Y+1167780D01*
X+3145950Y+1231280D02*
X+3272950Y+1231280D01*
X+3164549Y+1276181D02*
X+3254351Y+1186379D01*
X+3164549Y+1186379D02*
X+3254351Y+1276181D01*
X+3272950Y+1231280D02*
X+3272950Y+1104280D01*
X+3209450Y+1167780D02*
X+3336450Y+1167780D01*
X+3228049Y+1212681D02*
X+3317851Y+1122879D01*
X+3228049Y+1122879D02*
X+3317851Y+1212681D01*
X+1507650Y+1172000D02*
X+1507650Y+1045000D01*
X+1444150Y+1108500D02*
X+1571150Y+1108500D01*
X+1462749Y+1153401D02*
X+1552551Y+1063599D01*
X+1462749Y+1063599D02*
X+1552551Y+1153401D01*
X+3209450Y+2223150D02*
X+3209450Y+2096150D01*
X+3145950Y+2159650D02*
X+3272950Y+2159650D01*
X+3164549Y+2204551D02*
X+3254351Y+2114749D01*
X+3164549Y+2114749D02*
X+3254351Y+2204551D01*
X+3209450Y+3239150D02*
X+3209450Y+3112150D01*
X+3145950Y+3175650D02*
X+3272950Y+3175650D01*
X+3164549Y+3220551D02*
X+3254351Y+3130749D01*
X+3164549Y+3130749D02*
X+3254351Y+3220551D01*
X+3209450Y+2743850D02*
X+3209450Y+2616850D01*
X+3145950Y+2680350D02*
X+3272950Y+2680350D01*
X+3164549Y+2725251D02*
X+3254351Y+2635449D01*
X+3164549Y+2635449D02*
X+3254351Y+2725251D01*
X+3798450Y+1575450D02*
X+3798450Y+1448450D01*
X+3734950Y+1511950D02*
X+3861950Y+1511950D01*
X+3753549Y+1556851D02*
X+3843351Y+1467049D01*
X+3753549Y+1467049D02*
X+3843351Y+1556851D01*
X+3709550Y+1194950D02*
X+3709550Y+1067950D01*
X+3646050Y+1131450D02*
X+3773050Y+1131450D01*
X+3664649Y+1176351D02*
X+3754451Y+1086549D01*
X+3664649Y+1086549D02*
X+3754451Y+1176351D01*
X+3455550Y+940950D02*
X+3455550Y+813950D01*
X+3392050Y+877450D02*
X+3519050Y+877450D01*
X+3410649Y+922351D02*
X+3500451Y+832549D01*
X+3410649Y+832549D02*
X+3500451Y+922351D01*
X+3652400Y+1137800D02*
X+3652400Y+1010800D01*
X+3588900Y+1074300D02*
X+3715900Y+1074300D01*
X+3607499Y+1119201D02*
X+3697301Y+1029399D01*
X+3607499Y+1029399D02*
X+3697301Y+1119201D01*
X+3398400Y+883800D02*
X+3398400Y+756800D01*
X+3334900Y+820300D02*
X+3461900Y+820300D01*
X+3353499Y+865201D02*
X+3443301Y+775399D01*
X+3353499Y+775399D02*
X+3443301Y+865201D01*
X+1213750Y+729117D02*
X+1213750Y+602117D01*
X+1150250Y+665617D02*
X+1277250Y+665617D01*
X+1168849Y+710518D02*
X+1258651Y+620716D01*
X+1168849Y+620716D02*
X+1258651Y+710518D01*
X+4610100Y+825500D02*
X+4610100Y+698500D01*
X+4546600Y+762000D02*
X+4673600Y+762000D01*
X+4565199Y+806901D02*
X+4655001Y+717099D01*
X+4565199Y+717099D02*
X+4655001Y+806901D01*
X+2959100Y+444500D02*
X+2959100Y+317500D01*
X+2895600Y+381000D02*
X+3022600Y+381000D01*
X+2914199Y+425901D02*
X+3004001Y+336099D01*
X+2914199Y+336099D02*
X+3004001Y+425901D01*
X+2029750Y+1980067D02*
X+2029750Y+1853067D01*
X+1966250Y+1916567D02*
X+2093250Y+1916567D01*
X+1984849Y+1961468D02*
X+2074651Y+1871666D01*
X+1984849Y+1871666D02*
X+2074651Y+1961468D01*
X+3060700Y+5016500D02*
X+3060700Y+4889500D01*
X+2997200Y+4953000D02*
X+3124200Y+4953000D01*
X+3015799Y+4997901D02*
X+3105601Y+4908099D01*
X+3015799Y+4908099D02*
X+3105601Y+4997901D01*
X+3568700Y+5016500D02*
X+3568700Y+4889500D01*
X+3505200Y+4953000D02*
X+3632200Y+4953000D01*
X+3523799Y+4997901D02*
X+3613601Y+4908099D01*
X+3523799Y+4908099D02*
X+3613601Y+4997901D01*
X+3822700Y+5016500D02*
X+3822700Y+4889500D01*
X+3759200Y+4953000D02*
X+3886200Y+4953000D01*
X+3777799Y+4997901D02*
X+3867601Y+4908099D01*
X+3777799Y+4908099D02*
X+3867601Y+4997901D01*
X+4076700Y+5016500D02*
X+4076700Y+4889500D01*
X+4013200Y+4953000D02*
X+4140200Y+4953000D01*
X+4031799Y+4997901D02*
X+4121601Y+4908099D01*
X+4031799Y+4908099D02*
X+4121601Y+4997901D01*
X+4419600Y+2580500D02*
X+4419600Y+2453500D01*
X+4356100Y+2517000D02*
X+4483100Y+2517000D01*
X+4374699Y+2561901D02*
X+4464501Y+2472099D01*
X+4374699Y+2472099D02*
X+4464501Y+2561901D01*
X+4038600Y+2580500D02*
X+4038600Y+2453500D01*
X+3975100Y+2517000D02*
X+4102100Y+2517000D01*
X+3993699Y+2561901D02*
X+4083501Y+2472099D01*
X+3993699Y+2472099D02*
X+4083501Y+2561901D01*
X+3213100Y+444500D02*
X+3213100Y+317500D01*
X+3149600Y+381000D02*
X+3276600Y+381000D01*
X+3168199Y+425901D02*
X+3258001Y+336099D01*
X+3168199Y+336099D02*
X+3258001Y+425901D01*
X+2705100Y+444500D02*
X+2705100Y+317500D01*
X+2641600Y+381000D02*
X+2768600Y+381000D01*
X+2660199Y+425901D02*
X+2750001Y+336099D01*
X+2660199Y+336099D02*
X+2750001Y+425901D01*
X+5245100Y+5016500D02*
X+5245100Y+4889500D01*
X+5181600Y+4953000D02*
X+5308600Y+4953000D01*
X+5200199Y+4997901D02*
X+5290001Y+4908099D01*
X+5200199Y+4908099D02*
X+5290001Y+4997901D01*
X+2298700Y+5016500D02*
X+2298700Y+4889500D01*
X+2235200Y+4953000D02*
X+2362200Y+4953000D01*
X+2253799Y+4997901D02*
X+2343601Y+4908099D01*
X+2253799Y+4908099D02*
X+2343601Y+4997901D01*
X+2044700Y+5016500D02*
X+2044700Y+4889500D01*
X+1981200Y+4953000D02*
X+2108200Y+4953000D01*
X+1999799Y+4997901D02*
X+2089601Y+4908099D01*
X+1999799Y+4908099D02*
X+2089601Y+4997901D01*
X+5499100Y+5016500D02*
X+5499100Y+4889500D01*
X+5435600Y+4953000D02*
X+5562600Y+4953000D01*
X+5454199Y+4997901D02*
X+5544001Y+4908099D01*
X+5454199Y+4908099D02*
X+5544001Y+4997901D01*
X+5753100Y+5016500D02*
X+5753100Y+4889500D01*
X+5689600Y+4953000D02*
X+5816600Y+4953000D01*
X+5708199Y+4997901D02*
X+5798001Y+4908099D01*
X+5708199Y+4908099D02*
X+5798001Y+4997901D01*
X+6007100Y+5016500D02*
X+6007100Y+4889500D01*
X+5943600Y+4953000D02*
X+6070600Y+4953000D01*
X+5962199Y+4997901D02*
X+6052001Y+4908099D01*
X+5962199Y+4908099D02*
X+6052001Y+4997901D01*
X+5118100Y+4635500D02*
X+5118100Y+4508500D01*
X+5054600Y+4572000D02*
X+5181600Y+4572000D01*
X+5073199Y+4616901D02*
X+5163001Y+4527099D01*
X+5073199Y+4527099D02*
X+5163001Y+4616901D01*
X+5753100Y+444500D02*
X+5753100Y+317500D01*
X+5689600Y+381000D02*
X+5816600Y+381000D01*
X+5708199Y+425901D02*
X+5798001Y+336099D01*
X+5708199Y+336099D02*
X+5798001Y+425901D01*
X+5499100Y+444500D02*
X+5499100Y+317500D01*
X+5435600Y+381000D02*
X+5562600Y+381000D01*
X+5454199Y+425901D02*
X+5544001Y+336099D01*
X+5454199Y+336099D02*
X+5544001Y+425901D01*
X+4279400Y+3129450D02*
X+4279400Y+3002450D01*
X+4215900Y+3065950D02*
X+4342900Y+3065950D01*
X+4234499Y+3110851D02*
X+4324301Y+3021049D01*
X+4234499Y+3021049D02*
X+4324301Y+3110851D01*
X+4379400Y+3129450D02*
X+4379400Y+3002450D01*
X+4315900Y+3065950D02*
X+4442900Y+3065950D01*
X+4334499Y+3110851D02*
X+4424301Y+3021049D01*
X+4334499Y+3021049D02*
X+4424301Y+3110851D01*
X+5364644Y+1909797D02*
X+5364644Y+1782797D01*
X+5301144Y+1846297D02*
X+5428144Y+1846297D01*
X+5319743Y+1891198D02*
X+5409545Y+1801396D01*
X+5319743Y+1801396D02*
X+5409545Y+1891198D01*
X+5799800Y+1643250D02*
X+5799800Y+1516250D01*
X+5736300Y+1579750D02*
X+5863300Y+1579750D01*
X+5754899Y+1624651D02*
X+5844701Y+1534849D01*
X+5754899Y+1534849D02*
X+5844701Y+1624651D01*
X+5799800Y+1806750D02*
X+5799800Y+1679750D01*
X+5736300Y+1743250D02*
X+5863300Y+1743250D01*
X+5754899Y+1788151D02*
X+5844701Y+1698349D01*
X+5754899Y+1698349D02*
X+5844701Y+1788151D01*
X+5876000Y+1478150D02*
X+5876000Y+1351150D01*
X+5812500Y+1414650D02*
X+5939500Y+1414650D01*
X+5831099Y+1459551D02*
X+5920901Y+1369749D01*
X+5831099Y+1369749D02*
X+5920901Y+1459551D01*
X+4913847Y+1547847D02*
X+4913847Y+1420847D01*
X+4850347Y+1484347D02*
X+4977347Y+1484347D01*
X+4868946Y+1529248D02*
X+4958748Y+1439446D01*
X+4868946Y+1439446D02*
X+4958748Y+1529248D01*
X+4756150Y+3270250D02*
X+4756150Y+3143250D01*
X+4692650Y+3206750D02*
X+4819650Y+3206750D01*
X+4711249Y+3251651D02*
X+4801051Y+3161849D01*
X+4711249Y+3161849D02*
X+4801051Y+3251651D01*
X+127750Y+2006000D02*
X+127750Y+1879000D01*
X+64250Y+1942500D02*
X+191250Y+1942500D01*
X+82849Y+1987401D02*
X+172651Y+1897599D01*
X+82849Y+1897599D02*
X+172651Y+1987401D01*
X+127750Y+1498000D02*
X+127750Y+1371000D01*
X+64250Y+1434500D02*
X+191250Y+1434500D01*
X+82849Y+1479401D02*
X+172651Y+1389599D01*
X+82849Y+1389599D02*
X+172651Y+1479401D01*
X+127750Y+990000D02*
X+127750Y+863000D01*
X+64250Y+926500D02*
X+191250Y+926500D01*
X+82849Y+971401D02*
X+172651Y+881599D01*
X+82849Y+881599D02*
X+172651Y+971401D01*
X+127750Y+482000D02*
X+127750Y+355000D01*
X+64250Y+418500D02*
X+191250Y+418500D01*
X+82849Y+463401D02*
X+172651Y+373599D01*
X+82849Y+373599D02*
X+172651Y+463401D01*
X+127750Y+3022000D02*
X+127750Y+2895000D01*
X+64250Y+2958500D02*
X+191250Y+2958500D01*
X+82849Y+3003401D02*
X+172651Y+2913599D01*
X+82849Y+2913599D02*
X+172651Y+3003401D01*
X+127750Y+3530000D02*
X+127750Y+3403000D01*
X+64250Y+3466500D02*
X+191250Y+3466500D01*
X+82849Y+3511401D02*
X+172651Y+3421599D01*
X+82849Y+3421599D02*
X+172651Y+3511401D01*
X+127750Y+4038000D02*
X+127750Y+3911000D01*
X+64250Y+3974500D02*
X+191250Y+3974500D01*
X+82849Y+4019401D02*
X+172651Y+3929599D01*
X+82849Y+3929599D02*
X+172651Y+4019401D01*
X+127750Y+4546000D02*
X+127750Y+4419000D01*
X+64250Y+4482500D02*
X+191250Y+4482500D01*
X+82849Y+4527401D02*
X+172651Y+4437599D01*
X+82849Y+4437599D02*
X+172651Y+4527401D01*
X+127750Y+5054000D02*
X+127750Y+4927000D01*
X+64250Y+4990500D02*
X+191250Y+4990500D01*
X+82849Y+5035401D02*
X+172651Y+4945599D01*
X+82849Y+4945599D02*
X+172651Y+5035401D01*
X+381750Y+5308000D02*
X+381750Y+5181000D01*
X+318250Y+5244500D02*
X+445250Y+5244500D01*
X+336849Y+5289401D02*
X+426651Y+5199599D01*
X+336849Y+5199599D02*
X+426651Y+5289401D01*
X+381750Y+4800000D02*
X+381750Y+4673000D01*
X+318250Y+4736500D02*
X+445250Y+4736500D01*
X+336849Y+4781401D02*
X+426651Y+4691599D01*
X+336849Y+4691599D02*
X+426651Y+4781401D01*
X+381750Y+4292000D02*
X+381750Y+4165000D01*
X+318250Y+4228500D02*
X+445250Y+4228500D01*
X+336849Y+4273401D02*
X+426651Y+4183599D01*
X+336849Y+4183599D02*
X+426651Y+4273401D01*
X+381750Y+3784000D02*
X+381750Y+3657000D01*
X+318250Y+3720500D02*
X+445250Y+3720500D01*
X+336849Y+3765401D02*
X+426651Y+3675599D01*
X+336849Y+3675599D02*
X+426651Y+3765401D01*
X+635025Y+5054000D02*
X+635025Y+4927000D01*
X+571525Y+4990500D02*
X+698525Y+4990500D01*
X+590124Y+5035401D02*
X+679926Y+4945599D01*
X+590124Y+4945599D02*
X+679926Y+5035401D01*
X+635025Y+4546000D02*
X+635025Y+4419000D01*
X+571525Y+4482500D02*
X+698525Y+4482500D01*
X+590124Y+4527401D02*
X+679926Y+4437599D01*
X+590124Y+4437599D02*
X+679926Y+4527401D01*
X+635025Y+4038000D02*
X+635025Y+3911000D01*
X+571525Y+3974500D02*
X+698525Y+3974500D01*
X+590124Y+4019401D02*
X+679926Y+3929599D01*
X+590124Y+3929599D02*
X+679926Y+4019401D01*
X+889750Y+5308000D02*
X+889750Y+5181000D01*
X+826250Y+5244500D02*
X+953250Y+5244500D01*
X+844849Y+5289401D02*
X+934651Y+5199599D01*
X+844849Y+5199599D02*
X+934651Y+5289401D01*
X+1397750Y+5308000D02*
X+1397750Y+5181000D01*
X+1334250Y+5244500D02*
X+1461250Y+5244500D01*
X+1352849Y+5289401D02*
X+1442651Y+5199599D01*
X+1352849Y+5199599D02*
X+1442651Y+5289401D01*
X+1143750Y+5054000D02*
X+1143750Y+4927000D01*
X+1080250Y+4990500D02*
X+1207250Y+4990500D01*
X+1098849Y+5035401D02*
X+1188651Y+4945599D01*
X+1098849Y+4945599D02*
X+1188651Y+5035401D01*
X+1143750Y+4546000D02*
X+1143750Y+4419000D01*
X+1080250Y+4482500D02*
X+1207250Y+4482500D01*
X+1098849Y+4527401D02*
X+1188651Y+4437599D01*
X+1098849Y+4437599D02*
X+1188651Y+4527401D01*
X+1905750Y+5308000D02*
X+1905750Y+5181000D01*
X+1842250Y+5244500D02*
X+1969250Y+5244500D01*
X+1860849Y+5289401D02*
X+1950651Y+5199599D01*
X+1860849Y+5199599D02*
X+1950651Y+5289401D01*
X+1397750Y+4800000D02*
X+1397750Y+4673000D01*
X+1334250Y+4736500D02*
X+1461250Y+4736500D01*
X+1352849Y+4781401D02*
X+1442651Y+4691599D01*
X+1352849Y+4691599D02*
X+1442651Y+4781401D01*
X+1397750Y+4292000D02*
X+1397750Y+4165000D01*
X+1334250Y+4228500D02*
X+1461250Y+4228500D01*
X+1352849Y+4273401D02*
X+1442651Y+4183599D01*
X+1352849Y+4183599D02*
X+1442651Y+4273401D01*
X+987690Y+1783217D02*
X+987690Y+1656217D01*
X+924190Y+1719717D02*
X+1051190Y+1719717D01*
X+942789Y+1764618D02*
X+1032591Y+1674816D01*
X+942789Y+1674816D02*
X+1032591Y+1764618D01*
X+821320Y+1025047D02*
X+821320Y+898047D01*
X+757820Y+961547D02*
X+884820Y+961547D01*
X+776419Y+1006448D02*
X+866221Y+916646D01*
X+776419Y+916646D02*
X+866221Y+1006448D01*
X+791350Y+837067D02*
X+791350Y+710067D01*
X+727850Y+773567D02*
X+854850Y+773567D01*
X+746449Y+818468D02*
X+836251Y+728666D01*
X+746449Y+728666D02*
X+836251Y+818468D01*
X+873900Y+589417D02*
X+873900Y+462417D01*
X+810400Y+525917D02*
X+937400Y+525917D01*
X+828999Y+570818D02*
X+918801Y+481016D01*
X+828999Y+481016D02*
X+918801Y+570818D01*
X+546850Y+482000D02*
X+546850Y+355000D01*
X+483350Y+418500D02*
X+610350Y+418500D01*
X+501949Y+463401D02*
X+591751Y+373599D01*
X+501949Y+373599D02*
X+591751Y+463401D01*
X+1822450Y+271700D02*
X+1822450Y+144700D01*
X+1758950Y+208200D02*
X+1885950Y+208200D01*
X+1777549Y+253101D02*
X+1867351Y+163299D01*
X+1777549Y+163299D02*
X+1867351Y+253101D01*
X+1874150Y+1339967D02*
X+1874150Y+1212967D01*
X+1810650Y+1276467D02*
X+1937650Y+1276467D01*
X+1829249Y+1321368D02*
X+1919051Y+1231566D01*
X+1829249Y+1231566D02*
X+1919051Y+1321368D01*
X+2072800Y+1216450D02*
X+2072800Y+1089450D01*
X+2009300Y+1152950D02*
X+2136300Y+1152950D01*
X+2027899Y+1197851D02*
X+2117701Y+1108049D01*
X+2027899Y+1108049D02*
X+2117701Y+1197851D01*
X+2206150Y+1305350D02*
X+2206150Y+1178350D01*
X+2142650Y+1241850D02*
X+2269650Y+1241850D01*
X+2161249Y+1286751D02*
X+2251051Y+1196949D01*
X+2161249Y+1196949D02*
X+2251051Y+1286751D01*
X+1818800Y+2505500D02*
X+1818800Y+2378500D01*
X+1755300Y+2442000D02*
X+1882300Y+2442000D01*
X+1773899Y+2486901D02*
X+1863701Y+2397099D01*
X+1773899Y+2397099D02*
X+1863701Y+2486901D01*
X+2180200Y+2838250D02*
X+2180200Y+2711250D01*
X+2116700Y+2774750D02*
X+2243700Y+2774750D01*
X+2135299Y+2819651D02*
X+2225101Y+2729849D01*
X+2135299Y+2729849D02*
X+2225101Y+2819651D01*
X+1296300Y+3130390D02*
X+1296300Y+3003390D01*
X+1232800Y+3066890D02*
X+1359800Y+3066890D01*
X+1251399Y+3111791D02*
X+1341201Y+3021989D01*
X+1251399Y+3021989D02*
X+1341201Y+3111791D01*
X+1905750Y+4292000D02*
X+1905750Y+4165000D01*
X+1842250Y+4228500D02*
X+1969250Y+4228500D01*
X+1860849Y+4273401D02*
X+1950651Y+4183599D01*
X+1860849Y+4183599D02*
X+1950651Y+4273401D01*
X+2413750Y+4292000D02*
X+2413750Y+4165000D01*
X+2350250Y+4228500D02*
X+2477250Y+4228500D01*
X+2368849Y+4273401D02*
X+2458651Y+4183599D01*
X+2368849Y+4183599D02*
X+2458651Y+4273401D01*
X+2921750Y+4292000D02*
X+2921750Y+4165000D01*
X+2858250Y+4228500D02*
X+2985250Y+4228500D01*
X+2876849Y+4273401D02*
X+2966651Y+4183599D01*
X+2876849Y+4183599D02*
X+2966651Y+4273401D01*
X+2667750Y+4546000D02*
X+2667750Y+4419000D01*
X+2604250Y+4482500D02*
X+2731250Y+4482500D01*
X+2622849Y+4527401D02*
X+2712651Y+4437599D01*
X+2622849Y+4437599D02*
X+2712651Y+4527401D01*
X+2159750Y+4546000D02*
X+2159750Y+4419000D01*
X+2096250Y+4482500D02*
X+2223250Y+4482500D01*
X+2114849Y+4527401D02*
X+2204651Y+4437599D01*
X+2114849Y+4437599D02*
X+2204651Y+4527401D01*
X+2413750Y+3530000D02*
X+2413750Y+3403000D01*
X+2350250Y+3466500D02*
X+2477250Y+3466500D01*
X+2368849Y+3511401D02*
X+2458651Y+3421599D01*
X+2368849Y+3421599D02*
X+2458651Y+3511401D01*
X+2921750Y+3530000D02*
X+2921750Y+3403000D01*
X+2858250Y+3466500D02*
X+2985250Y+3466500D01*
X+2876849Y+3511401D02*
X+2966651Y+3421599D01*
X+2876849Y+3421599D02*
X+2966651Y+3511401D01*
X+3429750Y+3530000D02*
X+3429750Y+3403000D01*
X+3366250Y+3466500D02*
X+3493250Y+3466500D01*
X+3384849Y+3511401D02*
X+3474651Y+3421599D01*
X+3384849Y+3421599D02*
X+3474651Y+3511401D01*
X+2667750Y+3276000D02*
X+2667750Y+3149000D01*
X+2604250Y+3212500D02*
X+2731250Y+3212500D01*
X+2622849Y+3257401D02*
X+2712651Y+3167599D01*
X+2622849Y+3167599D02*
X+2712651Y+3257401D01*
X+2921750Y+3022000D02*
X+2921750Y+2895000D01*
X+2858250Y+2958500D02*
X+2985250Y+2958500D01*
X+2876849Y+3003401D02*
X+2966651Y+2913599D01*
X+2876849Y+2913599D02*
X+2966651Y+3003401D01*
X+2667750Y+2514000D02*
X+2667750Y+2387000D01*
X+2604250Y+2450500D02*
X+2731250Y+2450500D01*
X+2622849Y+2495401D02*
X+2712651Y+2405599D01*
X+2622849Y+2405599D02*
X+2712651Y+2495401D01*
X+3175750Y+4546000D02*
X+3175750Y+4419000D01*
X+3112250Y+4482500D02*
X+3239250Y+4482500D01*
X+3130849Y+4527401D02*
X+3220651Y+4437599D01*
X+3130849Y+4437599D02*
X+3220651Y+4527401D01*
X+3683750Y+4546000D02*
X+3683750Y+4419000D01*
X+3620250Y+4482500D02*
X+3747250Y+4482500D01*
X+3638849Y+4527401D02*
X+3728651Y+4437599D01*
X+3638849Y+4437599D02*
X+3728651Y+4527401D01*
X+3429750Y+4292000D02*
X+3429750Y+4165000D01*
X+3366250Y+4228500D02*
X+3493250Y+4228500D01*
X+3384849Y+4273401D02*
X+3474651Y+4183599D01*
X+3384849Y+4183599D02*
X+3474651Y+4273401D01*
X+4419600Y+5016500D02*
X+4419600Y+4889500D01*
X+4356100Y+4953000D02*
X+4483100Y+4953000D01*
X+4374699Y+4997901D02*
X+4464501Y+4908099D01*
X+4374699Y+4908099D02*
X+4464501Y+4997901D01*
X+3093200Y+1967900D02*
X+3093200Y+1840900D01*
X+3029700Y+1904400D02*
X+3156700Y+1904400D01*
X+3048299Y+1949301D02*
X+3138101Y+1859499D01*
X+3048299Y+1859499D02*
X+3138101Y+1949301D01*
X+2921750Y+2006000D02*
X+2921750Y+1879000D01*
X+2858250Y+1942500D02*
X+2985250Y+1942500D01*
X+2876849Y+1987401D02*
X+2966651Y+1897599D01*
X+2876849Y+1897599D02*
X+2966651Y+1987401D01*
X+2667750Y+1752000D02*
X+2667750Y+1625000D01*
X+2604250Y+1688500D02*
X+2731250Y+1688500D01*
X+2622849Y+1733401D02*
X+2712651Y+1643599D01*
X+2622849Y+1643599D02*
X+2712651Y+1733401D01*
X+2413750Y+1498000D02*
X+2413750Y+1371000D01*
X+2350250Y+1434500D02*
X+2477250Y+1434500D01*
X+2368849Y+1479401D02*
X+2458651Y+1389599D01*
X+2368849Y+1389599D02*
X+2458651Y+1479401D01*
X+2921750Y+1498000D02*
X+2921750Y+1371000D01*
X+2858250Y+1434500D02*
X+2985250Y+1434500D01*
X+2876849Y+1479401D02*
X+2966651Y+1389599D01*
X+2876849Y+1389599D02*
X+2966651Y+1479401D01*
X+2667750Y+1244000D02*
X+2667750Y+1117000D01*
X+2604250Y+1180500D02*
X+2731250Y+1180500D01*
X+2622849Y+1225401D02*
X+2712651Y+1135599D01*
X+2622849Y+1135599D02*
X+2712651Y+1225401D01*
X+2578100Y+787400D02*
X+2578100Y+660400D01*
X+2514600Y+723900D02*
X+2641600Y+723900D01*
X+2533199Y+768801D02*
X+2623001Y+678999D01*
X+2533199Y+678999D02*
X+2623001Y+768801D01*
X+3086100Y+787400D02*
X+3086100Y+660400D01*
X+3022600Y+723900D02*
X+3149600Y+723900D01*
X+3041199Y+768801D02*
X+3131001Y+678999D01*
X+3041199Y+678999D02*
X+3131001Y+768801D01*
X+3594100Y+787400D02*
X+3594100Y+660400D01*
X+3530600Y+723900D02*
X+3657600Y+723900D01*
X+3549199Y+768801D02*
X+3639001Y+678999D01*
X+3549199Y+678999D02*
X+3639001Y+768801D01*
X+3937750Y+1244000D02*
X+3937750Y+1117000D01*
X+3874250Y+1180500D02*
X+4001250Y+1180500D01*
X+3892849Y+1225401D02*
X+3982651Y+1135599D01*
X+3892849Y+1135599D02*
X+3982651Y+1225401D01*
X+4445750Y+990965D02*
X+4445750Y+863965D01*
X+4382250Y+927465D02*
X+4509250Y+927465D01*
X+4400849Y+972366D02*
X+4490651Y+882564D01*
X+4400849Y+882564D02*
X+4490651Y+972366D01*
X+4953750Y+990965D02*
X+4953750Y+863965D01*
X+4890250Y+927465D02*
X+5017250Y+927465D01*
X+4908849Y+972366D02*
X+4998651Y+882564D01*
X+4908849Y+882564D02*
X+4998651Y+972366D01*
X+5206785Y+1244000D02*
X+5206785Y+1117000D01*
X+5143285Y+1180500D02*
X+5270285Y+1180500D01*
X+5161884Y+1225401D02*
X+5251686Y+1135599D01*
X+5161884Y+1135599D02*
X+5251686Y+1225401D01*
X+5715750Y+990965D02*
X+5715750Y+863965D01*
X+5652250Y+927465D02*
X+5779250Y+927465D01*
X+5670849Y+972366D02*
X+5760651Y+882564D01*
X+5670849Y+882564D02*
X+5760651Y+972366D01*
X+6223750Y+990150D02*
X+6223750Y+863150D01*
X+6160250Y+926650D02*
X+6287250Y+926650D01*
X+6178849Y+971551D02*
X+6268651Y+881749D01*
X+6178849Y+881749D02*
X+6268651Y+971551D01*
X+6731750Y+482000D02*
X+6731750Y+355000D01*
X+6668250Y+418500D02*
X+6795250Y+418500D01*
X+6686849Y+463401D02*
X+6776651Y+373599D01*
X+6686849Y+373599D02*
X+6776651Y+463401D01*
X+6515100Y+190500D02*
X+6515100Y+63500D01*
X+6451600Y+127000D02*
X+6578600Y+127000D01*
X+6470199Y+171901D02*
X+6560001Y+82099D01*
X+6470199Y+82099D02*
X+6560001Y+171901D01*
X+6007100Y+190500D02*
X+6007100Y+63500D01*
X+5943600Y+127000D02*
X+6070600Y+127000D01*
X+5962199Y+171901D02*
X+6052001Y+82099D01*
X+5962199Y+82099D02*
X+6052001Y+171901D01*
X+5499100Y+190500D02*
X+5499100Y+63500D01*
X+5435600Y+127000D02*
X+5562600Y+127000D01*
X+5454199Y+171901D02*
X+5544001Y+82099D01*
X+5454199Y+82099D02*
X+5544001Y+171901D01*
X+6378900Y+1417850D02*
X+6378900Y+1290850D01*
X+6315400Y+1354350D02*
X+6442400Y+1354350D01*
X+6333999Y+1399251D02*
X+6423801Y+1309449D01*
X+6333999Y+1309449D02*
X+6423801Y+1399251D01*
X+6512250Y+1506750D02*
X+6512250Y+1379750D01*
X+6448750Y+1443250D02*
X+6575750Y+1443250D01*
X+6467349Y+1488151D02*
X+6557151Y+1398349D01*
X+6467349Y+1398349D02*
X+6557151Y+1488151D01*
X+6756400Y+1478350D02*
X+6756400Y+1351350D01*
X+6692900Y+1414850D02*
X+6819900Y+1414850D01*
X+6711499Y+1459751D02*
X+6801301Y+1369949D01*
X+6711499Y+1369949D02*
X+6801301Y+1459751D01*
X+6756400Y+1275150D02*
X+6756400Y+1148150D01*
X+6692900Y+1211650D02*
X+6819900Y+1211650D01*
X+6711499Y+1256551D02*
X+6801301Y+1166749D01*
X+6711499Y+1166749D02*
X+6801301Y+1256551D01*
X+6616700Y+1376750D02*
X+6616700Y+1249750D01*
X+6553200Y+1313250D02*
X+6680200Y+1313250D01*
X+6571799Y+1358151D02*
X+6661601Y+1268349D01*
X+6571799Y+1268349D02*
X+6661601Y+1358151D01*
X+6756400Y+1835150D02*
X+6756400Y+1708150D01*
X+6692900Y+1771650D02*
X+6819900Y+1771650D01*
X+6711499Y+1816551D02*
X+6801301Y+1726749D01*
X+6711499Y+1726749D02*
X+6801301Y+1816551D01*
X+6616700Y+1936750D02*
X+6616700Y+1809750D01*
X+6553200Y+1873250D02*
X+6680200Y+1873250D01*
X+6571799Y+1918151D02*
X+6661601Y+1828349D01*
X+6571799Y+1828349D02*
X+6661601Y+1918151D01*
X+4445750Y+1498965D02*
X+4445750Y+1371965D01*
X+4382250Y+1435465D02*
X+4509250Y+1435465D01*
X+4400849Y+1480366D02*
X+4490651Y+1390564D01*
X+4400849Y+1390564D02*
X+4490651Y+1480366D01*
X+6477750Y+5308965D02*
X+6477750Y+5181965D01*
X+6414250Y+5245465D02*
X+6541250Y+5245465D01*
X+6432849Y+5290366D02*
X+6522651Y+5200564D01*
X+6432849Y+5200564D02*
X+6522651Y+5290366D01*
X+6477750Y+4800965D02*
X+6477750Y+4673965D01*
X+6414250Y+4737465D02*
X+6541250Y+4737465D01*
X+6432849Y+4782366D02*
X+6522651Y+4692564D01*
X+6432849Y+4692564D02*
X+6522651Y+4782366D01*
X+6477750Y+4292965D02*
X+6477750Y+4165965D01*
X+6414250Y+4229465D02*
X+6541250Y+4229465D01*
X+6432849Y+4274366D02*
X+6522651Y+4184564D01*
X+6432849Y+4184564D02*
X+6522651Y+4274366D01*
X+6477750Y+3784965D02*
X+6477750Y+3657965D01*
X+6414250Y+3721465D02*
X+6541250Y+3721465D01*
X+6432849Y+3766366D02*
X+6522651Y+3676564D01*
X+6432849Y+3676564D02*
X+6522651Y+3766366D01*
X+5969750Y+4800965D02*
X+5969750Y+4673965D01*
X+5906250Y+4737465D02*
X+6033250Y+4737465D01*
X+5924849Y+4782366D02*
X+6014651Y+4692564D01*
X+5924849Y+4692564D02*
X+6014651Y+4782366D01*
X+5715750Y+4546965D02*
X+5715750Y+4419965D01*
X+5652250Y+4483465D02*
X+5779250Y+4483465D01*
X+5670849Y+4528366D02*
X+5760651Y+4438564D01*
X+5670849Y+4438564D02*
X+5760651Y+4528366D01*
X+5482400Y+4180600D02*
X+5482400Y+4053600D01*
X+5418900Y+4117100D02*
X+5545900Y+4117100D01*
X+5437499Y+4162001D02*
X+5527301Y+4072199D01*
X+5437499Y+4072199D02*
X+5527301Y+4162001D01*
X+5836500Y+3972050D02*
X+5836500Y+3845050D01*
X+5773000Y+3908550D02*
X+5900000Y+3908550D01*
X+5791599Y+3953451D02*
X+5881401Y+3863649D01*
X+5791599Y+3863649D02*
X+5881401Y+3953451D01*
X+5836500Y+3749800D02*
X+5836500Y+3622800D01*
X+5773000Y+3686300D02*
X+5900000Y+3686300D01*
X+5791599Y+3731201D02*
X+5881401Y+3641399D01*
X+5791599Y+3641399D02*
X+5881401Y+3731201D01*
X+6090500Y+3864100D02*
X+6090500Y+3737100D01*
X+6027000Y+3800600D02*
X+6154000Y+3800600D01*
X+6045599Y+3845501D02*
X+6135401Y+3755699D01*
X+6045599Y+3755699D02*
X+6135401Y+3845501D01*
X+5715750Y+3511915D02*
X+5715750Y+3384915D01*
X+5652250Y+3448415D02*
X+5779250Y+3448415D01*
X+5670849Y+3493316D02*
X+5760651Y+3403514D01*
X+5670849Y+3403514D02*
X+5760651Y+3493316D01*
X+5461750Y+3530965D02*
X+5461750Y+3403965D01*
X+5398250Y+3467465D02*
X+5525250Y+3467465D01*
X+5416849Y+3512366D02*
X+5506651Y+3422564D01*
X+5416849Y+3422564D02*
X+5506651Y+3512366D01*
X+5207750Y+3276965D02*
X+5207750Y+3149965D01*
X+5144250Y+3213465D02*
X+5271250Y+3213465D01*
X+5162849Y+3258366D02*
X+5252651Y+3168564D01*
X+5162849Y+3168564D02*
X+5252651Y+3258366D01*
X+5195550Y+2651600D02*
X+5195550Y+2524600D01*
X+5132050Y+2588100D02*
X+5259050Y+2588100D01*
X+5150649Y+2633001D02*
X+5240451Y+2543199D01*
X+5150649Y+2543199D02*
X+5240451Y+2633001D01*
X+5106025Y+2753200D02*
X+5106025Y+2626200D01*
X+5042525Y+2689700D02*
X+5169525Y+2689700D01*
X+5061124Y+2734601D02*
X+5150926Y+2644799D01*
X+5061124Y+2644799D02*
X+5150926Y+2734601D01*
X+4852650Y+2241550D02*
X+4852650Y+2114550D01*
X+4789150Y+2178050D02*
X+4916150Y+2178050D01*
X+4807749Y+2222951D02*
X+4897551Y+2133149D01*
X+4807749Y+2133149D02*
X+4897551Y+2222951D01*
X+3937750Y+4292000D02*
X+3937750Y+4165000D01*
X+3874250Y+4228500D02*
X+4001250Y+4228500D01*
X+3892849Y+4273401D02*
X+3982651Y+4183599D01*
X+3892849Y+4183599D02*
X+3982651Y+4273401D01*
X+4344150Y+4292000D02*
X+4344150Y+4165000D01*
X+4280650Y+4228500D02*
X+4407650Y+4228500D01*
X+4299249Y+4273401D02*
X+4389051Y+4183599D01*
X+4299249Y+4183599D02*
X+4389051Y+4273401D01*
X+4922000Y+4292000D02*
X+4922000Y+4165000D01*
X+4858500Y+4228500D02*
X+4985500Y+4228500D01*
X+4877099Y+4273401D02*
X+4966901Y+4183599D01*
X+4877099Y+4183599D02*
X+4966901Y+4273401D01*
X+4922000Y+3784000D02*
X+4922000Y+3657000D01*
X+4858500Y+3720500D02*
X+4985500Y+3720500D01*
X+4877099Y+3765401D02*
X+4966901Y+3675599D01*
X+4877099Y+3675599D02*
X+4966901Y+3765401D01*
X+4922000Y+3276000D02*
X+4922000Y+3149000D01*
X+4858500Y+3212500D02*
X+4985500Y+3212500D01*
X+4877099Y+3257401D02*
X+4966901Y+3167599D01*
X+4877099Y+3167599D02*
X+4966901Y+3257401D01*
X+4744200Y+4546000D02*
X+4744200Y+4419000D01*
X+4680700Y+4482500D02*
X+4807700Y+4482500D01*
X+4699299Y+4527401D02*
X+4789101Y+4437599D01*
X+4699299Y+4437599D02*
X+4789101Y+4527401D01*
X+1130300Y+266700D02*
X+1130300Y+139700D01*
X+1066800Y+203200D02*
X+1193800Y+203200D01*
X+1130300Y+393700D02*
X+1130300Y+266700D01*
X+1066800Y+330200D02*
X+1193800Y+330200D01*
X+1003300Y+266700D02*
X+1003300Y+139700D01*
X+939800Y+203200D02*
X+1066800Y+203200D01*
X+1003300Y+393700D02*
X+1003300Y+266700D01*
X+939800Y+330200D02*
X+1066800Y+330200D01*
X+876300Y+266700D02*
X+876300Y+139700D01*
X+812800Y+203200D02*
X+939800Y+203200D01*
X+876300Y+393700D02*
X+876300Y+266700D01*
X+812800Y+330200D02*
X+939800Y+330200D01*
X+749300Y+266700D02*
X+749300Y+139700D01*
X+685800Y+203200D02*
X+812800Y+203200D01*
X+749300Y+393700D02*
X+749300Y+266700D01*
X+685800Y+330200D02*
X+812800Y+330200D01*
X+4819199Y+552901D02*
X+4909001Y+463099D01*
X+4819199Y+463099D02*
X+4909001Y+552901D01*
X+5073199Y+552901D02*
X+5163001Y+463099D01*
X+5073199Y+463099D02*
X+5163001Y+552901D01*
X+5327199Y+552901D02*
X+5417001Y+463099D01*
X+5327199Y+463099D02*
X+5417001Y+552901D01*
X+5581199Y+552901D02*
X+5671001Y+463099D01*
X+5581199Y+463099D02*
X+5671001Y+552901D01*
X+5835199Y+552901D02*
X+5925001Y+463099D01*
X+5835199Y+463099D02*
X+5925001Y+552901D01*
X+6089199Y+552901D02*
X+6179001Y+463099D01*
X+6089199Y+463099D02*
X+6179001Y+552901D01*
X+6343199Y+552901D02*
X+6433001Y+463099D01*
X+6343199Y+463099D02*
X+6433001Y+552901D01*
X+4819199Y+298901D02*
X+4909001Y+209099D01*
X+4819199Y+209099D02*
X+4909001Y+298901D01*
X+5073199Y+298901D02*
X+5163001Y+209099D01*
X+5073199Y+209099D02*
X+5163001Y+298901D01*
X+5327199Y+298901D02*
X+5417001Y+209099D01*
X+5327199Y+209099D02*
X+5417001Y+298901D01*
X+5581199Y+298901D02*
X+5671001Y+209099D01*
X+5581199Y+209099D02*
X+5671001Y+298901D01*
X+5835199Y+298901D02*
X+5925001Y+209099D01*
X+5835199Y+209099D02*
X+5925001Y+298901D01*
X+6089199Y+298901D02*
X+6179001Y+209099D01*
X+6089199Y+209099D02*
X+6179001Y+298901D01*
X+6343199Y+298901D02*
X+6433001Y+209099D01*
X+6343199Y+209099D02*
X+6433001Y+298901D01*
X+2279199Y+552901D02*
X+2369001Y+463099D01*
X+2279199Y+463099D02*
X+2369001Y+552901D01*
X+2533199Y+552901D02*
X+2623001Y+463099D01*
X+2533199Y+463099D02*
X+2623001Y+552901D01*
X+2787199Y+552901D02*
X+2877001Y+463099D01*
X+2787199Y+463099D02*
X+2877001Y+552901D01*
X+3041199Y+552901D02*
X+3131001Y+463099D01*
X+3041199Y+463099D02*
X+3131001Y+552901D01*
X+3295199Y+552901D02*
X+3385001Y+463099D01*
X+3295199Y+463099D02*
X+3385001Y+552901D01*
X+3549199Y+552901D02*
X+3639001Y+463099D01*
X+3549199Y+463099D02*
X+3639001Y+552901D01*
X+3803199Y+552901D02*
X+3893001Y+463099D01*
X+3803199Y+463099D02*
X+3893001Y+552901D01*
X+4057199Y+552901D02*
X+4147001Y+463099D01*
X+4057199Y+463099D02*
X+4147001Y+552901D01*
X+4311199Y+552901D02*
X+4401001Y+463099D01*
X+4311199Y+463099D02*
X+4401001Y+552901D01*
X+4565199Y+552901D02*
X+4655001Y+463099D01*
X+4565199Y+463099D02*
X+4655001Y+552901D01*
X+2279199Y+298901D02*
X+2369001Y+209099D01*
X+2279199Y+209099D02*
X+2369001Y+298901D01*
X+2533199Y+298901D02*
X+2623001Y+209099D01*
X+2533199Y+209099D02*
X+2623001Y+298901D01*
X+2787199Y+298901D02*
X+2877001Y+209099D01*
X+2787199Y+209099D02*
X+2877001Y+298901D01*
X+3041199Y+298901D02*
X+3131001Y+209099D01*
X+3041199Y+209099D02*
X+3131001Y+298901D01*
X+3295199Y+298901D02*
X+3385001Y+209099D01*
X+3295199Y+209099D02*
X+3385001Y+298901D01*
X+3549199Y+298901D02*
X+3639001Y+209099D01*
X+3549199Y+209099D02*
X+3639001Y+298901D01*
X+3803199Y+298901D02*
X+3893001Y+209099D01*
X+3803199Y+209099D02*
X+3893001Y+298901D01*
X+4057199Y+298901D02*
X+4147001Y+209099D01*
X+4057199Y+209099D02*
X+4147001Y+298901D01*
X+4311199Y+298901D02*
X+4401001Y+209099D01*
X+4311199Y+209099D02*
X+4401001Y+298901D01*
X+4565199Y+298901D02*
X+4655001Y+209099D01*
X+4565199Y+209099D02*
X+4655001Y+298901D01*
X+1872799Y+5124901D02*
X+1962601Y+5035099D01*
X+1872799Y+5035099D02*
X+1962601Y+5124901D01*
X+2126799Y+5124901D02*
X+2216601Y+5035099D01*
X+2126799Y+5035099D02*
X+2216601Y+5124901D01*
X+2380799Y+5124901D02*
X+2470601Y+5035099D01*
X+2380799Y+5035099D02*
X+2470601Y+5124901D01*
X+2634799Y+5124901D02*
X+2724601Y+5035099D01*
X+2634799Y+5035099D02*
X+2724601Y+5124901D01*
X+2888799Y+5124901D02*
X+2978601Y+5035099D01*
X+2888799Y+5035099D02*
X+2978601Y+5124901D01*
X+3142799Y+5124901D02*
X+3232601Y+5035099D01*
X+3142799Y+5035099D02*
X+3232601Y+5124901D01*
X+3396799Y+5124901D02*
X+3486601Y+5035099D01*
X+3396799Y+5035099D02*
X+3486601Y+5124901D01*
X+3650799Y+5124901D02*
X+3740601Y+5035099D01*
X+3650799Y+5035099D02*
X+3740601Y+5124901D01*
X+3904799Y+5124901D02*
X+3994601Y+5035099D01*
X+3904799Y+5035099D02*
X+3994601Y+5124901D01*
X+4158799Y+5124901D02*
X+4248601Y+5035099D01*
X+4158799Y+5035099D02*
X+4248601Y+5124901D01*
X+1872799Y+4870901D02*
X+1962601Y+4781099D01*
X+1872799Y+4781099D02*
X+1962601Y+4870901D01*
X+2126799Y+4870901D02*
X+2216601Y+4781099D01*
X+2126799Y+4781099D02*
X+2216601Y+4870901D01*
X+2380799Y+4870901D02*
X+2470601Y+4781099D01*
X+2380799Y+4781099D02*
X+2470601Y+4870901D01*
X+2634799Y+4870901D02*
X+2724601Y+4781099D01*
X+2634799Y+4781099D02*
X+2724601Y+4870901D01*
X+2888799Y+4870901D02*
X+2978601Y+4781099D01*
X+2888799Y+4781099D02*
X+2978601Y+4870901D01*
X+3142799Y+4870901D02*
X+3232601Y+4781099D01*
X+3142799Y+4781099D02*
X+3232601Y+4870901D01*
X+3396799Y+4870901D02*
X+3486601Y+4781099D01*
X+3396799Y+4781099D02*
X+3486601Y+4870901D01*
X+3650799Y+4870901D02*
X+3740601Y+4781099D01*
X+3650799Y+4781099D02*
X+3740601Y+4870901D01*
X+3904799Y+4870901D02*
X+3994601Y+4781099D01*
X+3904799Y+4781099D02*
X+3994601Y+4870901D01*
X+4158799Y+4870901D02*
X+4248601Y+4781099D01*
X+4158799Y+4781099D02*
X+4248601Y+4870901D01*
X+4565199Y+5124901D02*
X+4655001Y+5035099D01*
X+4565199Y+5035099D02*
X+4655001Y+5124901D01*
X+4819199Y+5124901D02*
X+4909001Y+5035099D01*
X+4819199Y+5035099D02*
X+4909001Y+5124901D01*
X+5073199Y+5124901D02*
X+5163001Y+5035099D01*
X+5073199Y+5035099D02*
X+5163001Y+5124901D01*
X+5327199Y+5124901D02*
X+5417001Y+5035099D01*
X+5327199Y+5035099D02*
X+5417001Y+5124901D01*
X+5581199Y+5124901D02*
X+5671001Y+5035099D01*
X+5581199Y+5035099D02*
X+5671001Y+5124901D01*
X+5835199Y+5124901D02*
X+5925001Y+5035099D01*
X+5835199Y+5035099D02*
X+5925001Y+5124901D01*
X+6089199Y+5124901D02*
X+6179001Y+5035099D01*
X+6089199Y+5035099D02*
X+6179001Y+5124901D01*
X+6343199Y+5124901D02*
X+6433001Y+5035099D01*
X+6343199Y+5035099D02*
X+6433001Y+5124901D01*
X+4565199Y+4870901D02*
X+4655001Y+4781099D01*
X+4565199Y+4781099D02*
X+4655001Y+4870901D01*
X+4819199Y+4870901D02*
X+4909001Y+4781099D01*
X+4819199Y+4781099D02*
X+4909001Y+4870901D01*
X+5073199Y+4870901D02*
X+5163001Y+4781099D01*
X+5073199Y+4781099D02*
X+5163001Y+4870901D01*
X+609250Y+2450500D02*
X+609033Y+2455747D01*
X+607268Y+2466242D01*
X+603576Y+2476737D01*
X+597548Y+2487232D01*
X+588326Y+2497612D01*
X+577831Y+2505300D01*
X+567336Y+2510218D01*
X+556841Y+2513024D01*
X+546346Y+2513997D01*
X+545750Y+2514000D01*
X+482250Y+2450500D02*
X+482467Y+2455747D01*
X+484232Y+2466242D01*
X+487924Y+2476737D01*
X+493952Y+2487232D01*
X+503174Y+2497612D01*
X+513669Y+2505300D01*
X+524164Y+2510218D01*
X+534659Y+2513024D01*
X+545154Y+2513997D01*
X+545750Y+2514000D01*
X+482250Y+2450500D02*
X+482467Y+2445253D01*
X+484232Y+2434758D01*
X+487924Y+2424263D01*
X+493952Y+2413768D01*
X+503174Y+2403388D01*
X+513669Y+2395700D01*
X+524164Y+2390782D01*
X+534659Y+2387976D01*
X+545154Y+2387003D01*
X+545750Y+2387000D01*
X+609250Y+2450500D02*
X+609033Y+2445253D01*
X+607268Y+2434758D01*
X+603576Y+2424263D01*
X+597548Y+2413768D01*
X+588326Y+2403388D01*
X+577831Y+2395700D01*
X+567336Y+2390782D01*
X+556841Y+2387976D01*
X+546346Y+2387003D01*
X+545750Y+2387000D01*
X+545750Y+2514000D02*
X+545750Y+2387000D01*
X+482250Y+2450500D02*
X+609250Y+2450500D01*
X+609250Y+3314500D02*
X+609033Y+3319747D01*
X+607268Y+3330242D01*
X+603576Y+3340737D01*
X+597548Y+3351232D01*
X+588326Y+3361612D01*
X+577831Y+3369300D01*
X+567336Y+3374218D01*
X+556841Y+3377024D01*
X+546346Y+3377997D01*
X+545750Y+3378000D01*
X+482250Y+3314500D02*
X+482467Y+3319747D01*
X+484232Y+3330242D01*
X+487924Y+3340737D01*
X+493952Y+3351232D01*
X+503174Y+3361612D01*
X+513669Y+3369300D01*
X+524164Y+3374218D01*
X+534659Y+3377024D01*
X+545154Y+3377997D01*
X+545750Y+3378000D01*
X+482250Y+3314500D02*
X+482467Y+3309253D01*
X+484232Y+3298758D01*
X+487924Y+3288263D01*
X+493952Y+3277768D01*
X+503174Y+3267388D01*
X+513669Y+3259700D01*
X+524164Y+3254782D01*
X+534659Y+3251976D01*
X+545154Y+3251003D01*
X+545750Y+3251000D01*
X+609250Y+3314500D02*
X+609033Y+3309253D01*
X+607268Y+3298758D01*
X+603576Y+3288263D01*
X+597548Y+3277768D01*
X+588326Y+3267388D01*
X+577831Y+3259700D01*
X+567336Y+3254782D01*
X+556841Y+3251976D01*
X+546346Y+3251003D01*
X+545750Y+3251000D01*
X+545750Y+3378000D02*
X+545750Y+3251000D01*
X+482250Y+3314500D02*
X+609250Y+3314500D01*
X+191250Y+2450500D02*
X+191033Y+2455747D01*
X+189268Y+2466242D01*
X+185576Y+2476737D01*
X+179548Y+2487232D01*
X+170326Y+2497612D01*
X+159831Y+2505300D01*
X+149336Y+2510218D01*
X+138841Y+2513024D01*
X+128346Y+2513997D01*
X+127750Y+2514000D01*
X+64250Y+2450500D02*
X+64467Y+2455747D01*
X+66232Y+2466242D01*
X+69924Y+2476737D01*
X+75952Y+2487232D01*
X+85174Y+2497612D01*
X+95669Y+2505300D01*
X+106164Y+2510218D01*
X+116659Y+2513024D01*
X+127154Y+2513997D01*
X+127750Y+2514000D01*
X+64250Y+2450500D02*
X+64467Y+2445253D01*
X+66232Y+2434758D01*
X+69924Y+2424263D01*
X+75952Y+2413768D01*
X+85174Y+2403388D01*
X+95669Y+2395700D01*
X+106164Y+2390782D01*
X+116659Y+2387976D01*
X+127154Y+2387003D01*
X+127750Y+2387000D01*
X+191250Y+2450500D02*
X+191033Y+2445253D01*
X+189268Y+2434758D01*
X+185576Y+2424263D01*
X+179548Y+2413768D01*
X+170326Y+2403388D01*
X+159831Y+2395700D01*
X+149336Y+2390782D01*
X+138841Y+2387976D01*
X+128346Y+2387003D01*
X+127750Y+2387000D01*
X+127750Y+2514000D02*
X+127750Y+2387000D01*
X+64250Y+2450500D02*
X+191250Y+2450500D01*
X+191250Y+3314500D02*
X+191033Y+3319747D01*
X+189268Y+3330242D01*
X+185576Y+3340737D01*
X+179548Y+3351232D01*
X+170326Y+3361612D01*
X+159831Y+3369300D01*
X+149336Y+3374218D01*
X+138841Y+3377024D01*
X+128346Y+3377997D01*
X+127750Y+3378000D01*
X+64250Y+3314500D02*
X+64467Y+3319747D01*
X+66232Y+3330242D01*
X+69924Y+3340737D01*
X+75952Y+3351232D01*
X+85174Y+3361612D01*
X+95669Y+3369300D01*
X+106164Y+3374218D01*
X+116659Y+3377024D01*
X+127154Y+3377997D01*
X+127750Y+3378000D01*
X+64250Y+3314500D02*
X+64467Y+3309253D01*
X+66232Y+3298758D01*
X+69924Y+3288263D01*
X+75952Y+3277768D01*
X+85174Y+3267388D01*
X+95669Y+3259700D01*
X+106164Y+3254782D01*
X+116659Y+3251976D01*
X+127154Y+3251003D01*
X+127750Y+3251000D01*
X+191250Y+3314500D02*
X+191033Y+3309253D01*
X+189268Y+3298758D01*
X+185576Y+3288263D01*
X+179548Y+3277768D01*
X+170326Y+3267388D01*
X+159831Y+3259700D01*
X+149336Y+3254782D01*
X+138841Y+3251976D01*
X+128346Y+3251003D01*
X+127750Y+3251000D01*
X+127750Y+3378000D02*
X+127750Y+3251000D01*
X+64250Y+3314500D02*
X+191250Y+3314500D01*
D65*
X+6800850Y+762000D02*
X+6800320Y+774958D01*
X+6796016Y+800876D01*
X+6787025Y+826794D01*
X+6772380Y+852712D01*
X+6749976Y+878466D01*
X+6724058Y+897958D01*
X+6698140Y+910530D01*
X+6672222Y+917866D01*
X+6646304Y+920694D01*
X+6642100Y+920750D01*
X+6483350Y+762000D02*
X+6483880Y+774958D01*
X+6488184Y+800876D01*
X+6497175Y+826794D01*
X+6511820Y+852712D01*
X+6534224Y+878466D01*
X+6560142Y+897958D01*
X+6586060Y+910530D01*
X+6611978Y+917866D01*
X+6637896Y+920694D01*
X+6642100Y+920750D01*
X+6483350Y+762000D02*
X+6483880Y+749042D01*
X+6488184Y+723124D01*
X+6497175Y+697206D01*
X+6511820Y+671288D01*
X+6534224Y+645534D01*
X+6560142Y+626042D01*
X+6586060Y+613470D01*
X+6611978Y+606134D01*
X+6637896Y+603306D01*
X+6642100Y+603250D01*
X+6800850Y+762000D02*
X+6800320Y+749042D01*
X+6796016Y+723124D01*
X+6787025Y+697206D01*
X+6772380Y+671288D01*
X+6749976Y+645534D01*
X+6724058Y+626042D01*
X+6698140Y+613470D01*
X+6672222Y+606134D01*
X+6646304Y+603306D01*
X+6642100Y+603250D01*
X+6800850Y+3556000D02*
X+6800320Y+3568958D01*
X+6796016Y+3594876D01*
X+6787025Y+3620794D01*
X+6772380Y+3646712D01*
X+6749976Y+3672466D01*
X+6724058Y+3691958D01*
X+6698140Y+3704530D01*
X+6672222Y+3711866D01*
X+6646304Y+3714694D01*
X+6642100Y+3714750D01*
X+6483350Y+3556000D02*
X+6483880Y+3568958D01*
X+6488184Y+3594876D01*
X+6497175Y+3620794D01*
X+6511820Y+3646712D01*
X+6534224Y+3672466D01*
X+6560142Y+3691958D01*
X+6586060Y+3704530D01*
X+6611978Y+3711866D01*
X+6637896Y+3714694D01*
X+6642100Y+3714750D01*
X+6483350Y+3556000D02*
X+6483880Y+3543042D01*
X+6488184Y+3517124D01*
X+6497175Y+3491206D01*
X+6511820Y+3465288D01*
X+6534224Y+3439534D01*
X+6560142Y+3420042D01*
X+6586060Y+3407470D01*
X+6611978Y+3400134D01*
X+6637896Y+3397306D01*
X+6642100Y+3397250D01*
X+6800850Y+3556000D02*
X+6800320Y+3543042D01*
X+6796016Y+3517124D01*
X+6787025Y+3491206D01*
X+6772380Y+3465288D01*
X+6749976Y+3439534D01*
X+6724058Y+3420042D01*
X+6698140Y+3407470D01*
X+6672222Y+3400134D01*
X+6646304Y+3397306D01*
X+6642100Y+3397250D01*
X+1720850Y+5080000D02*
X+1720320Y+5092958D01*
X+1716016Y+5118876D01*
X+1707025Y+5144794D01*
X+1692380Y+5170712D01*
X+1669976Y+5196466D01*
X+1644058Y+5215958D01*
X+1618140Y+5228530D01*
X+1592222Y+5235866D01*
X+1566304Y+5238694D01*
X+1562100Y+5238750D01*
X+1403350Y+5080000D02*
X+1403880Y+5092958D01*
X+1408184Y+5118876D01*
X+1417175Y+5144794D01*
X+1431820Y+5170712D01*
X+1454224Y+5196466D01*
X+1480142Y+5215958D01*
X+1506060Y+5228530D01*
X+1531978Y+5235866D01*
X+1557896Y+5238694D01*
X+1562100Y+5238750D01*
X+1403350Y+5080000D02*
X+1403880Y+5067042D01*
X+1408184Y+5041124D01*
X+1417175Y+5015206D01*
X+1431820Y+4989288D01*
X+1454224Y+4963534D01*
X+1480142Y+4944042D01*
X+1506060Y+4931470D01*
X+1531978Y+4924134D01*
X+1557896Y+4921306D01*
X+1562100Y+4921250D01*
X+1720850Y+5080000D02*
X+1720320Y+5067042D01*
X+1716016Y+5041124D01*
X+1707025Y+5015206D01*
X+1692380Y+4989288D01*
X+1669976Y+4963534D01*
X+1644058Y+4944042D01*
X+1618140Y+4931470D01*
X+1592222Y+4924134D01*
X+1566304Y+4921306D01*
X+1562100Y+4921250D01*
X+1720850Y+254000D02*
X+1720320Y+266958D01*
X+1716016Y+292876D01*
X+1707025Y+318794D01*
X+1692380Y+344712D01*
X+1669976Y+370466D01*
X+1644058Y+389958D01*
X+1618140Y+402530D01*
X+1592222Y+409866D01*
X+1566304Y+412694D01*
X+1562100Y+412750D01*
X+1403350Y+254000D02*
X+1403880Y+266958D01*
X+1408184Y+292876D01*
X+1417175Y+318794D01*
X+1431820Y+344712D01*
X+1454224Y+370466D01*
X+1480142Y+389958D01*
X+1506060Y+402530D01*
X+1531978Y+409866D01*
X+1557896Y+412694D01*
X+1562100Y+412750D01*
X+1403350Y+254000D02*
X+1403880Y+241042D01*
X+1408184Y+215124D01*
X+1417175Y+189206D01*
X+1431820Y+163288D01*
X+1454224Y+137534D01*
X+1480142Y+118042D01*
X+1506060Y+105470D01*
X+1531978Y+98134D01*
X+1557896Y+95306D01*
X+1562100Y+95250D01*
X+1720850Y+254000D02*
X+1720320Y+241042D01*
X+1716016Y+215124D01*
X+1707025Y+189206D01*
X+1692380Y+163288D01*
X+1669976Y+137534D01*
X+1644058Y+118042D01*
X+1618140Y+105470D01*
X+1592222Y+98134D01*
X+1566304Y+95306D01*
X+1562100Y+95250D01*
X+127000Y+0D02*
X+101032Y+2527D01*
X+77018Y+9798D01*
X+55423Y+21347D01*
X+36711Y+36711D01*
X+21348Y+55423D01*
X+9798Y+77018D01*
X+2527Y+101032D01*
X+0Y+127000D01*
X+0Y+5207000D01*
X+2527Y+5232967D01*
X+9798Y+5256981D01*
X+21348Y+5278577D01*
X+36711Y+5297289D01*
X+55423Y+5312652D01*
X+77018Y+5324202D01*
X+101032Y+5331473D01*
X+127000Y+5334000D01*
X+6515100Y+5334000D01*
X+6642100Y+5207000D01*
X+6642100Y+4064000D01*
X+6896100Y+3810000D01*
X+6896100Y+508000D01*
X+6642100Y+254000D01*
X+6642100Y+127000D01*
X+6639573Y+101032D01*
X+6632302Y+77018D01*
X+6620752Y+55423D01*
X+6605389Y+36711D01*
X+6586677Y+21347D01*
X+6565081Y+9798D01*
X+6541067Y+2527D01*
X+6515100Y+0D01*
X+127000Y+0D01*
X+526230Y+3171500D02*
X+526125Y+3174029D01*
X+525270Y+3179088D01*
X+523482Y+3184147D01*
X+520560Y+3189206D01*
X+516090Y+3194201D01*
X+511031Y+3197873D01*
X+505972Y+3200215D01*
X+500913Y+3201540D01*
X+495854Y+3201980D01*
X+495750Y+3201980D01*
X+465270Y+3171500D02*
X+465375Y+3174029D01*
X+466230Y+3179088D01*
X+468018Y+3184147D01*
X+470940Y+3189206D01*
X+475410Y+3194201D01*
X+480469Y+3197873D01*
X+485528Y+3200215D01*
X+490587Y+3201540D01*
X+495646Y+3201980D01*
X+495750Y+3201980D01*
X+465270Y+3171500D02*
X+465375Y+3168971D01*
X+466230Y+3163912D01*
X+468018Y+3158853D01*
X+470940Y+3153794D01*
X+475410Y+3148799D01*
X+480469Y+3145127D01*
X+485528Y+3142785D01*
X+490587Y+3141460D01*
X+495646Y+3141020D01*
X+495750Y+3141020D01*
X+526230Y+3171500D02*
X+526125Y+3168971D01*
X+525270Y+3163912D01*
X+523482Y+3158853D01*
X+520560Y+3153794D01*
X+516090Y+3148799D01*
X+511031Y+3145127D01*
X+505972Y+3142785D01*
X+500913Y+3141460D01*
X+495854Y+3141020D01*
X+495750Y+3141020D01*
X+526230Y+2593500D02*
X+526125Y+2596029D01*
X+525270Y+2601088D01*
X+523482Y+2606147D01*
X+520560Y+2611206D01*
X+516090Y+2616201D01*
X+511031Y+2619873D01*
X+505972Y+2622215D01*
X+500913Y+2623540D01*
X+495854Y+2623980D01*
X+495750Y+2623980D01*
X+465270Y+2593500D02*
X+465375Y+2596029D01*
X+466230Y+2601088D01*
X+468018Y+2606147D01*
X+470940Y+2611206D01*
X+475410Y+2616201D01*
X+480469Y+2619873D01*
X+485528Y+2622215D01*
X+490587Y+2623540D01*
X+495646Y+2623980D01*
X+495750Y+2623980D01*
X+465270Y+2593500D02*
X+465375Y+2590971D01*
X+466230Y+2585912D01*
X+468018Y+2580853D01*
X+470940Y+2575794D01*
X+475410Y+2570799D01*
X+480469Y+2567127D01*
X+485528Y+2564785D01*
X+490587Y+2563460D01*
X+495646Y+2563020D01*
X+495750Y+2563020D01*
X+526230Y+2593500D02*
X+526125Y+2590971D01*
X+525270Y+2585912D01*
X+523482Y+2580853D01*
X+520560Y+2575794D01*
X+516090Y+2570799D01*
X+511031Y+2567127D01*
X+505972Y+2564785D01*
X+500913Y+2563460D01*
X+495854Y+2563020D01*
X+495750Y+2563020D01*
D67*
X-158920Y-1508125D02*
X+2485220Y-1508125D01*
X+2485220Y-263525D01*
X-158920Y-263525D01*
X-158920Y-1508125D01*
D175*
X+308442Y-263525D02*
X+308442Y-1508125D01*
X+1121242Y-263525D02*
X+1121242Y-1508125D01*
X+1954362Y-263525D02*
X+1954362Y-1508125D01*
X-158920Y-536575D02*
X+2485220Y-536575D01*
X-158920Y-777875D02*
X+2485220Y-777875D01*
X-158920Y-1019175D02*
X+2485220Y-1019175D01*
X-158920Y-1260475D02*
X+2485220Y-1260475D01*
D67*
X-101770Y-427355D02*
X-86530Y-442595D01*
X-25570Y-442595D01*
X-10330Y-427355D01*
X-10330Y-412115D01*
X-25570Y-396875D01*
X-86530Y-396875D01*
X-101770Y-381635D01*
X-101770Y-366395D01*
X-86530Y-351155D01*
X-25570Y-351155D01*
X-10330Y-366395D01*
X+111590Y-351155D02*
X+20150Y-442595D01*
X+20150Y-351155D02*
X+65870Y-396875D01*
X+142070Y-442595D02*
X+142070Y-351155D01*
X+187790Y-396875D01*
X+233510Y-351155D01*
X+233510Y-442595D01*
X+365590Y-427355D02*
X+380830Y-442595D01*
X+441790Y-442595D01*
X+457030Y-427355D01*
X+457030Y-412115D01*
X+441790Y-396875D01*
X+380830Y-396875D01*
X+365590Y-381635D01*
X+365590Y-366395D01*
X+380830Y-351155D01*
X+441790Y-351155D01*
X+457030Y-366395D01*
X+502750Y-351155D02*
X+563710Y-351155D01*
X+533230Y-351155D02*
X+533230Y-442595D01*
X+502750Y-442595D02*
X+563710Y-442595D01*
X+609430Y-351155D02*
X+700870Y-351155D01*
X+609430Y-442595D01*
X+700870Y-442595D01*
X+822790Y-442595D02*
X+731350Y-442595D01*
X+731350Y-351155D01*
X+822790Y-351155D01*
X+731350Y-396875D02*
X+792310Y-396875D01*
X+1178390Y-442595D02*
X+1178390Y-351155D01*
X+1254590Y-351155D01*
X+1269830Y-366395D01*
X+1269830Y-381635D01*
X+1254590Y-396875D01*
X+1178390Y-396875D01*
X+1300310Y-351155D02*
X+1300310Y-442595D01*
X+1391750Y-442595D01*
X+1422230Y-442595D02*
X+1422230Y-381635D01*
X+1452710Y-351155D01*
X+1483190Y-351155D01*
X+1513670Y-381635D01*
X+1513670Y-442595D01*
X+1422230Y-412115D02*
X+1513670Y-412115D01*
X+1544150Y-351155D02*
X+1635590Y-351155D01*
X+1589870Y-351155D02*
X+1589870Y-442595D01*
X+1757510Y-442595D02*
X+1666070Y-442595D01*
X+1666070Y-351155D01*
X+1757510Y-351155D01*
X+1666070Y-396875D02*
X+1727030Y-396875D01*
X+1787990Y-442595D02*
X+1787990Y-351155D01*
X+1848950Y-351155D01*
X+1879430Y-381635D01*
X+1879430Y-412115D01*
X+1848950Y-442595D01*
X+1787990Y-442595D01*
X+2011510Y-381635D02*
X+2041990Y-351155D01*
X+2072470Y-351155D01*
X+2102950Y-381635D01*
X+2102950Y-412115D01*
X+2072470Y-442595D01*
X+2041990Y-442595D01*
X+2011510Y-412115D01*
X+2011510Y-381635D01*
X+2072470Y-412115D02*
X+2102950Y-442595D01*
X+2133430Y-351155D02*
X+2224870Y-351155D01*
X+2179150Y-351155D02*
X+2179150Y-442595D01*
X+2346790Y-351155D02*
X+2255350Y-442595D01*
X+2255350Y-351155D02*
X+2301070Y-396875D01*
X+87460Y-587375D02*
X+87460Y-714375D01*
X+23960Y-650875D02*
X+150960Y-650875D01*
X+384640Y-676275D02*
X+384640Y-625475D01*
X+397340Y-612775D01*
X+448140Y-612775D01*
X+460840Y-625475D01*
X+460840Y-676275D01*
X+448140Y-688975D01*
X+397340Y-688975D01*
X+384640Y-676275D01*
X+384640Y-688975D02*
X+460840Y-612775D01*
X+524340Y-676275D02*
X+537040Y-676275D01*
X+537040Y-688975D01*
X+524340Y-688975D01*
X+524340Y-676275D01*
X+664040Y-625475D02*
X+651340Y-612775D01*
X+613240Y-612775D01*
X+600540Y-625475D01*
X+600540Y-676275D01*
X+613240Y-688975D01*
X+651340Y-688975D01*
X+664040Y-676275D01*
X+664040Y-663575D01*
X+651340Y-650875D01*
X+600540Y-650875D01*
X+689440Y-688975D02*
X+689440Y-638175D01*
X+689440Y-650875D02*
X+702140Y-638175D01*
X+727540Y-663575D01*
X+752940Y-638175D01*
X+765640Y-650875D01*
X+765640Y-688975D01*
X+791040Y-688975D02*
X+791040Y-638175D01*
X+791040Y-650875D02*
X+803740Y-638175D01*
X+829140Y-663575D01*
X+854540Y-638175D01*
X+867240Y-650875D01*
X+867240Y-688975D01*
X+1286340Y-612775D02*
X+1210140Y-688975D01*
X+1210140Y-612775D02*
X+1248240Y-650875D01*
X+1387940Y-688975D02*
X+1311740Y-688975D01*
X+1311740Y-612775D01*
X+1387940Y-612775D01*
X+1311740Y-650875D02*
X+1362540Y-650875D01*
X+1413340Y-676275D02*
X+1426040Y-688975D01*
X+1476840Y-688975D01*
X+1489540Y-676275D01*
X+1489540Y-663575D01*
X+1476840Y-650875D01*
X+1426040Y-650875D01*
X+1413340Y-638175D01*
X+1413340Y-625475D01*
X+1426040Y-612775D01*
X+1476840Y-612775D01*
X+1489540Y-625475D01*
X+2081360Y-650875D02*
X+2068660Y-638175D01*
X+2068660Y-625475D01*
X+2081360Y-612775D01*
X+2119460Y-612775D01*
X+2132160Y-625475D01*
X+2132160Y-638175D01*
X+2119460Y-650875D01*
X+2081360Y-650875D01*
X+2068660Y-663575D01*
X+2068660Y-676275D01*
X+2081360Y-688975D01*
X+2119460Y-688975D01*
X+2132160Y-676275D01*
X+2132160Y-663575D01*
X+2119460Y-650875D01*
X+42559Y-847274D02*
X+132361Y-937076D01*
X+42559Y-937076D02*
X+132361Y-847274D01*
X+384640Y-917575D02*
X+384640Y-866775D01*
X+397340Y-854075D01*
X+448140Y-854075D01*
X+460840Y-866775D01*
X+460840Y-917575D01*
X+448140Y-930275D01*
X+397340Y-930275D01*
X+384640Y-917575D01*
X+384640Y-930275D02*
X+460840Y-854075D01*
X+524340Y-917575D02*
X+537040Y-917575D01*
X+537040Y-930275D01*
X+524340Y-930275D01*
X+524340Y-917575D01*
X+664040Y-879475D02*
X+651340Y-892175D01*
X+613240Y-892175D01*
X+600540Y-879475D01*
X+600540Y-866775D01*
X+613240Y-854075D01*
X+651340Y-854075D01*
X+664040Y-866775D01*
X+664040Y-917575D01*
X+651340Y-930275D01*
X+613240Y-930275D01*
X+765640Y-854075D02*
X+702140Y-854075D01*
X+702140Y-879475D01*
X+752940Y-879475D01*
X+765640Y-892175D01*
X+765640Y-917575D01*
X+752940Y-930275D01*
X+714840Y-930275D01*
X+702140Y-917575D01*
X+791040Y-930275D02*
X+791040Y-879475D01*
X+791040Y-892175D02*
X+803740Y-879475D01*
X+829140Y-904875D01*
X+854540Y-879475D01*
X+867240Y-892175D01*
X+867240Y-930275D01*
X+892640Y-930275D02*
X+892640Y-879475D01*
X+892640Y-892175D02*
X+905340Y-879475D01*
X+930740Y-904875D01*
X+956140Y-879475D01*
X+968840Y-892175D01*
X+968840Y-930275D01*
X+1286340Y-854075D02*
X+1210140Y-930275D01*
X+1210140Y-854075D02*
X+1248240Y-892175D01*
X+1387940Y-930275D02*
X+1311740Y-930275D01*
X+1311740Y-854075D01*
X+1387940Y-854075D01*
X+1311740Y-892175D02*
X+1362540Y-892175D01*
X+1413340Y-917575D02*
X+1426040Y-930275D01*
X+1476840Y-930275D01*
X+1489540Y-917575D01*
X+1489540Y-904875D01*
X+1476840Y-892175D01*
X+1426040Y-892175D01*
X+1413340Y-879475D01*
X+1413340Y-866775D01*
X+1426040Y-854075D01*
X+1476840Y-854075D01*
X+1489540Y-866775D01*
X+2132160Y-866775D02*
X+2119460Y-854075D01*
X+2081360Y-854075D01*
X+2068660Y-866775D01*
X+2068660Y-917575D01*
X+2081360Y-930275D01*
X+2119460Y-930275D01*
X+2132160Y-917575D01*
X+2132160Y-904875D01*
X+2119460Y-892175D01*
X+2068660Y-892175D01*
X+2233760Y-854075D02*
X+2170260Y-854075D01*
X+2170260Y-879475D01*
X+2221060Y-879475D01*
X+2233760Y-892175D01*
X+2233760Y-917575D01*
X+2221060Y-930275D01*
X+2182960Y-930275D01*
X+2170260Y-917575D01*
X+87460Y-1069975D02*
X+87460Y-1196975D01*
X+23960Y-1133475D02*
X+150960Y-1133475D01*
X+42559Y-1088574D02*
X+132361Y-1178376D01*
X+42559Y-1178376D02*
X+132361Y-1088574D01*
X+384640Y-1158875D02*
X+384640Y-1108075D01*
X+397340Y-1095375D01*
X+448140Y-1095375D01*
X+460840Y-1108075D01*
X+460840Y-1158875D01*
X+448140Y-1171575D01*
X+397340Y-1171575D01*
X+384640Y-1158875D01*
X+384640Y-1171575D02*
X+460840Y-1095375D01*
X+524340Y-1158875D02*
X+537040Y-1158875D01*
X+537040Y-1171575D01*
X+524340Y-1171575D01*
X+524340Y-1158875D01*
X+600540Y-1108075D02*
X+613240Y-1095375D01*
X+651340Y-1095375D01*
X+664040Y-1108075D01*
X+664040Y-1120775D01*
X+651340Y-1133475D01*
X+664040Y-1146175D01*
X+664040Y-1158875D01*
X+651340Y-1171575D01*
X+613240Y-1171575D01*
X+600540Y-1158875D01*
X+625940Y-1133475D02*
X+651340Y-1133475D01*
X+689440Y-1158875D02*
X+689440Y-1108075D01*
X+702140Y-1095375D01*
X+752940Y-1095375D01*
X+765640Y-1108075D01*
X+765640Y-1158875D01*
X+752940Y-1171575D01*
X+702140Y-1171575D01*
X+689440Y-1158875D01*
X+689440Y-1171575D02*
X+765640Y-1095375D01*
X+867240Y-1095375D02*
X+803740Y-1095375D01*
X+803740Y-1120775D01*
X+854540Y-1120775D01*
X+867240Y-1133475D01*
X+867240Y-1158875D01*
X+854540Y-1171575D01*
X+816440Y-1171575D01*
X+803740Y-1158875D01*
X+892640Y-1171575D02*
X+892640Y-1120775D01*
X+892640Y-1133475D02*
X+905340Y-1120775D01*
X+930740Y-1146175D01*
X+956140Y-1120775D01*
X+968840Y-1133475D01*
X+968840Y-1171575D01*
X+994240Y-1171575D02*
X+994240Y-1120775D01*
X+994240Y-1133475D02*
X+1006940Y-1120775D01*
X+1032340Y-1146175D01*
X+1057740Y-1120775D01*
X+1070440Y-1133475D01*
X+1070440Y-1171575D01*
X+1286340Y-1095375D02*
X+1210140Y-1171575D01*
X+1210140Y-1095375D02*
X+1248240Y-1133475D01*
X+1387940Y-1171575D02*
X+1311740Y-1171575D01*
X+1311740Y-1095375D01*
X+1387940Y-1095375D01*
X+1311740Y-1133475D02*
X+1362540Y-1133475D01*
X+1413340Y-1158875D02*
X+1426040Y-1171575D01*
X+1476840Y-1171575D01*
X+1489540Y-1158875D01*
X+1489540Y-1146175D01*
X+1476840Y-1133475D01*
X+1426040Y-1133475D01*
X+1413340Y-1120775D01*
X+1413340Y-1108075D01*
X+1426040Y-1095375D01*
X+1476840Y-1095375D01*
X+1489540Y-1108075D01*
X+2068660Y-1108075D02*
X+2081360Y-1095375D01*
X+2119460Y-1095375D01*
X+2132160Y-1108075D01*
X+2132160Y-1120775D01*
X+2119460Y-1133475D01*
X+2081360Y-1133475D01*
X+2068660Y-1146175D01*
X+2068660Y-1171575D01*
X+2132160Y-1171575D01*
X+2170260Y-1095375D02*
X+2233760Y-1095375D01*
X+2233760Y-1108075D01*
X+2170260Y-1171575D01*
X+2259160Y-1158875D02*
X+2259160Y-1108075D01*
X+2271860Y-1095375D01*
X+2322660Y-1095375D01*
X+2335360Y-1108075D01*
X+2335360Y-1158875D01*
X+2322660Y-1171575D01*
X+2271860Y-1171575D01*
X+2259160Y-1158875D01*
X+2259160Y-1171575D02*
X+2335360Y-1095375D01*
X+150960Y-1374775D02*
X+150743Y-1369528D01*
X+148978Y-1359033D01*
X+145286Y-1348538D01*
X+139258Y-1338043D01*
X+130036Y-1327663D01*
X+119541Y-1319975D01*
X+109046Y-1315057D01*
X+98551Y-1312251D01*
X+88056Y-1311278D01*
X+87460Y-1311275D01*
X+23960Y-1374775D02*
X+24177Y-1369528D01*
X+25942Y-1359033D01*
X+29634Y-1348538D01*
X+35662Y-1338043D01*
X+44884Y-1327663D01*
X+55379Y-1319975D01*
X+65874Y-1315057D01*
X+76369Y-1312251D01*
X+86864Y-1311278D01*
X+87460Y-1311275D01*
X+23960Y-1374775D02*
X+24177Y-1380022D01*
X+25942Y-1390517D01*
X+29634Y-1401012D01*
X+35662Y-1411507D01*
X+44884Y-1421887D01*
X+55379Y-1429575D01*
X+65874Y-1434493D01*
X+76369Y-1437299D01*
X+86864Y-1438272D01*
X+87460Y-1438275D01*
X+150960Y-1374775D02*
X+150743Y-1380022D01*
X+148978Y-1390517D01*
X+145286Y-1401012D01*
X+139258Y-1411507D01*
X+130036Y-1421887D01*
X+119541Y-1429575D01*
X+109046Y-1434493D01*
X+98551Y-1437299D01*
X+88056Y-1438272D01*
X+87460Y-1438275D01*
X+87460Y-1311275D02*
X+87460Y-1438275D01*
X+23960Y-1374775D02*
X+150960Y-1374775D01*
X+384640Y-1400175D02*
X+397340Y-1412875D01*
X+448140Y-1412875D01*
X+460840Y-1400175D01*
X+460840Y-1387475D01*
X+448140Y-1374775D01*
X+397340Y-1374775D01*
X+384640Y-1362075D01*
X+384640Y-1349375D01*
X+397340Y-1336675D01*
X+448140Y-1336675D01*
X+460840Y-1349375D01*
X+486240Y-1336675D02*
X+486240Y-1412875D01*
X+562440Y-1412875D01*
X+587840Y-1362075D02*
X+613240Y-1336675D01*
X+638640Y-1336675D01*
X+664040Y-1362075D01*
X+664040Y-1387475D01*
X+638640Y-1412875D01*
X+613240Y-1412875D01*
X+587840Y-1387475D01*
X+587840Y-1362075D01*
X+689440Y-1336675D02*
X+765640Y-1336675D01*
X+727540Y-1336675D02*
X+727540Y-1412875D01*
X+1286340Y-1336675D02*
X+1210140Y-1412875D01*
X+1210140Y-1336675D02*
X+1248240Y-1374775D01*
X+1387940Y-1412875D02*
X+1311740Y-1412875D01*
X+1311740Y-1336675D01*
X+1387940Y-1336675D01*
X+1311740Y-1374775D02*
X+1362540Y-1374775D01*
X+1413340Y-1400175D02*
X+1426040Y-1412875D01*
X+1476840Y-1412875D01*
X+1489540Y-1400175D01*
X+1489540Y-1387475D01*
X+1476840Y-1374775D01*
X+1426040Y-1374775D01*
X+1413340Y-1362075D01*
X+1413340Y-1349375D01*
X+1426040Y-1336675D01*
X+1476840Y-1336675D01*
X+1489540Y-1349375D01*
X+2132160Y-1387475D02*
X+2055960Y-1387475D01*
X+2106760Y-1336675D01*
X+2106760Y-1412875D01*
M02*
