G04 PROTEUS RS274X GERBER FILE*
%FSLAX45Y45*%
%MOMM*%
G01*
%AMPPAD062*
4,1,36,
-0.477000,-0.500000,
-0.477000,0.500000,
-0.474470,0.525970,
-0.467200,0.549980,
-0.455650,0.571580,
-0.440290,0.590290,
-0.421570,0.605650,
-0.399980,0.617200,
-0.375970,0.624470,
-0.350000,0.627000,
0.350000,0.627000,
0.375970,0.624470,
0.399980,0.617200,
0.421570,0.605650,
0.440290,0.590290,
0.455650,0.571580,
0.467200,0.549980,
0.474470,0.525970,
0.477000,0.500000,
0.477000,-0.500000,
0.474470,-0.525970,
0.467200,-0.549980,
0.455650,-0.571580,
0.440290,-0.590290,
0.421570,-0.605650,
0.399980,-0.617200,
0.375970,-0.624470,
0.350000,-0.627000,
-0.350000,-0.627000,
-0.375970,-0.624470,
-0.399980,-0.617200,
-0.421570,-0.605650,
-0.440290,-0.590290,
-0.455650,-0.571580,
-0.467200,-0.549980,
-0.474470,-0.525970,
-0.477000,-0.500000,
0*%
%ADD68PPAD062*%
%AMPPAD063*
4,1,36,
0.527000,0.400000,
0.527000,-0.400000,
0.524470,-0.425970,
0.517200,-0.449980,
0.505650,-0.471580,
0.490290,-0.490290,
0.471570,-0.505650,
0.449980,-0.517200,
0.425970,-0.524470,
0.400000,-0.527000,
-0.400000,-0.527000,
-0.425970,-0.524470,
-0.449980,-0.517200,
-0.471570,-0.505650,
-0.490290,-0.490290,
-0.505650,-0.471580,
-0.517200,-0.449980,
-0.524470,-0.425970,
-0.527000,-0.400000,
-0.527000,0.400000,
-0.524470,0.425970,
-0.517200,0.449980,
-0.505650,0.471580,
-0.490290,0.490290,
-0.471570,0.505650,
-0.449980,0.517200,
-0.425970,0.524470,
-0.400000,0.527000,
0.400000,0.527000,
0.425970,0.524470,
0.449980,0.517200,
0.471570,0.505650,
0.490290,0.490290,
0.505650,0.471580,
0.517200,0.449980,
0.524470,0.425970,
0.527000,0.400000,
0*%
%ADD69PPAD063*%
%AMPPAD064*
4,1,36,
-1.100000,0.952000,
1.100000,0.952000,
1.125970,0.949470,
1.149980,0.942200,
1.171580,0.930650,
1.190290,0.915290,
1.205650,0.896570,
1.217200,0.874980,
1.224470,0.850970,
1.227000,0.825000,
1.227000,-0.825000,
1.224470,-0.850970,
1.217200,-0.874980,
1.205650,-0.896570,
1.190290,-0.915290,
1.171580,-0.930650,
1.149980,-0.942200,
1.125970,-0.949470,
1.100000,-0.952000,
-1.100000,-0.952000,
-1.125970,-0.949470,
-1.149980,-0.942200,
-1.171580,-0.930650,
-1.190290,-0.915290,
-1.205650,-0.896570,
-1.217200,-0.874980,
-1.224470,-0.850970,
-1.227000,-0.825000,
-1.227000,0.825000,
-1.224470,0.850970,
-1.217200,0.874980,
-1.205650,0.896570,
-1.190290,0.915290,
-1.171580,0.930650,
-1.149980,0.942200,
-1.125970,0.949470,
-1.100000,0.952000,
0*%
%ADD74PPAD064*%
%AMPPAD065*
4,1,36,
-0.652000,-0.450000,
-0.652000,0.450000,
-0.649470,0.475970,
-0.642200,0.499980,
-0.630650,0.521580,
-0.615290,0.540290,
-0.596570,0.555650,
-0.574980,0.567200,
-0.550970,0.574470,
-0.525000,0.577000,
0.525000,0.577000,
0.550970,0.574470,
0.574980,0.567200,
0.596570,0.555650,
0.615290,0.540290,
0.630650,0.521580,
0.642200,0.499980,
0.649470,0.475970,
0.652000,0.450000,
0.652000,-0.450000,
0.649470,-0.475970,
0.642200,-0.499980,
0.630650,-0.521580,
0.615290,-0.540290,
0.596570,-0.555650,
0.574980,-0.567200,
0.550970,-0.574470,
0.525000,-0.577000,
-0.525000,-0.577000,
-0.550970,-0.574470,
-0.574980,-0.567200,
-0.596570,-0.555650,
-0.615290,-0.540290,
-0.630650,-0.521580,
-0.642200,-0.499980,
-0.649470,-0.475970,
-0.652000,-0.450000,
0*%
%ADD75PPAD065*%
%AMPPAD066*
4,1,36,
0.450000,-0.652000,
-0.450000,-0.652000,
-0.475970,-0.649470,
-0.499980,-0.642200,
-0.521580,-0.630650,
-0.540290,-0.615290,
-0.555650,-0.596570,
-0.567200,-0.574980,
-0.574470,-0.550970,
-0.577000,-0.525000,
-0.577000,0.525000,
-0.574470,0.550970,
-0.567200,0.574980,
-0.555650,0.596570,
-0.540290,0.615290,
-0.521580,0.630650,
-0.499980,0.642200,
-0.475970,0.649470,
-0.450000,0.652000,
0.450000,0.652000,
0.475970,0.649470,
0.499980,0.642200,
0.521580,0.630650,
0.540290,0.615290,
0.555650,0.596570,
0.567200,0.574980,
0.574470,0.550970,
0.577000,0.525000,
0.577000,-0.525000,
0.574470,-0.550970,
0.567200,-0.574980,
0.555650,-0.596570,
0.540290,-0.615290,
0.521580,-0.630650,
0.499980,-0.642200,
0.475970,-0.649470,
0.450000,-0.652000,
0*%
%ADD76PPAD066*%
%AMPPAD067*
4,1,48,
0.323000,-0.577000,
-0.323000,-0.577000,
-0.349400,-0.575720,
-0.374930,-0.571950,
-0.399490,-0.565800,
-0.445220,-0.546870,
-0.485650,-0.519840,
-0.519840,-0.485640,
-0.546860,-0.445220,
-0.565800,-0.399490,
-0.571950,-0.374930,
-0.575720,-0.349400,
-0.577000,-0.323000,
-0.577000,0.323000,
-0.575720,0.349400,
-0.571950,0.374930,
-0.565800,0.399490,
-0.546860,0.445220,
-0.519840,0.485640,
-0.485650,0.519840,
-0.445220,0.546870,
-0.399490,0.565800,
-0.374930,0.571950,
-0.349400,0.575720,
-0.323000,0.577000,
0.323000,0.577000,
0.349400,0.575720,
0.374930,0.571950,
0.399490,0.565800,
0.445220,0.546870,
0.485650,0.519840,
0.519840,0.485640,
0.546860,0.445220,
0.565800,0.399490,
0.571950,0.374930,
0.575720,0.349400,
0.577000,0.323000,
0.577000,-0.323000,
0.575720,-0.349400,
0.571950,-0.374930,
0.565800,-0.399490,
0.546860,-0.445220,
0.519840,-0.485640,
0.485650,-0.519840,
0.445220,-0.546870,
0.399490,-0.565800,
0.374930,-0.571950,
0.349400,-0.575720,
0.323000,-0.577000,
0*%
%ADD77PPAD067*%
%ADD78C,1.154000*%
%AMPPAD069*
4,1,44,
-0.546000,0.927000,
0.546000,0.927000,
0.585600,0.925080,
0.623900,0.919420,
0.695940,0.897610,
0.760730,0.862960,
0.816870,0.816870,
0.862960,0.760730,
0.897610,0.695940,
0.919420,0.623900,
0.925080,0.585600,
0.927000,0.546000,
0.927000,-0.546000,
0.925080,-0.585600,
0.919420,-0.623900,
0.897610,-0.695940,
0.862960,-0.760730,
0.816870,-0.816870,
0.760730,-0.862960,
0.695940,-0.897610,
0.623900,-0.919420,
0.585600,-0.925080,
0.546000,-0.927000,
-0.546000,-0.927000,
-0.585600,-0.925080,
-0.623900,-0.919420,
-0.695940,-0.897610,
-0.760730,-0.862960,
-0.816870,-0.816870,
-0.862960,-0.760730,
-0.897610,-0.695940,
-0.919420,-0.623900,
-0.925080,-0.585600,
-0.927000,-0.546000,
-0.927000,0.546000,
-0.925080,0.585600,
-0.919420,0.623900,
-0.897610,0.695940,
-0.862960,0.760730,
-0.816870,0.816870,
-0.760730,0.862960,
-0.695940,0.897610,
-0.623900,0.919420,
-0.585600,0.925080,
-0.546000,0.927000,
0*%
%ADD79PPAD069*%
%ADD80C,1.854000*%
%AMPPAD071*
4,1,36,
-1.322000,-0.525000,
-1.322000,0.525000,
-1.319470,0.550970,
-1.312200,0.574980,
-1.300650,0.596580,
-1.285290,0.615290,
-1.266570,0.630650,
-1.244980,0.642200,
-1.220970,0.649470,
-1.195000,0.652000,
1.195000,0.652000,
1.220970,0.649470,
1.244980,0.642200,
1.266570,0.630650,
1.285290,0.615290,
1.300650,0.596580,
1.312200,0.574980,
1.319470,0.550970,
1.322000,0.525000,
1.322000,-0.525000,
1.319470,-0.550970,
1.312200,-0.574980,
1.300650,-0.596580,
1.285290,-0.615290,
1.266570,-0.630650,
1.244980,-0.642200,
1.220970,-0.649470,
1.195000,-0.652000,
-1.195000,-0.652000,
-1.220970,-0.649470,
-1.244980,-0.642200,
-1.266570,-0.630650,
-1.285290,-0.615290,
-1.300650,-0.596580,
-1.312200,-0.574980,
-1.319470,-0.550970,
-1.322000,-0.525000,
0*%
%ADD81PPAD071*%
%AMPPAD072*
4,1,36,
-0.727000,-0.525000,
-0.727000,0.525000,
-0.724470,0.550970,
-0.717200,0.574980,
-0.705650,0.596580,
-0.690290,0.615290,
-0.671570,0.630650,
-0.649980,0.642200,
-0.625970,0.649470,
-0.600000,0.652000,
0.600000,0.652000,
0.625970,0.649470,
0.649980,0.642200,
0.671570,0.630650,
0.690290,0.615290,
0.705650,0.596580,
0.717200,0.574980,
0.724470,0.550970,
0.727000,0.525000,
0.727000,-0.525000,
0.724470,-0.550970,
0.717200,-0.574980,
0.705650,-0.596580,
0.690290,-0.615290,
0.671570,-0.630650,
0.649980,-0.642200,
0.625970,-0.649470,
0.600000,-0.652000,
-0.600000,-0.652000,
-0.625970,-0.649470,
-0.649980,-0.642200,
-0.671570,-0.630650,
-0.690290,-0.615290,
-0.705650,-0.596580,
-0.717200,-0.574980,
-0.724470,-0.550970,
-0.727000,-0.525000,
0*%
%ADD82PPAD072*%
%AMPPAD073*
4,1,36,
-0.667000,-0.525000,
-0.667000,0.525000,
-0.664470,0.550970,
-0.657200,0.574980,
-0.645650,0.596580,
-0.630290,0.615290,
-0.611570,0.630650,
-0.589980,0.642200,
-0.565970,0.649470,
-0.540000,0.652000,
0.540000,0.652000,
0.565970,0.649470,
0.589980,0.642200,
0.611570,0.630650,
0.630290,0.615290,
0.645650,0.596580,
0.657200,0.574980,
0.664470,0.550970,
0.667000,0.525000,
0.667000,-0.525000,
0.664470,-0.550970,
0.657200,-0.574980,
0.645650,-0.596580,
0.630290,-0.615290,
0.611570,-0.630650,
0.589980,-0.642200,
0.565970,-0.649470,
0.540000,-0.652000,
-0.540000,-0.652000,
-0.565970,-0.649470,
-0.589980,-0.642200,
-0.611570,-0.630650,
-0.630290,-0.615290,
-0.645650,-0.596580,
-0.657200,-0.574980,
-0.664470,-0.550970,
-0.667000,-0.525000,
0*%
%ADD83PPAD073*%
%AMPPAD074*
4,1,36,
-0.402000,-1.455000,
-0.402000,1.455000,
-0.399470,1.480970,
-0.392200,1.504980,
-0.380650,1.526580,
-0.365290,1.545290,
-0.346570,1.560650,
-0.324980,1.572200,
-0.300970,1.579470,
-0.275000,1.582000,
0.275000,1.582000,
0.300970,1.579470,
0.324980,1.572200,
0.346570,1.560650,
0.365290,1.545290,
0.380650,1.526580,
0.392200,1.504980,
0.399470,1.480970,
0.402000,1.455000,
0.402000,-1.455000,
0.399470,-1.480970,
0.392200,-1.504980,
0.380650,-1.526580,
0.365290,-1.545290,
0.346570,-1.560650,
0.324980,-1.572200,
0.300970,-1.579470,
0.275000,-1.582000,
-0.275000,-1.582000,
-0.300970,-1.579470,
-0.324980,-1.572200,
-0.346570,-1.560650,
-0.365290,-1.545290,
-0.380650,-1.526580,
-0.392200,-1.504980,
-0.399470,-1.480970,
-0.402000,-1.455000,
0*%
%ADD84PPAD074*%
%AMPPAD075*
4,1,36,
-0.627000,-0.250000,
-0.627000,0.250000,
-0.624470,0.275970,
-0.617200,0.299980,
-0.605650,0.321580,
-0.590290,0.340290,
-0.571570,0.355650,
-0.549980,0.367200,
-0.525970,0.374470,
-0.500000,0.377000,
0.500000,0.377000,
0.525970,0.374470,
0.549980,0.367200,
0.571570,0.355650,
0.590290,0.340290,
0.605650,0.321580,
0.617200,0.299980,
0.624470,0.275970,
0.627000,0.250000,
0.627000,-0.250000,
0.624470,-0.275970,
0.617200,-0.299980,
0.605650,-0.321580,
0.590290,-0.340290,
0.571570,-0.355650,
0.549980,-0.367200,
0.525970,-0.374470,
0.500000,-0.377000,
-0.500000,-0.377000,
-0.525970,-0.374470,
-0.549980,-0.367200,
-0.571570,-0.355650,
-0.590290,-0.340290,
-0.605650,-0.321580,
-0.617200,-0.299980,
-0.624470,-0.275970,
-0.627000,-0.250000,
0*%
%ADD85PPAD075*%
%AMPPAD076*
4,1,36,
-0.517000,-0.360000,
-0.517000,0.360000,
-0.514470,0.385970,
-0.507200,0.409980,
-0.495650,0.431580,
-0.480290,0.450290,
-0.461570,0.465650,
-0.439980,0.477200,
-0.415970,0.484470,
-0.390000,0.487000,
0.390000,0.487000,
0.415970,0.484470,
0.439980,0.477200,
0.461570,0.465650,
0.480290,0.450290,
0.495650,0.431580,
0.507200,0.409980,
0.514470,0.385970,
0.517000,0.360000,
0.517000,-0.360000,
0.514470,-0.385970,
0.507200,-0.409980,
0.495650,-0.431580,
0.480290,-0.450290,
0.461570,-0.465650,
0.439980,-0.477200,
0.415970,-0.484470,
0.390000,-0.487000,
-0.390000,-0.487000,
-0.415970,-0.484470,
-0.439980,-0.477200,
-0.461570,-0.465650,
-0.480290,-0.450290,
-0.495650,-0.431580,
-0.507200,-0.409980,
-0.514470,-0.385970,
-0.517000,-0.360000,
0*%
%ADD86PPAD076*%
%AMPPAD077*
4,1,36,
0.877000,0.150000,
0.877000,-0.150000,
0.874470,-0.175970,
0.867200,-0.199980,
0.855650,-0.221580,
0.840290,-0.240290,
0.821570,-0.255650,
0.799980,-0.267200,
0.775970,-0.274470,
0.750000,-0.277000,
-0.750000,-0.277000,
-0.775970,-0.274470,
-0.799980,-0.267200,
-0.821570,-0.255650,
-0.840290,-0.240290,
-0.855650,-0.221580,
-0.867200,-0.199980,
-0.874470,-0.175970,
-0.877000,-0.150000,
-0.877000,0.150000,
-0.874470,0.175970,
-0.867200,0.199980,
-0.855650,0.221580,
-0.840290,0.240290,
-0.821570,0.255650,
-0.799980,0.267200,
-0.775970,0.274470,
-0.750000,0.277000,
0.750000,0.277000,
0.775970,0.274470,
0.799980,0.267200,
0.821570,0.255650,
0.840290,0.240290,
0.855650,0.221580,
0.867200,0.199980,
0.874470,0.175970,
0.877000,0.150000,
0*%
%ADD87PPAD077*%
%AMPPAD078*
4,1,36,
-0.150000,0.877000,
0.150000,0.877000,
0.175970,0.874470,
0.199980,0.867200,
0.221580,0.855650,
0.240290,0.840290,
0.255650,0.821570,
0.267200,0.799980,
0.274470,0.775970,
0.277000,0.750000,
0.277000,-0.750000,
0.274470,-0.775970,
0.267200,-0.799980,
0.255650,-0.821570,
0.240290,-0.840290,
0.221580,-0.855650,
0.199980,-0.867200,
0.175970,-0.874470,
0.150000,-0.877000,
-0.150000,-0.877000,
-0.175970,-0.874470,
-0.199980,-0.867200,
-0.221580,-0.855650,
-0.240290,-0.840290,
-0.255650,-0.821570,
-0.267200,-0.799980,
-0.274470,-0.775970,
-0.277000,-0.750000,
-0.277000,0.750000,
-0.274470,0.775970,
-0.267200,0.799980,
-0.255650,0.821570,
-0.240290,0.840290,
-0.221580,0.855650,
-0.199980,0.867200,
-0.175970,0.874470,
-0.150000,0.877000,
0*%
%ADD88PPAD078*%
%AMPPAD079*
4,1,36,
0.277000,0.425000,
0.277000,-0.425000,
0.274470,-0.450970,
0.267200,-0.474980,
0.255650,-0.496580,
0.240290,-0.515290,
0.221570,-0.530650,
0.199980,-0.542200,
0.175970,-0.549470,
0.150000,-0.552000,
-0.150000,-0.552000,
-0.175970,-0.549470,
-0.199980,-0.542200,
-0.221570,-0.530650,
-0.240290,-0.515290,
-0.255650,-0.496580,
-0.267200,-0.474980,
-0.274470,-0.450970,
-0.277000,-0.425000,
-0.277000,0.425000,
-0.274470,0.450970,
-0.267200,0.474980,
-0.255650,0.496580,
-0.240290,0.515290,
-0.221570,0.530650,
-0.199980,0.542200,
-0.175970,0.549470,
-0.150000,0.552000,
0.150000,0.552000,
0.175970,0.549470,
0.199980,0.542200,
0.221570,0.530650,
0.240290,0.515290,
0.255650,0.496580,
0.267200,0.474980,
0.274470,0.450970,
0.277000,0.425000,
0*%
%ADD89PPAD079*%
%AMPPAD080*
4,1,36,
0.300000,-0.727000,
-0.300000,-0.727000,
-0.325970,-0.724470,
-0.349980,-0.717200,
-0.371580,-0.705650,
-0.390290,-0.690290,
-0.405650,-0.671570,
-0.417200,-0.649980,
-0.424470,-0.625970,
-0.427000,-0.600000,
-0.427000,0.600000,
-0.424470,0.625970,
-0.417200,0.649980,
-0.405650,0.671570,
-0.390290,0.690290,
-0.371580,0.705650,
-0.349980,0.717200,
-0.325970,0.724470,
-0.300000,0.727000,
0.300000,0.727000,
0.325970,0.724470,
0.349980,0.717200,
0.371580,0.705650,
0.390290,0.690290,
0.405650,0.671570,
0.417200,0.649980,
0.424470,0.625970,
0.427000,0.600000,
0.427000,-0.600000,
0.424470,-0.625970,
0.417200,-0.649980,
0.405650,-0.671570,
0.390290,-0.690290,
0.371580,-0.705650,
0.349980,-0.717200,
0.325970,-0.724470,
0.300000,-0.727000,
0*%
%ADD90PPAD080*%
%ADD91C,1.143000*%
%ADD92C,0.404000*%
%AMPPAD083*
4,1,36,
1.177000,0.195200,
1.177000,-0.195200,
1.168410,-0.283490,
1.143690,-0.365130,
1.104420,-0.438560,
1.052180,-0.502180,
0.988560,-0.554420,
0.915130,-0.593690,
0.833490,-0.618410,
0.745200,-0.627000,
-0.745200,-0.627000,
-0.833490,-0.618410,
-0.915130,-0.593690,
-0.988560,-0.554420,
-1.052180,-0.502180,
-1.104420,-0.438560,
-1.143690,-0.365130,
-1.168410,-0.283490,
-1.177000,-0.195200,
-1.177000,0.195200,
-1.168410,0.283490,
-1.143690,0.365130,
-1.104420,0.438560,
-1.052180,0.502180,
-0.988560,0.554420,
-0.915130,0.593690,
-0.833490,0.618410,
-0.745200,0.627000,
0.745200,0.627000,
0.833490,0.618410,
0.915130,0.593690,
0.988560,0.554420,
1.052180,0.502180,
1.104420,0.438560,
1.143690,0.365130,
1.168410,0.283490,
1.177000,0.195200,
0*%
%ADD93PPAD083*%
%AMPPAD084*
4,1,36,
1.027000,0.195200,
1.027000,-0.195200,
1.018410,-0.283490,
0.993690,-0.365130,
0.954420,-0.438560,
0.902180,-0.502180,
0.838560,-0.554420,
0.765130,-0.593690,
0.683490,-0.618410,
0.595200,-0.627000,
-0.595200,-0.627000,
-0.683490,-0.618410,
-0.765130,-0.593690,
-0.838560,-0.554420,
-0.902180,-0.502180,
-0.954420,-0.438560,
-0.993690,-0.365130,
-1.018410,-0.283490,
-1.027000,-0.195200,
-1.027000,0.195200,
-1.018410,0.283490,
-0.993690,0.365130,
-0.954420,0.438560,
-0.902180,0.502180,
-0.838560,0.554420,
-0.765130,0.593690,
-0.683490,0.618410,
-0.595200,0.627000,
0.595200,0.627000,
0.683490,0.618410,
0.765130,0.593690,
0.838560,0.554420,
0.902180,0.502180,
0.954420,0.438560,
0.993690,0.365130,
1.018410,0.283490,
1.027000,0.195200,
0*%
%ADD94PPAD084*%
%AMPPAD085*
4,1,36,
0.702000,0.300000,
0.702000,-0.300000,
0.699470,-0.325970,
0.692200,-0.349980,
0.680650,-0.371580,
0.665290,-0.390290,
0.646570,-0.405650,
0.624980,-0.417200,
0.600970,-0.424470,
0.575000,-0.427000,
-0.575000,-0.427000,
-0.600970,-0.424470,
-0.624980,-0.417200,
-0.646570,-0.405650,
-0.665290,-0.390290,
-0.680650,-0.371580,
-0.692200,-0.349980,
-0.699470,-0.325970,
-0.702000,-0.300000,
-0.702000,0.300000,
-0.699470,0.325970,
-0.692200,0.349980,
-0.680650,0.371580,
-0.665290,0.390290,
-0.646570,0.405650,
-0.624980,0.417200,
-0.600970,0.424470,
-0.575000,0.427000,
0.575000,0.427000,
0.600970,0.424470,
0.624980,0.417200,
0.646570,0.405650,
0.665290,0.390290,
0.680650,0.371580,
0.692200,0.349980,
0.699470,0.325970,
0.702000,0.300000,
0*%
%ADD95PPAD085*%
%AMPPAD086*
4,1,36,
0.702000,0.150000,
0.702000,-0.150000,
0.699470,-0.175970,
0.692200,-0.199980,
0.680650,-0.221580,
0.665290,-0.240290,
0.646570,-0.255650,
0.624980,-0.267200,
0.600970,-0.274470,
0.575000,-0.277000,
-0.575000,-0.277000,
-0.600970,-0.274470,
-0.624980,-0.267200,
-0.646570,-0.255650,
-0.665290,-0.240290,
-0.680650,-0.221580,
-0.692200,-0.199980,
-0.699470,-0.175970,
-0.702000,-0.150000,
-0.702000,0.150000,
-0.699470,0.175970,
-0.692200,0.199980,
-0.680650,0.221580,
-0.665290,0.240290,
-0.646570,0.255650,
-0.624980,0.267200,
-0.600970,0.274470,
-0.575000,0.277000,
0.575000,0.277000,
0.600970,0.274470,
0.624980,0.267200,
0.646570,0.255650,
0.665290,0.240290,
0.680650,0.221580,
0.692200,0.199980,
0.699470,0.175970,
0.702000,0.150000,
0*%
%ADD96PPAD086*%
%AMPPAD087*
4,1,23,
0.547000,-0.277000,
-0.273090,-0.277000,
-0.297960,-0.275790,
-0.328480,-0.271300,
-0.377850,-0.256340,
-0.425470,-0.230880,
-0.466870,-0.196870,
-0.500880,-0.155470,
-0.526340,-0.107850,
-0.541300,-0.058480,
-0.545790,-0.027960,
-0.547150,0.000000,
-0.545790,0.027960,
-0.541300,0.058480,
-0.526340,0.107850,
-0.500880,0.155470,
-0.466870,0.196870,
-0.425470,0.230880,
-0.377850,0.256340,
-0.328480,0.271300,
-0.297960,0.275790,
-0.273090,0.277000,
0.547000,0.277000,
0.547000,-0.277000,
0*%
%ADD97PPAD087*%
%AMPPAD088*
4,1,23,
0.277000,0.547000,
0.277000,-0.273090,
0.275790,-0.297960,
0.271300,-0.328480,
0.256340,-0.377850,
0.230880,-0.425470,
0.196870,-0.466870,
0.155470,-0.500880,
0.107850,-0.526340,
0.058480,-0.541300,
0.027960,-0.545790,
0.000000,-0.547150,
-0.027960,-0.545790,
-0.058480,-0.541300,
-0.107850,-0.526340,
-0.155470,-0.500880,
-0.196870,-0.466870,
-0.230880,-0.425470,
-0.256340,-0.377850,
-0.271300,-0.328480,
-0.275790,-0.297960,
-0.277000,-0.273090,
-0.277000,0.547000,
0.277000,0.547000,
0*%
%ADD98PPAD088*%
%AMPPAD089*
4,1,23,
-0.547000,0.277000,
0.273090,0.277000,
0.297960,0.275790,
0.328480,0.271300,
0.377850,0.256340,
0.425470,0.230880,
0.466870,0.196870,
0.500880,0.155470,
0.526340,0.107850,
0.541300,0.058480,
0.545790,0.027960,
0.547150,0.000000,
0.545790,-0.027960,
0.541300,-0.058480,
0.526340,-0.107850,
0.500880,-0.155470,
0.466870,-0.196870,
0.425470,-0.230880,
0.377850,-0.256340,
0.328480,-0.271300,
0.297960,-0.275790,
0.273090,-0.277000,
-0.547000,-0.277000,
-0.547000,0.277000,
0*%
%ADD99PPAD089*%
%AMPPAD090*
4,1,23,
-0.277000,-0.547000,
-0.277000,0.273090,
-0.275790,0.297960,
-0.271300,0.328480,
-0.256340,0.377850,
-0.230880,0.425470,
-0.196870,0.466870,
-0.155470,0.500880,
-0.107850,0.526340,
-0.058480,0.541300,
-0.027960,0.545790,
0.000000,0.547150,
0.027960,0.545790,
0.058480,0.541300,
0.107850,0.526340,
0.155470,0.500880,
0.196870,0.466870,
0.230880,0.425470,
0.256340,0.377850,
0.271300,0.328480,
0.275790,0.297960,
0.277000,0.273090,
0.277000,-0.547000,
-0.277000,-0.547000,
0*%
%ADD100PPAD090*%
%AMPPAD091*
4,1,36,
1.300000,-1.427000,
-1.300000,-1.427000,
-1.325970,-1.424470,
-1.349980,-1.417200,
-1.371580,-1.405650,
-1.390290,-1.390290,
-1.405650,-1.371570,
-1.417200,-1.349980,
-1.424470,-1.325970,
-1.427000,-1.300000,
-1.427000,1.300000,
-1.424470,1.325970,
-1.417200,1.349980,
-1.405650,1.371570,
-1.390290,1.390290,
-1.371580,1.405650,
-1.349980,1.417200,
-1.325970,1.424470,
-1.300000,1.427000,
1.300000,1.427000,
1.325970,1.424470,
1.349980,1.417200,
1.371580,1.405650,
1.390290,1.390290,
1.405650,1.371570,
1.417200,1.349980,
1.424470,1.325970,
1.427000,1.300000,
1.427000,-1.300000,
1.424470,-1.325970,
1.417200,-1.349980,
1.405650,-1.371570,
1.390290,-1.390290,
1.371580,-1.405650,
1.349980,-1.417200,
1.325970,-1.424470,
1.300000,-1.427000,
0*%
%ADD101PPAD091*%
%AMPPAD092*
4,1,36,
-0.450000,0.527000,
0.450000,0.527000,
0.475970,0.524470,
0.499980,0.517200,
0.521580,0.505650,
0.540290,0.490290,
0.555650,0.471570,
0.567200,0.449980,
0.574470,0.425970,
0.577000,0.400000,
0.577000,-0.400000,
0.574470,-0.425970,
0.567200,-0.449980,
0.555650,-0.471570,
0.540290,-0.490290,
0.521580,-0.505650,
0.499980,-0.517200,
0.475970,-0.524470,
0.450000,-0.527000,
-0.450000,-0.527000,
-0.475970,-0.524470,
-0.499980,-0.517200,
-0.521580,-0.505650,
-0.540290,-0.490290,
-0.555650,-0.471570,
-0.567200,-0.449980,
-0.574470,-0.425970,
-0.577000,-0.400000,
-0.577000,0.400000,
-0.574470,0.425970,
-0.567200,0.449980,
-0.555650,0.471570,
-0.540290,0.490290,
-0.521580,0.505650,
-0.499980,0.517200,
-0.475970,0.524470,
-0.450000,0.527000,
0*%
%ADD102PPAD092*%
%AMPPAD093*
4,1,36,
-0.508000,0.762000,
0.508000,0.762000,
0.533970,0.759470,
0.557980,0.752200,
0.579580,0.740650,
0.598290,0.725290,
0.613650,0.706570,
0.625200,0.684980,
0.632470,0.660970,
0.635000,0.635000,
0.635000,-0.635000,
0.632470,-0.660970,
0.625200,-0.684980,
0.613650,-0.706570,
0.598290,-0.725290,
0.579580,-0.740650,
0.557980,-0.752200,
0.533970,-0.759470,
0.508000,-0.762000,
-0.508000,-0.762000,
-0.533970,-0.759470,
-0.557980,-0.752200,
-0.579580,-0.740650,
-0.598290,-0.725290,
-0.613650,-0.706570,
-0.625200,-0.684980,
-0.632470,-0.660970,
-0.635000,-0.635000,
-0.635000,0.635000,
-0.632470,0.660970,
-0.625200,0.684980,
-0.613650,0.706570,
-0.598290,0.725290,
-0.579580,0.740650,
-0.557980,0.752200,
-0.533970,0.759470,
-0.508000,0.762000,
0*%
%ADD103PPAD093*%
%AMPPAD094*
4,1,36,
0.635000,0.444500,
0.635000,-0.444500,
0.632470,-0.470470,
0.625200,-0.494480,
0.613650,-0.516080,
0.598290,-0.534790,
0.579570,-0.550150,
0.557980,-0.561700,
0.533970,-0.568970,
0.508000,-0.571500,
-0.508000,-0.571500,
-0.533970,-0.568970,
-0.557980,-0.561700,
-0.579570,-0.550150,
-0.598290,-0.534790,
-0.613650,-0.516080,
-0.625200,-0.494480,
-0.632470,-0.470470,
-0.635000,-0.444500,
-0.635000,0.444500,
-0.632470,0.470470,
-0.625200,0.494480,
-0.613650,0.516080,
-0.598290,0.534790,
-0.579570,0.550150,
-0.557980,0.561700,
-0.533970,0.568970,
-0.508000,0.571500,
0.508000,0.571500,
0.533970,0.568970,
0.557980,0.561700,
0.579570,0.550150,
0.598290,0.534790,
0.613650,0.516080,
0.625200,0.494480,
0.632470,0.470470,
0.635000,0.444500,
0*%
%ADD104PPAD094*%
%AMPPAD095*
4,1,48,
0.552000,0.023800,
0.552000,-0.023800,
0.550970,-0.044920,
0.547960,-0.065350,
0.543040,-0.085000,
0.527890,-0.121580,
0.506270,-0.153910,
0.478920,-0.181270,
0.446580,-0.202890,
0.410000,-0.218040,
0.390350,-0.222960,
0.369920,-0.225970,
0.348800,-0.227000,
-0.348800,-0.227000,
-0.369920,-0.225970,
-0.390350,-0.222960,
-0.410000,-0.218040,
-0.446580,-0.202890,
-0.478920,-0.181270,
-0.506270,-0.153910,
-0.527890,-0.121580,
-0.543040,-0.085000,
-0.547960,-0.065350,
-0.550970,-0.044920,
-0.552000,-0.023800,
-0.552000,0.023800,
-0.550970,0.044920,
-0.547960,0.065350,
-0.543040,0.085000,
-0.527890,0.121580,
-0.506270,0.153910,
-0.478920,0.181270,
-0.446580,0.202890,
-0.410000,0.218040,
-0.390350,0.222960,
-0.369920,0.225970,
-0.348800,0.227000,
0.348800,0.227000,
0.369920,0.225970,
0.390350,0.222960,
0.410000,0.218040,
0.446580,0.202890,
0.478920,0.181270,
0.506270,0.153910,
0.527890,0.121580,
0.543040,0.085000,
0.547960,0.065350,
0.550970,0.044920,
0.552000,0.023800,
0*%
%ADD105PPAD095*%
%AMPPAD096*
4,1,48,
-0.023800,0.552000,
0.023800,0.552000,
0.044920,0.550970,
0.065350,0.547960,
0.085000,0.543040,
0.121580,0.527890,
0.153910,0.506270,
0.181270,0.478920,
0.202890,0.446580,
0.218040,0.410000,
0.222960,0.390350,
0.225970,0.369920,
0.227000,0.348800,
0.227000,-0.348800,
0.225970,-0.369920,
0.222960,-0.390350,
0.218040,-0.410000,
0.202890,-0.446580,
0.181270,-0.478920,
0.153910,-0.506270,
0.121580,-0.527890,
0.085000,-0.543040,
0.065350,-0.547960,
0.044920,-0.550970,
0.023800,-0.552000,
-0.023800,-0.552000,
-0.044920,-0.550970,
-0.065350,-0.547960,
-0.085000,-0.543040,
-0.121580,-0.527890,
-0.153910,-0.506270,
-0.181270,-0.478920,
-0.202890,-0.446580,
-0.218040,-0.410000,
-0.222960,-0.390350,
-0.225970,-0.369920,
-0.227000,-0.348800,
-0.227000,0.348800,
-0.225970,0.369920,
-0.222960,0.390350,
-0.218040,0.410000,
-0.202890,0.446580,
-0.181270,0.478920,
-0.153910,0.506270,
-0.121580,0.527890,
-0.085000,0.543040,
-0.065350,0.547960,
-0.044920,0.550970,
-0.023800,0.552000,
0*%
%ADD106PPAD096*%
%AMPPAD097*
4,1,44,
-0.746000,1.127000,
0.746000,1.127000,
0.785600,1.125080,
0.823900,1.119420,
0.895940,1.097610,
0.960730,1.062960,
1.016870,1.016870,
1.062960,0.960730,
1.097610,0.895940,
1.119420,0.823900,
1.125080,0.785600,
1.127000,0.746000,
1.127000,-0.746000,
1.125080,-0.785600,
1.119420,-0.823900,
1.097610,-0.895940,
1.062960,-0.960730,
1.016870,-1.016870,
0.960730,-1.062960,
0.895940,-1.097610,
0.823900,-1.119420,
0.785600,-1.125080,
0.746000,-1.127000,
-0.746000,-1.127000,
-0.785600,-1.125080,
-0.823900,-1.119420,
-0.895940,-1.097610,
-0.960730,-1.062960,
-1.016870,-1.016870,
-1.062960,-0.960730,
-1.097610,-0.895940,
-1.119420,-0.823900,
-1.125080,-0.785600,
-1.127000,-0.746000,
-1.127000,0.746000,
-1.125080,0.785600,
-1.119420,0.823900,
-1.097610,0.895940,
-1.062960,0.960730,
-1.016870,1.016870,
-0.960730,1.062960,
-0.895940,1.097610,
-0.823900,1.119420,
-0.785600,1.125080,
-0.746000,1.127000,
0*%
%ADD107PPAD097*%
%AMPPAD098*
4,1,36,
-0.390000,0.517000,
0.390000,0.517000,
0.415970,0.514470,
0.439980,0.507200,
0.461580,0.495650,
0.480290,0.480290,
0.495650,0.461570,
0.507200,0.439980,
0.514470,0.415970,
0.517000,0.390000,
0.517000,-0.390000,
0.514470,-0.415970,
0.507200,-0.439980,
0.495650,-0.461570,
0.480290,-0.480290,
0.461580,-0.495650,
0.439980,-0.507200,
0.415970,-0.514470,
0.390000,-0.517000,
-0.390000,-0.517000,
-0.415970,-0.514470,
-0.439980,-0.507200,
-0.461580,-0.495650,
-0.480290,-0.480290,
-0.495650,-0.461570,
-0.507200,-0.439980,
-0.514470,-0.415970,
-0.517000,-0.390000,
-0.517000,0.390000,
-0.514470,0.415970,
-0.507200,0.439980,
-0.495650,0.461570,
-0.480290,0.480290,
-0.461580,0.495650,
-0.439980,0.507200,
-0.415970,0.514470,
-0.390000,0.517000,
0*%
%ADD108PPAD098*%
%AMPPAD099*
4,1,36,
0.863600,0.317500,
0.863600,-0.317500,
0.861070,-0.343470,
0.853800,-0.367480,
0.842250,-0.389080,
0.826890,-0.407790,
0.808170,-0.423150,
0.786580,-0.434700,
0.762570,-0.441970,
0.736600,-0.444500,
-0.736600,-0.444500,
-0.762570,-0.441970,
-0.786580,-0.434700,
-0.808170,-0.423150,
-0.826890,-0.407790,
-0.842250,-0.389080,
-0.853800,-0.367480,
-0.861070,-0.343470,
-0.863600,-0.317500,
-0.863600,0.317500,
-0.861070,0.343470,
-0.853800,0.367480,
-0.842250,0.389080,
-0.826890,0.407790,
-0.808170,0.423150,
-0.786580,0.434700,
-0.762570,0.441970,
-0.736600,0.444500,
0.736600,0.444500,
0.762570,0.441970,
0.786580,0.434700,
0.808170,0.423150,
0.826890,0.407790,
0.842250,0.389080,
0.853800,0.367480,
0.861070,0.343470,
0.863600,0.317500,
0*%
%ADD109PPAD099*%
%AMPPAD100*
4,1,36,
0.355600,-0.622300,
-0.355600,-0.622300,
-0.381570,-0.619770,
-0.405580,-0.612500,
-0.427180,-0.600950,
-0.445890,-0.585590,
-0.461250,-0.566870,
-0.472800,-0.545280,
-0.480070,-0.521270,
-0.482600,-0.495300,
-0.482600,0.495300,
-0.480070,0.521270,
-0.472800,0.545280,
-0.461250,0.566870,
-0.445890,0.585590,
-0.427180,0.600950,
-0.405580,0.612500,
-0.381570,0.619770,
-0.355600,0.622300,
0.355600,0.622300,
0.381570,0.619770,
0.405580,0.612500,
0.427180,0.600950,
0.445890,0.585590,
0.461250,0.566870,
0.472800,0.545280,
0.480070,0.521270,
0.482600,0.495300,
0.482600,-0.495300,
0.480070,-0.521270,
0.472800,-0.545280,
0.461250,-0.566870,
0.445890,-0.585590,
0.427180,-0.600950,
0.405580,-0.612500,
0.381570,-0.619770,
0.355600,-0.622300,
0*%
%ADD110PPAD100*%
%AMPPAD101*
4,1,36,
0.302000,0.090000,
0.302000,-0.090000,
0.299470,-0.115970,
0.292200,-0.139980,
0.280650,-0.161580,
0.265290,-0.180290,
0.246570,-0.195650,
0.224980,-0.207200,
0.200970,-0.214470,
0.175000,-0.217000,
-0.175000,-0.217000,
-0.200970,-0.214470,
-0.224980,-0.207200,
-0.246570,-0.195650,
-0.265290,-0.180290,
-0.280650,-0.161580,
-0.292200,-0.139980,
-0.299470,-0.115970,
-0.302000,-0.090000,
-0.302000,0.090000,
-0.299470,0.115970,
-0.292200,0.139980,
-0.280650,0.161580,
-0.265290,0.180290,
-0.246570,0.195650,
-0.224980,0.207200,
-0.200970,0.214470,
-0.175000,0.217000,
0.175000,0.217000,
0.200970,0.214470,
0.224980,0.207200,
0.246570,0.195650,
0.265290,0.180290,
0.280650,0.161580,
0.292200,0.139980,
0.299470,0.115970,
0.302000,0.090000,
0*%
%ADD111PPAD101*%
%AMPPAD102*
4,1,36,
0.277000,0.470000,
0.277000,-0.470000,
0.274470,-0.495970,
0.267200,-0.519980,
0.255650,-0.541580,
0.240290,-0.560290,
0.221570,-0.575650,
0.199980,-0.587200,
0.175970,-0.594470,
0.150000,-0.597000,
-0.150000,-0.597000,
-0.175970,-0.594470,
-0.199980,-0.587200,
-0.221570,-0.575650,
-0.240290,-0.560290,
-0.255650,-0.541580,
-0.267200,-0.519980,
-0.274470,-0.495970,
-0.277000,-0.470000,
-0.277000,0.470000,
-0.274470,0.495970,
-0.267200,0.519980,
-0.255650,0.541580,
-0.240290,0.560290,
-0.221570,0.575650,
-0.199980,0.587200,
-0.175970,0.594470,
-0.150000,0.597000,
0.150000,0.597000,
0.175970,0.594470,
0.199980,0.587200,
0.221570,0.575650,
0.240290,0.560290,
0.255650,0.541580,
0.267200,0.519980,
0.274470,0.495970,
0.277000,0.470000,
0*%
%ADD112PPAD102*%
%AMPPAD103*
4,1,36,
0.444500,-0.825500,
-0.444500,-0.825500,
-0.470470,-0.822970,
-0.494480,-0.815700,
-0.516080,-0.804150,
-0.534790,-0.788790,
-0.550150,-0.770070,
-0.561700,-0.748480,
-0.568970,-0.724470,
-0.571500,-0.698500,
-0.571500,0.698500,
-0.568970,0.724470,
-0.561700,0.748480,
-0.550150,0.770070,
-0.534790,0.788790,
-0.516080,0.804150,
-0.494480,0.815700,
-0.470470,0.822970,
-0.444500,0.825500,
0.444500,0.825500,
0.470470,0.822970,
0.494480,0.815700,
0.516080,0.804150,
0.534790,0.788790,
0.550150,0.770070,
0.561700,0.748480,
0.568970,0.724470,
0.571500,0.698500,
0.571500,-0.698500,
0.568970,-0.724470,
0.561700,-0.748480,
0.550150,-0.770070,
0.534790,-0.788790,
0.516080,-0.804150,
0.494480,-0.815700,
0.470470,-0.822970,
0.444500,-0.825500,
0*%
%ADD113PPAD103*%
%AMPPAD104*
4,1,36,
0.090000,-0.302000,
-0.090000,-0.302000,
-0.115970,-0.299470,
-0.139980,-0.292200,
-0.161580,-0.280650,
-0.180290,-0.265290,
-0.195650,-0.246570,
-0.207200,-0.224980,
-0.214470,-0.200970,
-0.217000,-0.175000,
-0.217000,0.175000,
-0.214470,0.200970,
-0.207200,0.224980,
-0.195650,0.246570,
-0.180290,0.265290,
-0.161580,0.280650,
-0.139980,0.292200,
-0.115970,0.299470,
-0.090000,0.302000,
0.090000,0.302000,
0.115970,0.299470,
0.139980,0.292200,
0.161580,0.280650,
0.180290,0.265290,
0.195650,0.246570,
0.207200,0.224980,
0.214470,0.200970,
0.217000,0.175000,
0.217000,-0.175000,
0.214470,-0.200970,
0.207200,-0.224980,
0.195650,-0.246570,
0.180290,-0.265290,
0.161580,-0.280650,
0.139980,-0.292200,
0.115970,-0.299470,
0.090000,-0.302000,
0*%
%ADD114PPAD104*%
%AMPPAD105*
4,1,36,
0.470000,-0.277000,
-0.470000,-0.277000,
-0.495970,-0.274470,
-0.519980,-0.267200,
-0.541580,-0.255650,
-0.560290,-0.240290,
-0.575650,-0.221570,
-0.587200,-0.199980,
-0.594470,-0.175970,
-0.597000,-0.150000,
-0.597000,0.150000,
-0.594470,0.175970,
-0.587200,0.199980,
-0.575650,0.221570,
-0.560290,0.240290,
-0.541580,0.255650,
-0.519980,0.267200,
-0.495970,0.274470,
-0.470000,0.277000,
0.470000,0.277000,
0.495970,0.274470,
0.519980,0.267200,
0.541580,0.255650,
0.560290,0.240290,
0.575650,0.221570,
0.587200,0.199980,
0.594470,0.175970,
0.597000,0.150000,
0.597000,-0.150000,
0.594470,-0.175970,
0.587200,-0.199980,
0.575650,-0.221570,
0.560290,-0.240290,
0.541580,-0.255650,
0.519980,-0.267200,
0.495970,-0.274470,
0.470000,-0.277000,
0*%
%ADD115PPAD105*%
%AMPPAD106*
4,1,36,
-0.825500,-0.444500,
-0.825500,0.444500,
-0.822970,0.470470,
-0.815700,0.494480,
-0.804150,0.516080,
-0.788790,0.534790,
-0.770070,0.550150,
-0.748480,0.561700,
-0.724470,0.568970,
-0.698500,0.571500,
0.698500,0.571500,
0.724470,0.568970,
0.748480,0.561700,
0.770070,0.550150,
0.788790,0.534790,
0.804150,0.516080,
0.815700,0.494480,
0.822970,0.470470,
0.825500,0.444500,
0.825500,-0.444500,
0.822970,-0.470470,
0.815700,-0.494480,
0.804150,-0.516080,
0.788790,-0.534790,
0.770070,-0.550150,
0.748480,-0.561700,
0.724470,-0.568970,
0.698500,-0.571500,
-0.698500,-0.571500,
-0.724470,-0.568970,
-0.748480,-0.561700,
-0.770070,-0.550150,
-0.788790,-0.534790,
-0.804150,-0.516080,
-0.815700,-0.494480,
-0.822970,-0.470470,
-0.825500,-0.444500,
0*%
%ADD116PPAD106*%
%AMPPAD107*
4,1,36,
0.900000,-1.077000,
-0.900000,-1.077000,
-0.925970,-1.074470,
-0.949980,-1.067200,
-0.971580,-1.055650,
-0.990290,-1.040290,
-1.005650,-1.021570,
-1.017200,-0.999980,
-1.024470,-0.975970,
-1.027000,-0.950000,
-1.027000,0.950000,
-1.024470,0.975970,
-1.017200,0.999980,
-1.005650,1.021570,
-0.990290,1.040290,
-0.971580,1.055650,
-0.949980,1.067200,
-0.925970,1.074470,
-0.900000,1.077000,
0.900000,1.077000,
0.925970,1.074470,
0.949980,1.067200,
0.971580,1.055650,
0.990290,1.040290,
1.005650,1.021570,
1.017200,0.999980,
1.024470,0.975970,
1.027000,0.950000,
1.027000,-0.950000,
1.024470,-0.975970,
1.017200,-0.999980,
1.005650,-1.021570,
0.990290,-1.040290,
0.971580,-1.055650,
0.949980,-1.067200,
0.925970,-1.074470,
0.900000,-1.077000,
0*%
%ADD117PPAD107*%
%AMPPAD108*
4,1,36,
-0.462000,-0.150000,
-0.462000,0.150000,
-0.459470,0.175970,
-0.452200,0.199980,
-0.440650,0.221580,
-0.425290,0.240290,
-0.406570,0.255650,
-0.384980,0.267200,
-0.360970,0.274470,
-0.335000,0.277000,
0.335000,0.277000,
0.360970,0.274470,
0.384980,0.267200,
0.406570,0.255650,
0.425290,0.240290,
0.440650,0.221580,
0.452200,0.199980,
0.459470,0.175970,
0.462000,0.150000,
0.462000,-0.150000,
0.459470,-0.175970,
0.452200,-0.199980,
0.440650,-0.221580,
0.425290,-0.240290,
0.406570,-0.255650,
0.384980,-0.267200,
0.360970,-0.274470,
0.335000,-0.277000,
-0.335000,-0.277000,
-0.360970,-0.274470,
-0.384980,-0.267200,
-0.406570,-0.255650,
-0.425290,-0.240290,
-0.440650,-0.221580,
-0.452200,-0.199980,
-0.459470,-0.175970,
-0.462000,-0.150000,
0*%
%ADD118PPAD108*%
%AMPPAD109*
4,1,36,
0.750000,-1.877000,
-0.750000,-1.877000,
-0.775970,-1.874470,
-0.799980,-1.867200,
-0.821580,-1.855650,
-0.840290,-1.840290,
-0.855650,-1.821570,
-0.867200,-1.799980,
-0.874470,-1.775970,
-0.877000,-1.750000,
-0.877000,1.750000,
-0.874470,1.775970,
-0.867200,1.799980,
-0.855650,1.821570,
-0.840290,1.840290,
-0.821580,1.855650,
-0.799980,1.867200,
-0.775970,1.874470,
-0.750000,1.877000,
0.750000,1.877000,
0.775970,1.874470,
0.799980,1.867200,
0.821580,1.855650,
0.840290,1.840290,
0.855650,1.821570,
0.867200,1.799980,
0.874470,1.775970,
0.877000,1.750000,
0.877000,-1.750000,
0.874470,-1.775970,
0.867200,-1.799980,
0.855650,-1.821570,
0.840290,-1.840290,
0.821580,-1.855650,
0.799980,-1.867200,
0.775970,-1.874470,
0.750000,-1.877000,
0*%
%ADD119PPAD109*%
%AMPPAD110*
4,1,36,
0.900000,-0.577000,
-0.900000,-0.577000,
-0.925970,-0.574470,
-0.949980,-0.567200,
-0.971580,-0.555650,
-0.990290,-0.540290,
-1.005650,-0.521570,
-1.017200,-0.499980,
-1.024470,-0.475970,
-1.027000,-0.450000,
-1.027000,0.450000,
-1.024470,0.475970,
-1.017200,0.499980,
-1.005650,0.521570,
-0.990290,0.540290,
-0.971580,0.555650,
-0.949980,0.567200,
-0.925970,0.574470,
-0.900000,0.577000,
0.900000,0.577000,
0.925970,0.574470,
0.949980,0.567200,
0.971580,0.555650,
0.990290,0.540290,
1.005650,0.521570,
1.017200,0.499980,
1.024470,0.475970,
1.027000,0.450000,
1.027000,-0.450000,
1.024470,-0.475970,
1.017200,-0.499980,
1.005650,-0.521570,
0.990290,-0.540290,
0.971580,-0.555650,
0.949980,-0.567200,
0.925970,-0.574470,
0.900000,-0.577000,
0*%
%ADD120PPAD110*%
%AMPPAD111*
4,1,36,
0.577000,0.900000,
0.577000,-0.900000,
0.574470,-0.925970,
0.567200,-0.949980,
0.555650,-0.971580,
0.540290,-0.990290,
0.521570,-1.005650,
0.499980,-1.017200,
0.475970,-1.024470,
0.450000,-1.027000,
-0.450000,-1.027000,
-0.475970,-1.024470,
-0.499980,-1.017200,
-0.521570,-1.005650,
-0.540290,-0.990290,
-0.555650,-0.971580,
-0.567200,-0.949980,
-0.574470,-0.925970,
-0.577000,-0.900000,
-0.577000,0.900000,
-0.574470,0.925970,
-0.567200,0.949980,
-0.555650,0.971580,
-0.540290,0.990290,
-0.521570,1.005650,
-0.499980,1.017200,
-0.475970,1.024470,
-0.450000,1.027000,
0.450000,1.027000,
0.475970,1.024470,
0.499980,1.017200,
0.521570,1.005650,
0.540290,0.990290,
0.555650,0.971580,
0.567200,0.949980,
0.574470,0.925970,
0.577000,0.900000,
0*%
%ADD121PPAD111*%
%AMPPAD112*
4,1,36,
-1.127000,-0.600000,
-1.127000,0.600000,
-1.124470,0.625970,
-1.117200,0.649980,
-1.105650,0.671580,
-1.090290,0.690290,
-1.071570,0.705650,
-1.049980,0.717200,
-1.025970,0.724470,
-1.000000,0.727000,
1.000000,0.727000,
1.025970,0.724470,
1.049980,0.717200,
1.071570,0.705650,
1.090290,0.690290,
1.105650,0.671580,
1.117200,0.649980,
1.124470,0.625970,
1.127000,0.600000,
1.127000,-0.600000,
1.124470,-0.625970,
1.117200,-0.649980,
1.105650,-0.671580,
1.090290,-0.690290,
1.071570,-0.705650,
1.049980,-0.717200,
1.025970,-0.724470,
1.000000,-0.727000,
-1.000000,-0.727000,
-1.025970,-0.724470,
-1.049980,-0.717200,
-1.071570,-0.705650,
-1.090290,-0.690290,
-1.105650,-0.671580,
-1.117200,-0.649980,
-1.124470,-0.625970,
-1.127000,-0.600000,
0*%
%ADD122PPAD112*%
%AMPPAD113*
4,1,36,
-0.902000,-0.300000,
-0.902000,0.300000,
-0.899470,0.325970,
-0.892200,0.349980,
-0.880650,0.371580,
-0.865290,0.390290,
-0.846570,0.405650,
-0.824980,0.417200,
-0.800970,0.424470,
-0.775000,0.427000,
0.775000,0.427000,
0.800970,0.424470,
0.824980,0.417200,
0.846570,0.405650,
0.865290,0.390290,
0.880650,0.371580,
0.892200,0.349980,
0.899470,0.325970,
0.902000,0.300000,
0.902000,-0.300000,
0.899470,-0.325970,
0.892200,-0.349980,
0.880650,-0.371580,
0.865290,-0.390290,
0.846570,-0.405650,
0.824980,-0.417200,
0.800970,-0.424470,
0.775000,-0.427000,
-0.775000,-0.427000,
-0.800970,-0.424470,
-0.824980,-0.417200,
-0.846570,-0.405650,
-0.865290,-0.390290,
-0.880650,-0.371580,
-0.892200,-0.349980,
-0.899470,-0.325970,
-0.902000,-0.300000,
0*%
%ADD123PPAD113*%
%ADD65C,0.025400*%
D68*
X+466300Y+3864350D03*
X+466300Y+4324350D03*
X+241300Y+4324350D03*
X+241300Y+3864350D03*
X+466300Y+4670800D03*
X+466300Y+5130800D03*
X+241300Y+5130800D03*
X+241300Y+4670800D03*
D69*
X+241300Y+368200D03*
X+241300Y+203200D03*
D74*
X+318250Y+1866700D03*
D75*
X+387350Y+716200D03*
X+387350Y+876200D03*
X+387350Y+368200D03*
X+387350Y+208200D03*
D69*
X+241300Y+876200D03*
X+241300Y+711200D03*
D76*
X+1080400Y+2692200D03*
X+920400Y+2692200D03*
D75*
X+387350Y+1224200D03*
X+387350Y+1384200D03*
D77*
X+1130300Y+203200D03*
D78*
X+1130300Y+330200D03*
X+1003300Y+203200D03*
X+1003300Y+330200D03*
X+876300Y+203200D03*
X+876300Y+330200D03*
X+749300Y+203200D03*
X+749300Y+330200D03*
D79*
X+4864100Y+508000D03*
D80*
X+5118100Y+508000D03*
X+5372100Y+508000D03*
X+5626100Y+508000D03*
X+5880100Y+508000D03*
X+6134100Y+508000D03*
X+6388100Y+508000D03*
D79*
X+4864100Y+254000D03*
D80*
X+5118100Y+254000D03*
X+5372100Y+254000D03*
X+5626100Y+254000D03*
X+5880100Y+254000D03*
X+6134100Y+254000D03*
X+6388100Y+254000D03*
D79*
X+2324100Y+508000D03*
D80*
X+2578100Y+508000D03*
X+2832100Y+508000D03*
X+3086100Y+508000D03*
X+3340100Y+508000D03*
X+3594100Y+508000D03*
X+3848100Y+508000D03*
X+4102100Y+508000D03*
X+4356100Y+508000D03*
X+4610100Y+508000D03*
D79*
X+2324100Y+254000D03*
D80*
X+2578100Y+254000D03*
X+2832100Y+254000D03*
X+3086100Y+254000D03*
X+3340100Y+254000D03*
X+3594100Y+254000D03*
X+3848100Y+254000D03*
X+4102100Y+254000D03*
X+4356100Y+254000D03*
X+4610100Y+254000D03*
D79*
X+1917700Y+5080000D03*
D80*
X+2171700Y+5080000D03*
X+2425700Y+5080000D03*
X+2679700Y+5080000D03*
X+2933700Y+5080000D03*
X+3187700Y+5080000D03*
X+3441700Y+5080000D03*
X+3695700Y+5080000D03*
X+3949700Y+5080000D03*
X+4203700Y+5080000D03*
D79*
X+1917700Y+4826000D03*
D80*
X+2171700Y+4826000D03*
X+2425700Y+4826000D03*
X+2679700Y+4826000D03*
X+2933700Y+4826000D03*
X+3187700Y+4826000D03*
X+3441700Y+4826000D03*
X+3695700Y+4826000D03*
X+3949700Y+4826000D03*
X+4203700Y+4826000D03*
D79*
X+4610100Y+5080000D03*
D80*
X+4864100Y+5080000D03*
X+5118100Y+5080000D03*
X+5372100Y+5080000D03*
X+5626100Y+5080000D03*
X+5880100Y+5080000D03*
X+6134100Y+5080000D03*
X+6388100Y+5080000D03*
D69*
X+241300Y+1384200D03*
X+241300Y+1219200D03*
D81*
X+5836500Y+3800600D03*
D82*
X+5461000Y+4864100D03*
D83*
X+5722000Y+4864100D03*
D84*
X+5393500Y+4117100D03*
X+5393500Y+4536100D03*
D82*
X+5518000Y+3800600D03*
D85*
X+6117000Y+4688100D03*
X+6117000Y+4578100D03*
X+6117000Y+4468100D03*
X+6117000Y+4358100D03*
X+6117000Y+4248100D03*
X+6117000Y+4138100D03*
X+6117000Y+4028100D03*
X+6117000Y+3918100D03*
D86*
X+5849000Y+4864100D03*
D87*
X+3584400Y+3042400D03*
X+3584400Y+2992400D03*
X+3584400Y+2942400D03*
X+3584400Y+2892400D03*
X+3584400Y+2842400D03*
X+3584400Y+2792400D03*
X+3584400Y+2742400D03*
X+3584400Y+2692400D03*
X+3584400Y+2642400D03*
X+3584400Y+2592400D03*
X+3584400Y+2542400D03*
X+3584400Y+2492400D03*
X+3584400Y+2442400D03*
X+3584400Y+2392400D03*
X+3584400Y+2342400D03*
X+3584400Y+2292400D03*
D88*
X+3779400Y+2097400D03*
X+3829400Y+2097400D03*
X+3879400Y+2097400D03*
X+3929400Y+2097400D03*
X+3979400Y+2097400D03*
X+4029400Y+2097400D03*
X+4079400Y+2097400D03*
X+4129400Y+2097400D03*
X+4179400Y+2097400D03*
X+4229400Y+2097400D03*
X+4279400Y+2097400D03*
X+4329400Y+2097400D03*
X+4379400Y+2097400D03*
X+4429400Y+2097400D03*
X+4479400Y+2097400D03*
X+4529400Y+2097400D03*
D87*
X+4724400Y+2292400D03*
X+4724400Y+2342400D03*
X+4724400Y+2392400D03*
X+4724400Y+2442400D03*
X+4724400Y+2492400D03*
X+4724400Y+2542400D03*
X+4724400Y+2592400D03*
X+4724400Y+2642400D03*
X+4724400Y+2692400D03*
X+4724400Y+2742400D03*
X+4724400Y+2792400D03*
X+4724400Y+2842400D03*
X+4724400Y+2892400D03*
X+4724400Y+2942400D03*
X+4724400Y+2992400D03*
X+4724400Y+3042400D03*
D88*
X+4529400Y+3237400D03*
X+4479400Y+3237400D03*
X+4429400Y+3237400D03*
X+4379400Y+3237400D03*
X+4329400Y+3237400D03*
X+4279400Y+3237400D03*
X+4229400Y+3237400D03*
X+4179400Y+3237400D03*
X+4129400Y+3237400D03*
X+4079400Y+3237400D03*
X+4029400Y+3237400D03*
X+3979400Y+3237400D03*
X+3929400Y+3237400D03*
X+3879400Y+3237400D03*
X+3829400Y+3237400D03*
X+3779400Y+3237400D03*
D89*
X+2065725Y+676600D03*
X+2015725Y+676600D03*
X+1965725Y+676600D03*
X+1915725Y+676600D03*
X+1915725Y+360600D03*
X+1965725Y+360600D03*
X+2015725Y+360600D03*
X+2065725Y+360600D03*
D79*
X+4610100Y+4826000D03*
D80*
X+4864100Y+4826000D03*
X+5118100Y+4826000D03*
D75*
X+4294500Y+3472350D03*
X+4294500Y+3632350D03*
X+4129400Y+3472350D03*
X+4129400Y+3632350D03*
X+3779400Y+3472350D03*
X+3779400Y+3632350D03*
D76*
X+3362150Y+2842400D03*
X+3202150Y+2842400D03*
D75*
X+3779400Y+1875150D03*
X+3779400Y+1715150D03*
X+4060350Y+1875150D03*
X+4060350Y+1715150D03*
D76*
X+4946650Y+2592400D03*
X+5106650Y+2592400D03*
X+1767450Y+3644700D03*
X+1607450Y+3644700D03*
D90*
X+4403250Y+1862450D03*
X+4403250Y+1232450D03*
X+4493250Y+1232450D03*
X+4493250Y+1862450D03*
D75*
X+4244500Y+1715150D03*
X+4244500Y+1875150D03*
X+4653440Y+1715150D03*
X+4653440Y+1875150D03*
D76*
X+1456300Y+2984300D03*
X+1296300Y+2984300D03*
X+1080400Y+2527100D03*
X+920400Y+2527100D03*
X+2020200Y+2857300D03*
X+2180200Y+2857300D03*
D75*
X+5264150Y+3962400D03*
X+5264150Y+3802400D03*
D91*
X+6294800Y+4863850D03*
X+6294800Y+4578100D03*
D76*
X+2071350Y+208200D03*
X+1911350Y+208200D03*
X+2074525Y+827325D03*
X+1914525Y+827325D03*
D92*
X+495750Y+2593500D03*
X+495750Y+3171500D03*
D93*
X+545750Y+2450500D03*
X+545750Y+3314500D03*
D94*
X+127750Y+2450500D03*
X+127750Y+3314500D03*
D95*
X+603250Y+3202500D03*
X+603250Y+3122500D03*
D96*
X+603250Y+3007500D03*
X+603250Y+2907500D03*
X+603250Y+2857500D03*
X+603250Y+2757500D03*
D95*
X+603250Y+2562500D03*
X+603250Y+2642500D03*
D96*
X+603250Y+2707500D03*
X+603250Y+2807500D03*
X+603250Y+2957500D03*
X+603250Y+3057500D03*
D97*
X+2027950Y+3164500D03*
X+2027950Y+3214500D03*
X+2027950Y+3264500D03*
X+2027950Y+3314500D03*
X+2027950Y+3364500D03*
X+2027950Y+3414500D03*
D98*
X+1957950Y+3484500D03*
X+1907950Y+3484500D03*
X+1857950Y+3484500D03*
X+1807950Y+3484500D03*
X+1757950Y+3484500D03*
X+1707950Y+3484500D03*
D99*
X+1637950Y+3414500D03*
X+1637950Y+3364500D03*
X+1637950Y+3314500D03*
X+1637950Y+3264500D03*
X+1637950Y+3214500D03*
X+1637950Y+3164500D03*
D100*
X+1707950Y+3094500D03*
X+1757950Y+3094500D03*
X+1807950Y+3094500D03*
X+1857950Y+3094500D03*
X+1907950Y+3094500D03*
X+1957950Y+3094500D03*
D101*
X+1832950Y+3289500D03*
D102*
X+1721750Y+2692200D03*
X+1881750Y+2692200D03*
X+1881750Y+2822200D03*
X+1721750Y+2822200D03*
D76*
X+920400Y+3314500D03*
X+1080400Y+3314500D03*
X+1080400Y+3644700D03*
X+920400Y+3644700D03*
X+920400Y+3479600D03*
X+1080400Y+3479600D03*
D103*
X+908970Y+3135430D03*
D104*
X+908970Y+2955090D03*
X+1091850Y+2955090D03*
X+1091850Y+3155750D03*
D76*
X+1296300Y+3314500D03*
X+1456300Y+3314500D03*
X+1296300Y+3644700D03*
X+1456300Y+3644700D03*
X+1456300Y+3149400D03*
X+1296300Y+3149400D03*
X+1296300Y+3479600D03*
X+1456300Y+3479600D03*
X+1456300Y+2692200D03*
X+1296300Y+2692200D03*
X+2020200Y+2692200D03*
X+2180200Y+2692200D03*
D75*
X+2364350Y+2857300D03*
X+2364350Y+2697300D03*
D76*
X+2211950Y+3022400D03*
X+2371950Y+3022400D03*
X+1919850Y+3644700D03*
X+2079850Y+3644700D03*
D69*
X+749300Y+4176900D03*
X+749300Y+4011900D03*
D75*
X+895350Y+4016900D03*
X+895350Y+4176900D03*
D69*
X+749300Y+4983350D03*
X+749300Y+4818350D03*
D75*
X+895350Y+4823350D03*
X+895350Y+4983350D03*
D105*
X+1525500Y+2248900D03*
X+1525500Y+2208900D03*
X+1525500Y+2168900D03*
X+1525500Y+2128900D03*
X+1525500Y+2088900D03*
X+1525500Y+2048900D03*
X+1525500Y+2008900D03*
D106*
X+1600500Y+1933900D03*
X+1640500Y+1933900D03*
X+1680500Y+1933900D03*
X+1720500Y+1933900D03*
X+1760500Y+1933900D03*
X+1800500Y+1933900D03*
X+1840500Y+1933900D03*
D105*
X+1915500Y+2008900D03*
X+1915500Y+2048900D03*
X+1915500Y+2088900D03*
X+1915500Y+2128900D03*
X+1915500Y+2168900D03*
X+1915500Y+2208900D03*
X+1915500Y+2248900D03*
D106*
X+1840500Y+2323900D03*
X+1800500Y+2323900D03*
X+1760500Y+2323900D03*
X+1720500Y+2323900D03*
X+1680500Y+2323900D03*
X+1640500Y+2323900D03*
X+1600500Y+2323900D03*
D107*
X+1720500Y+2128900D03*
D108*
X+1525500Y+2323900D03*
X+1525500Y+1933900D03*
X+1915500Y+1933900D03*
X+1915500Y+2323900D03*
D76*
X+1720500Y+2527100D03*
X+1880500Y+2527100D03*
X+2204350Y+2525850D03*
X+2364350Y+2525850D03*
D109*
X+6502400Y+2738400D03*
X+6502400Y+2865400D03*
X+6502400Y+2992400D03*
X+6502400Y+3119400D03*
X+5784850Y+3119400D03*
X+5962400Y+3119400D03*
X+5784850Y+2992400D03*
X+5962400Y+2992400D03*
X+5962400Y+2865400D03*
X+5784850Y+2865400D03*
X+5962400Y+2738400D03*
X+5784850Y+2738400D03*
X+6502400Y+2103400D03*
X+6502400Y+2230400D03*
X+6502400Y+2357400D03*
X+6502400Y+2484400D03*
X+5784850Y+2484400D03*
X+5962400Y+2484400D03*
X+5784850Y+2357400D03*
X+5962400Y+2357400D03*
X+5962400Y+2230400D03*
X+5784850Y+2230400D03*
X+5962400Y+2103400D03*
X+5784850Y+2103400D03*
D76*
X+1456300Y+2527100D03*
X+1296300Y+2527100D03*
X+2204350Y+2144850D03*
X+2364350Y+2144850D03*
X+2204350Y+1979750D03*
X+2364350Y+1979750D03*
X+1456300Y+1719717D03*
X+1296300Y+1719717D03*
X+2364350Y+1719400D03*
X+2204350Y+1719400D03*
X+1680500Y+1719717D03*
X+1840500Y+1719717D03*
D110*
X+910220Y+1280297D03*
X+1100720Y+1280297D03*
X+1004200Y+1541917D03*
D75*
X+1296300Y+2089267D03*
X+1296300Y+1929267D03*
X+910220Y+1121547D03*
X+910220Y+961547D03*
X+1100720Y+961547D03*
X+1100720Y+1121547D03*
D91*
X+6680200Y+2738400D03*
X+6680200Y+2103400D03*
D76*
X+5613400Y+2103400D03*
X+5453400Y+2103400D03*
X+5613400Y+2738400D03*
X+5453400Y+2738400D03*
D111*
X+946700Y+1969267D03*
X+946700Y+1956567D03*
X+946700Y+1916567D03*
X+946700Y+1876567D03*
X+946700Y+1863867D03*
X+1061700Y+1876567D03*
X+1061700Y+1863867D03*
X+1061700Y+1916567D03*
X+1061700Y+1969267D03*
X+1061700Y+1956567D03*
D112*
X+1004200Y+1916567D03*
D76*
X+920400Y+2100717D03*
X+1080400Y+2100717D03*
D113*
X+1112150Y+1719717D03*
X+898790Y+1719717D03*
D114*
X+3459000Y+1855200D03*
X+3446300Y+1855200D03*
X+3406300Y+1855200D03*
X+3366300Y+1855200D03*
X+3353600Y+1855200D03*
X+3366300Y+1740200D03*
X+3353600Y+1740200D03*
X+3406300Y+1740200D03*
X+3459000Y+1740200D03*
X+3446300Y+1740200D03*
D115*
X+3406300Y+1797700D03*
D114*
X+3459000Y+1486550D03*
X+3446300Y+1486550D03*
X+3406300Y+1486550D03*
X+3366300Y+1486550D03*
X+3353600Y+1486550D03*
X+3366300Y+1371550D03*
X+3353600Y+1371550D03*
X+3406300Y+1371550D03*
X+3459000Y+1371550D03*
X+3446300Y+1371550D03*
D115*
X+3406300Y+1429050D03*
D76*
X+1663700Y+4660900D03*
X+1503700Y+4660900D03*
X+1663700Y+4495800D03*
X+1503700Y+4495800D03*
D91*
X+1346200Y+4495800D03*
D76*
X+1503700Y+4330700D03*
X+1663700Y+4330700D03*
D75*
X+3588900Y+1875150D03*
X+3588900Y+1715150D03*
D116*
X+3209450Y+1692290D03*
X+3209450Y+1905650D03*
X+3209450Y+1320180D03*
X+3209450Y+1533540D03*
D75*
X+3588900Y+1511950D03*
X+3588900Y+1351950D03*
D117*
X+4179925Y+1354175D03*
X+3769925Y+1354175D03*
D118*
X+1698150Y+937850D03*
X+1698150Y+987850D03*
X+1698150Y+1037850D03*
X+1571150Y+1037850D03*
X+1571150Y+987850D03*
X+1571150Y+937850D03*
D119*
X+1653700Y+689400D03*
X+1423700Y+689400D03*
D120*
X+2072800Y+984550D03*
X+2072800Y+1241850D03*
D121*
X+1131200Y+773567D03*
X+873900Y+773567D03*
D75*
X+1874150Y+1027567D03*
X+1874150Y+1187567D03*
D76*
X+1717200Y+1216450D03*
X+1557200Y+1216450D03*
D75*
X+1399170Y+1280297D03*
X+1399170Y+1440297D03*
X+1399700Y+1122450D03*
X+1399700Y+962450D03*
D91*
X+3209450Y+2159650D03*
X+3209450Y+2680350D03*
X+3209450Y+3175650D03*
D76*
X+5964900Y+1743250D03*
X+6124900Y+1743250D03*
X+5964900Y+1579750D03*
X+6124900Y+1579750D03*
D122*
X+6756400Y+1873250D03*
X+6756400Y+1313250D03*
D123*
X+6378900Y+1443250D03*
X+6378900Y+1543250D03*
X+6378900Y+1643250D03*
X+6378900Y+1743250D03*
D76*
X+6124900Y+1414650D03*
X+5964900Y+1414650D03*
D91*
X+5799800Y+1579750D03*
X+5799800Y+1743250D03*
D65*
X+6800850Y+762000D02*
X+6800320Y+774958D01*
X+6796016Y+800876D01*
X+6787025Y+826794D01*
X+6772380Y+852712D01*
X+6749976Y+878466D01*
X+6724058Y+897958D01*
X+6698140Y+910530D01*
X+6672222Y+917866D01*
X+6646304Y+920694D01*
X+6642100Y+920750D01*
X+6483350Y+762000D02*
X+6483880Y+774958D01*
X+6488184Y+800876D01*
X+6497175Y+826794D01*
X+6511820Y+852712D01*
X+6534224Y+878466D01*
X+6560142Y+897958D01*
X+6586060Y+910530D01*
X+6611978Y+917866D01*
X+6637896Y+920694D01*
X+6642100Y+920750D01*
X+6483350Y+762000D02*
X+6483880Y+749042D01*
X+6488184Y+723124D01*
X+6497175Y+697206D01*
X+6511820Y+671288D01*
X+6534224Y+645534D01*
X+6560142Y+626042D01*
X+6586060Y+613470D01*
X+6611978Y+606134D01*
X+6637896Y+603306D01*
X+6642100Y+603250D01*
X+6800850Y+762000D02*
X+6800320Y+749042D01*
X+6796016Y+723124D01*
X+6787025Y+697206D01*
X+6772380Y+671288D01*
X+6749976Y+645534D01*
X+6724058Y+626042D01*
X+6698140Y+613470D01*
X+6672222Y+606134D01*
X+6646304Y+603306D01*
X+6642100Y+603250D01*
X+6800850Y+3556000D02*
X+6800320Y+3568958D01*
X+6796016Y+3594876D01*
X+6787025Y+3620794D01*
X+6772380Y+3646712D01*
X+6749976Y+3672466D01*
X+6724058Y+3691958D01*
X+6698140Y+3704530D01*
X+6672222Y+3711866D01*
X+6646304Y+3714694D01*
X+6642100Y+3714750D01*
X+6483350Y+3556000D02*
X+6483880Y+3568958D01*
X+6488184Y+3594876D01*
X+6497175Y+3620794D01*
X+6511820Y+3646712D01*
X+6534224Y+3672466D01*
X+6560142Y+3691958D01*
X+6586060Y+3704530D01*
X+6611978Y+3711866D01*
X+6637896Y+3714694D01*
X+6642100Y+3714750D01*
X+6483350Y+3556000D02*
X+6483880Y+3543042D01*
X+6488184Y+3517124D01*
X+6497175Y+3491206D01*
X+6511820Y+3465288D01*
X+6534224Y+3439534D01*
X+6560142Y+3420042D01*
X+6586060Y+3407470D01*
X+6611978Y+3400134D01*
X+6637896Y+3397306D01*
X+6642100Y+3397250D01*
X+6800850Y+3556000D02*
X+6800320Y+3543042D01*
X+6796016Y+3517124D01*
X+6787025Y+3491206D01*
X+6772380Y+3465288D01*
X+6749976Y+3439534D01*
X+6724058Y+3420042D01*
X+6698140Y+3407470D01*
X+6672222Y+3400134D01*
X+6646304Y+3397306D01*
X+6642100Y+3397250D01*
X+1720850Y+5080000D02*
X+1720320Y+5092958D01*
X+1716016Y+5118876D01*
X+1707025Y+5144794D01*
X+1692380Y+5170712D01*
X+1669976Y+5196466D01*
X+1644058Y+5215958D01*
X+1618140Y+5228530D01*
X+1592222Y+5235866D01*
X+1566304Y+5238694D01*
X+1562100Y+5238750D01*
X+1403350Y+5080000D02*
X+1403880Y+5092958D01*
X+1408184Y+5118876D01*
X+1417175Y+5144794D01*
X+1431820Y+5170712D01*
X+1454224Y+5196466D01*
X+1480142Y+5215958D01*
X+1506060Y+5228530D01*
X+1531978Y+5235866D01*
X+1557896Y+5238694D01*
X+1562100Y+5238750D01*
X+1403350Y+5080000D02*
X+1403880Y+5067042D01*
X+1408184Y+5041124D01*
X+1417175Y+5015206D01*
X+1431820Y+4989288D01*
X+1454224Y+4963534D01*
X+1480142Y+4944042D01*
X+1506060Y+4931470D01*
X+1531978Y+4924134D01*
X+1557896Y+4921306D01*
X+1562100Y+4921250D01*
X+1720850Y+5080000D02*
X+1720320Y+5067042D01*
X+1716016Y+5041124D01*
X+1707025Y+5015206D01*
X+1692380Y+4989288D01*
X+1669976Y+4963534D01*
X+1644058Y+4944042D01*
X+1618140Y+4931470D01*
X+1592222Y+4924134D01*
X+1566304Y+4921306D01*
X+1562100Y+4921250D01*
X+1720850Y+254000D02*
X+1720320Y+266958D01*
X+1716016Y+292876D01*
X+1707025Y+318794D01*
X+1692380Y+344712D01*
X+1669976Y+370466D01*
X+1644058Y+389958D01*
X+1618140Y+402530D01*
X+1592222Y+409866D01*
X+1566304Y+412694D01*
X+1562100Y+412750D01*
X+1403350Y+254000D02*
X+1403880Y+266958D01*
X+1408184Y+292876D01*
X+1417175Y+318794D01*
X+1431820Y+344712D01*
X+1454224Y+370466D01*
X+1480142Y+389958D01*
X+1506060Y+402530D01*
X+1531978Y+409866D01*
X+1557896Y+412694D01*
X+1562100Y+412750D01*
X+1403350Y+254000D02*
X+1403880Y+241042D01*
X+1408184Y+215124D01*
X+1417175Y+189206D01*
X+1431820Y+163288D01*
X+1454224Y+137534D01*
X+1480142Y+118042D01*
X+1506060Y+105470D01*
X+1531978Y+98134D01*
X+1557896Y+95306D01*
X+1562100Y+95250D01*
X+1720850Y+254000D02*
X+1720320Y+241042D01*
X+1716016Y+215124D01*
X+1707025Y+189206D01*
X+1692380Y+163288D01*
X+1669976Y+137534D01*
X+1644058Y+118042D01*
X+1618140Y+105470D01*
X+1592222Y+98134D01*
X+1566304Y+95306D01*
X+1562100Y+95250D01*
X+127000Y+0D02*
X+101032Y+2527D01*
X+77018Y+9798D01*
X+55423Y+21347D01*
X+36711Y+36711D01*
X+21348Y+55423D01*
X+9798Y+77018D01*
X+2527Y+101032D01*
X+0Y+127000D01*
X+0Y+5207000D01*
X+2527Y+5232967D01*
X+9798Y+5256981D01*
X+21348Y+5278577D01*
X+36711Y+5297289D01*
X+55423Y+5312652D01*
X+77018Y+5324202D01*
X+101032Y+5331473D01*
X+127000Y+5334000D01*
X+6515100Y+5334000D01*
X+6642100Y+5207000D01*
X+6642100Y+4064000D01*
X+6896100Y+3810000D01*
X+6896100Y+508000D01*
X+6642100Y+254000D01*
X+6642100Y+127000D01*
X+6639573Y+101032D01*
X+6632302Y+77018D01*
X+6620752Y+55423D01*
X+6605389Y+36711D01*
X+6586677Y+21347D01*
X+6565081Y+9798D01*
X+6541067Y+2527D01*
X+6515100Y+0D01*
X+127000Y+0D01*
X+526230Y+3171500D02*
X+526125Y+3174029D01*
X+525270Y+3179088D01*
X+523482Y+3184147D01*
X+520560Y+3189206D01*
X+516090Y+3194201D01*
X+511031Y+3197873D01*
X+505972Y+3200215D01*
X+500913Y+3201540D01*
X+495854Y+3201980D01*
X+495750Y+3201980D01*
X+465270Y+3171500D02*
X+465375Y+3174029D01*
X+466230Y+3179088D01*
X+468018Y+3184147D01*
X+470940Y+3189206D01*
X+475410Y+3194201D01*
X+480469Y+3197873D01*
X+485528Y+3200215D01*
X+490587Y+3201540D01*
X+495646Y+3201980D01*
X+495750Y+3201980D01*
X+465270Y+3171500D02*
X+465375Y+3168971D01*
X+466230Y+3163912D01*
X+468018Y+3158853D01*
X+470940Y+3153794D01*
X+475410Y+3148799D01*
X+480469Y+3145127D01*
X+485528Y+3142785D01*
X+490587Y+3141460D01*
X+495646Y+3141020D01*
X+495750Y+3141020D01*
X+526230Y+3171500D02*
X+526125Y+3168971D01*
X+525270Y+3163912D01*
X+523482Y+3158853D01*
X+520560Y+3153794D01*
X+516090Y+3148799D01*
X+511031Y+3145127D01*
X+505972Y+3142785D01*
X+500913Y+3141460D01*
X+495854Y+3141020D01*
X+495750Y+3141020D01*
X+526230Y+2593500D02*
X+526125Y+2596029D01*
X+525270Y+2601088D01*
X+523482Y+2606147D01*
X+520560Y+2611206D01*
X+516090Y+2616201D01*
X+511031Y+2619873D01*
X+505972Y+2622215D01*
X+500913Y+2623540D01*
X+495854Y+2623980D01*
X+495750Y+2623980D01*
X+465270Y+2593500D02*
X+465375Y+2596029D01*
X+466230Y+2601088D01*
X+468018Y+2606147D01*
X+470940Y+2611206D01*
X+475410Y+2616201D01*
X+480469Y+2619873D01*
X+485528Y+2622215D01*
X+490587Y+2623540D01*
X+495646Y+2623980D01*
X+495750Y+2623980D01*
X+465270Y+2593500D02*
X+465375Y+2590971D01*
X+466230Y+2585912D01*
X+468018Y+2580853D01*
X+470940Y+2575794D01*
X+475410Y+2570799D01*
X+480469Y+2567127D01*
X+485528Y+2564785D01*
X+490587Y+2563460D01*
X+495646Y+2563020D01*
X+495750Y+2563020D01*
X+526230Y+2593500D02*
X+526125Y+2590971D01*
X+525270Y+2585912D01*
X+523482Y+2580853D01*
X+520560Y+2575794D01*
X+516090Y+2570799D01*
X+511031Y+2567127D01*
X+505972Y+2564785D01*
X+500913Y+2563460D01*
X+495854Y+2563020D01*
X+495750Y+2563020D01*
M02*
