M48
METRIC,TZ
T01C0.3050
T02C0.6000
T03C0.9500
%
T01
X+8378Y+26922
X+7439Y+30338
X+15516Y+29843
X+12074Y+31494
X+4581Y+27874
X+4581Y+27874
X+12074Y+26922
X+18330Y+32895
X+17440Y+33784
X+19218Y+33784
X+19218Y+32006
X+17440Y+32006
X+19198Y+37463
X+21230Y+30224
X+22098Y+33846
X+22098Y+36004
X+16074Y+35494
X+40540Y+33708
X+36842Y+36324
X+40342Y+36324
X+23708Y+32137
X+25106Y+30740
X+23644Y+24306
X+23644Y+22401
X+21154Y+25258
X+15872Y+25271
X+19876Y+24257
X+9970Y+40169
X+17484Y+18337
X+15980Y+16308
X+11820Y+36447
X+12074Y+25271
X+5817Y+20081
X+5817Y+19129
X+5817Y+18176
X+8315Y+34796
X+7870Y+34034
X+7870Y+35494
X+34447Y+26424
X+31132Y+28424
X+34447Y+29456
X+34447Y+27424
X+14048Y+20089
X+13948Y+19166
X+36987Y+31678
X+9906Y+48234
X+38797Y+28908
X+38003Y+29416
X+37178Y+29924
X+40866Y+30660
X+37178Y+26924
X+45910Y+24742
X+43942Y+28424
X+38066Y+27218
X+17840Y+21924
X+16570Y+20654
X+17840Y+20654
X+17205Y+21289
X+9204Y+21960
X+8378Y+21007
X+8378Y+21960
X+10042Y+14530
X+9153Y+14530
X+6728Y+21960
X+6728Y+21007
X+6728Y+20118
X+9153Y+15419
X+10804Y+21960
X+16570Y+21924
X+17865Y+15673
X+37178Y+25924
X+19294Y+17642
X+34447Y+25424
X+33558Y+25368
X+7426Y+34796
X+45974Y+28424
X+43136Y+37974
X+19911Y+38085
X+40260Y+38355
X+41720Y+45022
X+62821Y+44046
X+59624Y+32020
X+59625Y+25763
X+56134Y+22050
X+56134Y+28336
X+53784Y+38544
X+60894Y+28654
X+60894Y+22304
X+63754Y+23574
X+63754Y+29924
X+48641Y+31115
X+45720Y+27115
X+45974Y+29424
X+48641Y+28924
X+47688Y+31115
X+48641Y+27924
X+48641Y+26980
X+60894Y+27194
X+66802Y+27384
X+66802Y+21034
X+60894Y+26241
X+62164Y+28464
X+57785Y+25758
X+54534Y+22050
X+54534Y+28336
X+52642Y+37135
X+46534Y+16199
X+40604Y+16199
X+44477Y+11245
X+37794Y+16199
X+7620Y+16383
X+37178Y+23424
X+34510Y+22924
X+43422Y+22371
X+42501Y+22784
X+39738Y+22562
X+38794Y+22562
X+25294Y+18146
X+25294Y+17231
X+17230Y+14022
X+32964Y+14224
X+21766Y+8273
X+19597Y+5202
X+21666Y+2082
X+37096Y+15120
X+49732Y+15437
X+52758Y+18463
X+10182Y+9615
X+10182Y+11215
X+11312Y+6466
X+11947Y+5831
X+32094Y+12313
X+32730Y+11678
X+15076Y+11085
X+32094Y+21596
X+32094Y+31756
X+32094Y+26804
X+37984Y+15120
X+37096Y+11314
X+34556Y+8774
X+36524Y+10743
X+33984Y+8203
X+12138Y+6656
X+46101Y+7620
X+29591Y+3810
X+20298Y+19166
X+30607Y+49530
X+35687Y+49530
X+38227Y+49530
X+40767Y+49530
X+44196Y+25170
X+40386Y+25170
X+32131Y+3810
X+27051Y+3810
X+52451Y+49530
X+22987Y+49530
X+20447Y+49530
X+54991Y+49530
X+57531Y+49530
X+60071Y+49530
X+51181Y+45720
X+57531Y+3810
X+54991Y+3810
X+42794Y+30660
X+43794Y+30660
X+53646Y+18463
X+57998Y+15798
X+57998Y+17432
X+58760Y+14146
X+49138Y+14843
X+47562Y+32068
X+1278Y+19425
X+1278Y+14345
X+1278Y+9265
X+1278Y+4185
X+1278Y+29585
X+1278Y+34665
X+1278Y+39745
X+1278Y+44825
X+1278Y+49905
X+3818Y+52445
X+3818Y+47365
X+3818Y+42285
X+3818Y+37205
X+6350Y+49905
X+6350Y+44825
X+6350Y+39745
X+8898Y+52445
X+13978Y+52445
X+11438Y+49905
X+11438Y+44825
X+19058Y+52445
X+13978Y+47365
X+13978Y+42285
X+9877Y+17197
X+8213Y+9615
X+7914Y+7736
X+8739Y+5259
X+5468Y+4185
X+18224Y+2082
X+18742Y+12765
X+20728Y+11530
X+22062Y+12418
X+18188Y+24420
X+21802Y+27748
X+12963Y+30669
X+19058Y+42285
X+24138Y+42285
X+29218Y+42285
X+26678Y+44825
X+21598Y+44825
X+24138Y+34665
X+29218Y+34665
X+34298Y+34665
X+26678Y+32125
X+29218Y+29585
X+26678Y+24505
X+31758Y+44825
X+36838Y+44825
X+34298Y+42285
X+44196Y+49530
X+30932Y+19044
X+29218Y+19425
X+26678Y+16885
X+24138Y+14345
X+29218Y+14345
X+26678Y+11805
X+25781Y+7239
X+30861Y+7239
X+35941Y+7239
X+39378Y+11805
X+44458Y+9275
X+49538Y+9275
X+52068Y+11805
X+57158Y+9275
X+62238Y+9266
X+67318Y+4185
X+65151Y+1270
X+60071Y+1270
X+54991Y+1270
X+63789Y+13544
X+65122Y+14432
X+67564Y+14148
X+67564Y+12116
X+66167Y+13132
X+67564Y+17716
X+66167Y+18732
X+44458Y+14355
X+64778Y+52455
X+64778Y+47375
X+64778Y+42295
X+64778Y+37215
X+59698Y+47375
X+57158Y+44835
X+54824Y+41171
X+58365Y+39086
X+58365Y+36863
X+60905Y+38006
X+57158Y+34484
X+54618Y+34675
X+52078Y+32135
X+51956Y+25881
X+51060Y+26897
X+48526Y+21780
X+39378Y+42285
X+43442Y+42285
X+49220Y+42285
X+49220Y+37205
X+49220Y+32125
X+47442Y+44825
T02
X+11303Y+2032
X+11303Y+3302
X+10033Y+2032
X+10033Y+3302
X+8763Y+2032
X+8763Y+3302
X+7493Y+2032
X+7493Y+3302
T03
X+48641Y+5080
X+51181Y+5080
X+53721Y+5080
X+56261Y+5080
X+58801Y+5080
X+61341Y+5080
X+63881Y+5080
X+48641Y+2540
X+51181Y+2540
X+53721Y+2540
X+56261Y+2540
X+58801Y+2540
X+61341Y+2540
X+63881Y+2540
X+23241Y+5080
X+25781Y+5080
X+28321Y+5080
X+30861Y+5080
X+33401Y+5080
X+35941Y+5080
X+38481Y+5080
X+41021Y+5080
X+43561Y+5080
X+46101Y+5080
X+23241Y+2540
X+25781Y+2540
X+28321Y+2540
X+30861Y+2540
X+33401Y+2540
X+35941Y+2540
X+38481Y+2540
X+41021Y+2540
X+43561Y+2540
X+46101Y+2540
X+19177Y+50800
X+21717Y+50800
X+24257Y+50800
X+26797Y+50800
X+29337Y+50800
X+31877Y+50800
X+34417Y+50800
X+36957Y+50800
X+39497Y+50800
X+42037Y+50800
X+19177Y+48260
X+21717Y+48260
X+24257Y+48260
X+26797Y+48260
X+29337Y+48260
X+31877Y+48260
X+34417Y+48260
X+36957Y+48260
X+39497Y+48260
X+42037Y+48260
X+46101Y+50800
X+48641Y+50800
X+51181Y+50800
X+53721Y+50800
X+56261Y+50800
X+58801Y+50800
X+61341Y+50800
X+63881Y+50800
X+46101Y+48260
X+48641Y+48260
X+51181Y+48260
M30
