G04 PROTEUS RS274X GERBER FILE*
%FSLAX45Y45*%
%MOMM*%
G01*
%AMPPAD055*
4,1,48,
0.323000,-0.577000,
-0.323000,-0.577000,
-0.349400,-0.575720,
-0.374930,-0.571950,
-0.399490,-0.565800,
-0.445220,-0.546870,
-0.485650,-0.519840,
-0.519840,-0.485640,
-0.546860,-0.445220,
-0.565800,-0.399490,
-0.571950,-0.374930,
-0.575720,-0.349400,
-0.577000,-0.323000,
-0.577000,0.323000,
-0.575720,0.349400,
-0.571950,0.374930,
-0.565800,0.399490,
-0.546860,0.445220,
-0.519840,0.485640,
-0.485650,0.519840,
-0.445220,0.546870,
-0.399490,0.565800,
-0.374930,0.571950,
-0.349400,0.575720,
-0.323000,0.577000,
0.323000,0.577000,
0.349400,0.575720,
0.374930,0.571950,
0.399490,0.565800,
0.445220,0.546870,
0.485650,0.519840,
0.519840,0.485640,
0.546860,0.445220,
0.565800,0.399490,
0.571950,0.374930,
0.575720,0.349400,
0.577000,0.323000,
0.577000,-0.323000,
0.575720,-0.349400,
0.571950,-0.374930,
0.565800,-0.399490,
0.546860,-0.445220,
0.519840,-0.485640,
0.485650,-0.519840,
0.445220,-0.546870,
0.399490,-0.565800,
0.374930,-0.571950,
0.349400,-0.575720,
0.323000,-0.577000,
0*%
%ADD61PPAD055*%
%ADD62C,1.154000*%
%AMPPAD057*
4,1,44,
-0.546000,0.927000,
0.546000,0.927000,
0.585600,0.925080,
0.623900,0.919420,
0.695940,0.897610,
0.760730,0.862960,
0.816870,0.816870,
0.862960,0.760730,
0.897610,0.695940,
0.919420,0.623900,
0.925080,0.585600,
0.927000,0.546000,
0.927000,-0.546000,
0.925080,-0.585600,
0.919420,-0.623900,
0.897610,-0.695940,
0.862960,-0.760730,
0.816870,-0.816870,
0.760730,-0.862960,
0.695940,-0.897610,
0.623900,-0.919420,
0.585600,-0.925080,
0.546000,-0.927000,
-0.546000,-0.927000,
-0.585600,-0.925080,
-0.623900,-0.919420,
-0.695940,-0.897610,
-0.760730,-0.862960,
-0.816870,-0.816870,
-0.862960,-0.760730,
-0.897610,-0.695940,
-0.919420,-0.623900,
-0.925080,-0.585600,
-0.927000,-0.546000,
-0.927000,0.546000,
-0.925080,0.585600,
-0.919420,0.623900,
-0.897610,0.695940,
-0.862960,0.760730,
-0.816870,0.816870,
-0.760730,0.862960,
-0.695940,0.897610,
-0.623900,0.919420,
-0.585600,0.925080,
-0.546000,0.927000,
0*%
%ADD63PPAD057*%
%ADD64C,1.854000*%
%ADD50C,0.025400*%
D61*
X+1149350Y+208200D03*
D62*
X+1149350Y+335200D03*
X+1022350Y+208200D03*
X+1022350Y+335200D03*
X+895350Y+208200D03*
X+895350Y+335200D03*
X+768350Y+208200D03*
X+768350Y+335200D03*
D63*
X+4864100Y+508000D03*
D64*
X+5118100Y+508000D03*
X+5372100Y+508000D03*
X+5626100Y+508000D03*
X+5880100Y+508000D03*
X+6134100Y+508000D03*
X+6388100Y+508000D03*
D63*
X+4864100Y+254000D03*
D64*
X+5118100Y+254000D03*
X+5372100Y+254000D03*
X+5626100Y+254000D03*
X+5880100Y+254000D03*
X+6134100Y+254000D03*
X+6388100Y+254000D03*
D63*
X+2324100Y+508000D03*
D64*
X+2578100Y+508000D03*
X+2832100Y+508000D03*
X+3086100Y+508000D03*
X+3340100Y+508000D03*
X+3594100Y+508000D03*
X+3848100Y+508000D03*
X+4102100Y+508000D03*
X+4356100Y+508000D03*
X+4610100Y+508000D03*
D63*
X+2324100Y+254000D03*
D64*
X+2578100Y+254000D03*
X+2832100Y+254000D03*
X+3086100Y+254000D03*
X+3340100Y+254000D03*
X+3594100Y+254000D03*
X+3848100Y+254000D03*
X+4102100Y+254000D03*
X+4356100Y+254000D03*
X+4610100Y+254000D03*
D63*
X+1917700Y+5080000D03*
D64*
X+2171700Y+5080000D03*
X+2425700Y+5080000D03*
X+2679700Y+5080000D03*
X+2933700Y+5080000D03*
X+3187700Y+5080000D03*
X+3441700Y+5080000D03*
X+3695700Y+5080000D03*
X+3949700Y+5080000D03*
X+4203700Y+5080000D03*
D63*
X+1917700Y+4826000D03*
D64*
X+2171700Y+4826000D03*
X+2425700Y+4826000D03*
X+2679700Y+4826000D03*
X+2933700Y+4826000D03*
X+3187700Y+4826000D03*
X+3441700Y+4826000D03*
X+3695700Y+4826000D03*
X+3949700Y+4826000D03*
X+4203700Y+4826000D03*
D63*
X+4610100Y+5080000D03*
D64*
X+4864100Y+5080000D03*
X+5118100Y+5080000D03*
X+5372100Y+5080000D03*
X+5626100Y+5080000D03*
X+5880100Y+5080000D03*
X+6134100Y+5080000D03*
X+6388100Y+5080000D03*
D63*
X+4610100Y+4826000D03*
D64*
X+4864100Y+4826000D03*
X+5118100Y+4826000D03*
D50*
X+6800850Y+762000D02*
X+6800320Y+774958D01*
X+6796016Y+800876D01*
X+6787025Y+826794D01*
X+6772380Y+852712D01*
X+6749976Y+878466D01*
X+6724058Y+897958D01*
X+6698140Y+910530D01*
X+6672222Y+917866D01*
X+6646304Y+920694D01*
X+6642100Y+920750D01*
X+6483350Y+762000D02*
X+6483880Y+774958D01*
X+6488184Y+800876D01*
X+6497175Y+826794D01*
X+6511820Y+852712D01*
X+6534224Y+878466D01*
X+6560142Y+897958D01*
X+6586060Y+910530D01*
X+6611978Y+917866D01*
X+6637896Y+920694D01*
X+6642100Y+920750D01*
X+6483350Y+762000D02*
X+6483880Y+749042D01*
X+6488184Y+723124D01*
X+6497175Y+697206D01*
X+6511820Y+671288D01*
X+6534224Y+645534D01*
X+6560142Y+626042D01*
X+6586060Y+613470D01*
X+6611978Y+606134D01*
X+6637896Y+603306D01*
X+6642100Y+603250D01*
X+6800850Y+762000D02*
X+6800320Y+749042D01*
X+6796016Y+723124D01*
X+6787025Y+697206D01*
X+6772380Y+671288D01*
X+6749976Y+645534D01*
X+6724058Y+626042D01*
X+6698140Y+613470D01*
X+6672222Y+606134D01*
X+6646304Y+603306D01*
X+6642100Y+603250D01*
X+6800850Y+3556000D02*
X+6800320Y+3568958D01*
X+6796016Y+3594876D01*
X+6787025Y+3620794D01*
X+6772380Y+3646712D01*
X+6749976Y+3672466D01*
X+6724058Y+3691958D01*
X+6698140Y+3704530D01*
X+6672222Y+3711866D01*
X+6646304Y+3714694D01*
X+6642100Y+3714750D01*
X+6483350Y+3556000D02*
X+6483880Y+3568958D01*
X+6488184Y+3594876D01*
X+6497175Y+3620794D01*
X+6511820Y+3646712D01*
X+6534224Y+3672466D01*
X+6560142Y+3691958D01*
X+6586060Y+3704530D01*
X+6611978Y+3711866D01*
X+6637896Y+3714694D01*
X+6642100Y+3714750D01*
X+6483350Y+3556000D02*
X+6483880Y+3543042D01*
X+6488184Y+3517124D01*
X+6497175Y+3491206D01*
X+6511820Y+3465288D01*
X+6534224Y+3439534D01*
X+6560142Y+3420042D01*
X+6586060Y+3407470D01*
X+6611978Y+3400134D01*
X+6637896Y+3397306D01*
X+6642100Y+3397250D01*
X+6800850Y+3556000D02*
X+6800320Y+3543042D01*
X+6796016Y+3517124D01*
X+6787025Y+3491206D01*
X+6772380Y+3465288D01*
X+6749976Y+3439534D01*
X+6724058Y+3420042D01*
X+6698140Y+3407470D01*
X+6672222Y+3400134D01*
X+6646304Y+3397306D01*
X+6642100Y+3397250D01*
X+1720850Y+5080000D02*
X+1720320Y+5092958D01*
X+1716016Y+5118876D01*
X+1707025Y+5144794D01*
X+1692380Y+5170712D01*
X+1669976Y+5196466D01*
X+1644058Y+5215958D01*
X+1618140Y+5228530D01*
X+1592222Y+5235866D01*
X+1566304Y+5238694D01*
X+1562100Y+5238750D01*
X+1403350Y+5080000D02*
X+1403880Y+5092958D01*
X+1408184Y+5118876D01*
X+1417175Y+5144794D01*
X+1431820Y+5170712D01*
X+1454224Y+5196466D01*
X+1480142Y+5215958D01*
X+1506060Y+5228530D01*
X+1531978Y+5235866D01*
X+1557896Y+5238694D01*
X+1562100Y+5238750D01*
X+1403350Y+5080000D02*
X+1403880Y+5067042D01*
X+1408184Y+5041124D01*
X+1417175Y+5015206D01*
X+1431820Y+4989288D01*
X+1454224Y+4963534D01*
X+1480142Y+4944042D01*
X+1506060Y+4931470D01*
X+1531978Y+4924134D01*
X+1557896Y+4921306D01*
X+1562100Y+4921250D01*
X+1720850Y+5080000D02*
X+1720320Y+5067042D01*
X+1716016Y+5041124D01*
X+1707025Y+5015206D01*
X+1692380Y+4989288D01*
X+1669976Y+4963534D01*
X+1644058Y+4944042D01*
X+1618140Y+4931470D01*
X+1592222Y+4924134D01*
X+1566304Y+4921306D01*
X+1562100Y+4921250D01*
X+1720850Y+254000D02*
X+1720320Y+266958D01*
X+1716016Y+292876D01*
X+1707025Y+318794D01*
X+1692380Y+344712D01*
X+1669976Y+370466D01*
X+1644058Y+389958D01*
X+1618140Y+402530D01*
X+1592222Y+409866D01*
X+1566304Y+412694D01*
X+1562100Y+412750D01*
X+1403350Y+254000D02*
X+1403880Y+266958D01*
X+1408184Y+292876D01*
X+1417175Y+318794D01*
X+1431820Y+344712D01*
X+1454224Y+370466D01*
X+1480142Y+389958D01*
X+1506060Y+402530D01*
X+1531978Y+409866D01*
X+1557896Y+412694D01*
X+1562100Y+412750D01*
X+1403350Y+254000D02*
X+1403880Y+241042D01*
X+1408184Y+215124D01*
X+1417175Y+189206D01*
X+1431820Y+163288D01*
X+1454224Y+137534D01*
X+1480142Y+118042D01*
X+1506060Y+105470D01*
X+1531978Y+98134D01*
X+1557896Y+95306D01*
X+1562100Y+95250D01*
X+1720850Y+254000D02*
X+1720320Y+241042D01*
X+1716016Y+215124D01*
X+1707025Y+189206D01*
X+1692380Y+163288D01*
X+1669976Y+137534D01*
X+1644058Y+118042D01*
X+1618140Y+105470D01*
X+1592222Y+98134D01*
X+1566304Y+95306D01*
X+1562100Y+95250D01*
X+127000Y+0D02*
X+101032Y+2527D01*
X+77018Y+9798D01*
X+55423Y+21347D01*
X+36711Y+36711D01*
X+21348Y+55423D01*
X+9798Y+77018D01*
X+2527Y+101032D01*
X+0Y+127000D01*
X+0Y+5207000D01*
X+2527Y+5232967D01*
X+9798Y+5256981D01*
X+21348Y+5278577D01*
X+36711Y+5297289D01*
X+55423Y+5312652D01*
X+77018Y+5324202D01*
X+101032Y+5331473D01*
X+127000Y+5334000D01*
X+6515100Y+5334000D01*
X+6642100Y+5207000D01*
X+6642100Y+4064000D01*
X+6896100Y+3810000D01*
X+6896100Y+508000D01*
X+6642100Y+254000D01*
X+6642100Y+127000D01*
X+6639573Y+101032D01*
X+6632302Y+77018D01*
X+6620752Y+55423D01*
X+6605389Y+36711D01*
X+6586677Y+21347D01*
X+6565081Y+9798D01*
X+6541067Y+2527D01*
X+6515100Y+0D01*
X+127000Y+0D01*
X+486300Y+2322200D02*
X+486197Y+2324689D01*
X+485355Y+2329669D01*
X+483595Y+2334649D01*
X+480718Y+2339629D01*
X+476317Y+2344545D01*
X+471337Y+2348159D01*
X+466357Y+2350464D01*
X+461377Y+2351767D01*
X+456397Y+2352200D01*
X+456300Y+2352200D01*
X+426300Y+2322200D02*
X+426403Y+2324689D01*
X+427245Y+2329669D01*
X+429005Y+2334649D01*
X+431882Y+2339629D01*
X+436283Y+2344545D01*
X+441263Y+2348159D01*
X+446243Y+2350464D01*
X+451223Y+2351767D01*
X+456203Y+2352200D01*
X+456300Y+2352200D01*
X+426300Y+2322200D02*
X+426403Y+2319711D01*
X+427245Y+2314731D01*
X+429005Y+2309751D01*
X+431882Y+2304771D01*
X+436283Y+2299855D01*
X+441263Y+2296241D01*
X+446243Y+2293936D01*
X+451223Y+2292633D01*
X+456203Y+2292200D01*
X+456300Y+2292200D01*
X+486300Y+2322200D02*
X+486197Y+2319711D01*
X+485355Y+2314731D01*
X+483595Y+2309751D01*
X+480718Y+2304771D01*
X+476317Y+2299855D01*
X+471337Y+2296241D01*
X+466357Y+2293936D01*
X+461377Y+2292633D01*
X+456397Y+2292200D01*
X+456300Y+2292200D01*
X+486300Y+1922200D02*
X+486197Y+1924689D01*
X+485355Y+1929669D01*
X+483595Y+1934649D01*
X+480718Y+1939629D01*
X+476317Y+1944545D01*
X+471337Y+1948159D01*
X+466357Y+1950464D01*
X+461377Y+1951767D01*
X+456397Y+1952200D01*
X+456300Y+1952200D01*
X+426300Y+1922200D02*
X+426403Y+1924689D01*
X+427245Y+1929669D01*
X+429005Y+1934649D01*
X+431882Y+1939629D01*
X+436283Y+1944545D01*
X+441263Y+1948159D01*
X+446243Y+1950464D01*
X+451223Y+1951767D01*
X+456203Y+1952200D01*
X+456300Y+1952200D01*
X+426300Y+1922200D02*
X+426403Y+1919711D01*
X+427245Y+1914731D01*
X+429005Y+1909751D01*
X+431882Y+1904771D01*
X+436283Y+1899855D01*
X+441263Y+1896241D01*
X+446243Y+1893936D01*
X+451223Y+1892633D01*
X+456203Y+1892200D01*
X+456300Y+1892200D01*
X+486300Y+1922200D02*
X+486197Y+1919711D01*
X+485355Y+1914731D01*
X+483595Y+1909751D01*
X+480718Y+1904771D01*
X+476317Y+1899855D01*
X+471337Y+1896241D01*
X+466357Y+1893936D01*
X+461377Y+1892633D01*
X+456397Y+1892200D01*
X+456300Y+1892200D01*
X+486300Y+3732900D02*
X+486197Y+3735389D01*
X+485355Y+3740369D01*
X+483595Y+3745349D01*
X+480718Y+3750329D01*
X+476317Y+3755245D01*
X+471337Y+3758859D01*
X+466357Y+3761164D01*
X+461377Y+3762467D01*
X+456397Y+3762900D01*
X+456300Y+3762900D01*
X+426300Y+3732900D02*
X+426403Y+3735389D01*
X+427245Y+3740369D01*
X+429005Y+3745349D01*
X+431882Y+3750329D01*
X+436283Y+3755245D01*
X+441263Y+3758859D01*
X+446243Y+3761164D01*
X+451223Y+3762467D01*
X+456203Y+3762900D01*
X+456300Y+3762900D01*
X+426300Y+3732900D02*
X+426403Y+3730411D01*
X+427245Y+3725431D01*
X+429005Y+3720451D01*
X+431882Y+3715471D01*
X+436283Y+3710555D01*
X+441263Y+3706941D01*
X+446243Y+3704636D01*
X+451223Y+3703333D01*
X+456203Y+3702900D01*
X+456300Y+3702900D01*
X+486300Y+3732900D02*
X+486197Y+3730411D01*
X+485355Y+3725431D01*
X+483595Y+3720451D01*
X+480718Y+3715471D01*
X+476317Y+3710555D01*
X+471337Y+3706941D01*
X+466357Y+3704636D01*
X+461377Y+3703333D01*
X+456397Y+3702900D01*
X+456300Y+3702900D01*
X+486300Y+4132900D02*
X+486197Y+4135389D01*
X+485355Y+4140369D01*
X+483595Y+4145349D01*
X+480718Y+4150329D01*
X+476317Y+4155245D01*
X+471337Y+4158859D01*
X+466357Y+4161164D01*
X+461377Y+4162467D01*
X+456397Y+4162900D01*
X+456300Y+4162900D01*
X+426300Y+4132900D02*
X+426403Y+4135389D01*
X+427245Y+4140369D01*
X+429005Y+4145349D01*
X+431882Y+4150329D01*
X+436283Y+4155245D01*
X+441263Y+4158859D01*
X+446243Y+4161164D01*
X+451223Y+4162467D01*
X+456203Y+4162900D01*
X+456300Y+4162900D01*
X+426300Y+4132900D02*
X+426403Y+4130411D01*
X+427245Y+4125431D01*
X+429005Y+4120451D01*
X+431882Y+4115471D01*
X+436283Y+4110555D01*
X+441263Y+4106941D01*
X+446243Y+4104636D01*
X+451223Y+4103333D01*
X+456203Y+4102900D01*
X+456300Y+4102900D01*
X+486300Y+4132900D02*
X+486197Y+4130411D01*
X+485355Y+4125431D01*
X+483595Y+4120451D01*
X+480718Y+4115471D01*
X+476317Y+4110555D01*
X+471337Y+4106941D01*
X+466357Y+4104636D01*
X+461377Y+4103333D01*
X+456397Y+4102900D01*
X+456300Y+4102900D01*
M02*
