M48
METRIC,TZ
T01C0.3050
T02C0.6000
T03C0.9500
%
T01
X+4863Y+24572
X+2413Y+25172
X+4863Y+17872
X+2413Y+17272
X+2413Y+43279
X+4863Y+42679
X+2413Y+35379
X+4863Y+35979
X+9652Y+21844
X+4663Y+46708
X+4663Y+51308
X+11013Y+46708
X+11013Y+51308
X+40604Y+18752
X+37794Y+36196
X+41294Y+36196
X+9128Y+17420
X+9128Y+20468
X+14557Y+19406
X+11753Y+41153
X+11753Y+42042
X+11753Y+42931
X+37836Y+12198
X+32058Y+15310
X+33984Y+18752
X+37794Y+15564
X+33984Y+17152
X+14288Y+13958
X+14288Y+12052
X+18542Y+18478
X+32022Y+26519
X+32022Y+24614
X+32022Y+22709
X+18539Y+19406
X+19809Y+20676
X+19812Y+19748
X+33622Y+26519
X+18539Y+20359
X+34522Y+25531
X+12636Y+15558
X+10728Y+17420
X+14288Y+15558
X+15808Y+23186
X+8124Y+35454
X+6982Y+34310
X+8124Y+34310
X+7553Y+34882
X+6982Y+35454
X+7553Y+31707
X+8124Y+31136
X+6982Y+32278
X+8124Y+32278
X+6982Y+31136
X+47042Y+14443
X+46979Y+15318
X+39407Y+17874
X+51345Y+18752
X+39842Y+14294
X+38286Y+22498
X+39294Y+22498
X+41286Y+22498
X+42294Y+22498
X+43302Y+22498
X+44286Y+22498
X+46228Y+21082
X+22808Y+15960
X+30957Y+22817
X+29718Y+25218
X+30385Y+25884
X+50419Y+21082
X+51118Y+21717
X+50228Y+22352
X+62440Y+45781
X+62440Y+39177
X+37241Y+29924
X+45720Y+26424
X+45466Y+29186
X+51355Y+17173
X+37794Y+18752
X+38354Y+26424
X+3874Y+12192
X+37495Y+25424
X+37495Y+24384
X+3874Y+7112
X+3874Y+2082
X+55562Y+29424
X+52435Y+17173
X+16288Y+33680
X+16288Y+35580
X+37241Y+28424
X+38244Y+28424
X+38828Y+29170
X+16288Y+28092
X+22892Y+34506
X+38194Y+29916
X+49466Y+25924
X+20984Y+29992
X+19841Y+29992
X+22127Y+29992
X+21750Y+21166
X+22416Y+21833
X+22670Y+20912
X+22046Y+16596
X+22046Y+15326
X+12923Y+31707
X+23292Y+22563
X+23292Y+25738
X+24371Y+22563
X+23863Y+21801
X+30149Y+18993
X+25526Y+18993
X+41592Y+39942
X+13903Y+41220
X+43180Y+37402
X+40576Y+30670
X+54102Y+29424
X+52959Y+28384
X+53912Y+28130
X+46879Y+31480
X+52642Y+39624
X+52642Y+40513
X+44169Y+29173
X+44577Y+38926
X+30752Y+28424
X+20984Y+27859
X+53912Y+25924
X+23927Y+26500
X+24498Y+25738
X+11653Y+31707
X+14193Y+29992
X+28943Y+21801
X+12636Y+13958
X+16320Y+15545
X+49249Y+29173
X+55180Y+38006
X+53935Y+41171
X+57215Y+48641
X+19431Y+2540
X+16891Y+5080
X+19431Y+7620
X+14351Y+7620
X+9271Y+5080
X+1651Y+5080
X+1651Y+10160
X+6731Y+7620
X+24511Y+10160
X+29591Y+10160
X+34671Y+10160
X+39751Y+10160
X+54991Y+7620
X+60071Y+7620
X+67691Y+10160
X+62611Y+10160
X+57531Y+10160
X+54991Y+12700
X+60071Y+12700
X+65151Y+12700
X+67691Y+15240
X+62611Y+15240
X+54991Y+17780
X+60071Y+17780
X+65151Y+17780
X+67691Y+20320
X+65151Y+22860
X+67691Y+25400
X+65151Y+27940
X+67691Y+30480
X+65151Y+33020
X+67691Y+38100
X+65151Y+40640
X+65151Y+45720
X+60071Y+45720
X+54991Y+40640
X+54991Y+33020
X+49911Y+33020
X+49911Y+38100
X+49911Y+43180
X+52451Y+45720
X+47371Y+45720
X+44831Y+43180
X+47371Y+40640
X+47371Y+35560
X+37211Y+40640
X+37211Y+45720
X+34671Y+43180
X+32131Y+40640
X+29591Y+43180
X+27051Y+40640
X+32131Y+45720
X+27051Y+45720
X+24511Y+43180
X+21971Y+40640
X+21971Y+45720
X+19431Y+43180
X+16891Y+40640
X+16891Y+45720
X+8763Y+46708
X+8763Y+51308
X+2413Y+51308
X+2413Y+46708
X+9271Y+40640
X+9271Y+35560
X+14193Y+33447
X+20984Y+33447
X+34671Y+33020
X+29591Y+33020
X+4191Y+27940
X+41529Y+26670
X+48641Y+10287
X+42000Y+14294
X+46534Y+17152
T02
X+11494Y+2082
X+11494Y+3352
X+10224Y+2082
X+10224Y+3352
X+8954Y+2082
X+8954Y+3352
X+7684Y+2082
X+7684Y+3352
T03
X+48641Y+5080
X+51181Y+5080
X+53721Y+5080
X+56261Y+5080
X+58801Y+5080
X+61341Y+5080
X+63881Y+5080
X+48641Y+2540
X+51181Y+2540
X+53721Y+2540
X+56261Y+2540
X+58801Y+2540
X+61341Y+2540
X+63881Y+2540
X+23241Y+5080
X+25781Y+5080
X+28321Y+5080
X+30861Y+5080
X+33401Y+5080
X+35941Y+5080
X+38481Y+5080
X+41021Y+5080
X+43561Y+5080
X+46101Y+5080
X+23241Y+2540
X+25781Y+2540
X+28321Y+2540
X+30861Y+2540
X+33401Y+2540
X+35941Y+2540
X+38481Y+2540
X+41021Y+2540
X+43561Y+2540
X+46101Y+2540
X+19177Y+50800
X+21717Y+50800
X+24257Y+50800
X+26797Y+50800
X+29337Y+50800
X+31877Y+50800
X+34417Y+50800
X+36957Y+50800
X+39497Y+50800
X+42037Y+50800
X+19177Y+48260
X+21717Y+48260
X+24257Y+48260
X+26797Y+48260
X+29337Y+48260
X+31877Y+48260
X+34417Y+48260
X+36957Y+48260
X+39497Y+48260
X+42037Y+48260
X+46101Y+50800
X+48641Y+50800
X+51181Y+50800
X+53721Y+50800
X+56261Y+50800
X+58801Y+50800
X+61341Y+50800
X+63881Y+50800
X+46101Y+48260
X+48641Y+48260
X+51181Y+48260
M30
